<?xml version="1.0" encoding="utf-8"?>
<!-- Generator: Adobe Illustrator 27.5.0, SVG Export Plug-In . SVG Version: 6.00 Build 0)  -->
<svg version="1.1" xmlns="http://www.w3.org/2000/svg" xmlns:xlink="http://www.w3.org/1999/xlink" x="0px" y="0px"
	 viewBox="0 0 3710 3710" style="enable-background:new 0 0 3710 3710;" xml:space="preserve">
<g id="Background">
	<g>
		<g>
			<rect style="fill:#FFFFFF;" width="3710" height="3710"/>
		</g>
	</g>
</g>
<g id="Illustration">
	<g>
		<linearGradient id="SVGID_1_" gradientUnits="userSpaceOnUse" x1="3487.0837" y1="3662.4429" x2="1541.204" y2="1591.0229">
			<stop  offset="0" style="stop-color:#DAE3FE"/>
			<stop  offset="1" style="stop-color:#E9EFFD"/>
		</linearGradient>
		<path style="fill:url(#SVGID_1_);" d="M2902.835,2831.398c-71.834,74.044-136.108,117.569-185.319,150.428
			c-479.943,320.462-1028.571,228.097-1198.193,196.527c-273.664-50.935-504.675-86.867-703.154-266.185
			c-451.005-407.465-429.069-1257.467-84.446-1784.006c40.862-62.432,384.963-572.497,934.778-644.369
			c13.448-1.758,23.481-2.759,32.27-3.689c85.055-9.005,612.125-56.534,1041.897,303.529
			c61.52,51.541,160.523,144.508,252.331,286.299C3328.692,1588.381,3329.755,2391.345,2902.835,2831.398z"/>
		<g>
			<g>
				<g style="opacity:0.3;">
					<path style="fill:#91B3FA;" d="M2007.531,840.049c-3.676,0.235-6.846-2.556-7.08-6.231c-0.456-7.141-1.229-14.368-2.297-21.481
						c-0.541-3.599,1.904-6.957,5.476-7.564c0.042-0.007,0.085-0.014,0.128-0.022c3.642-0.547,7.037,1.963,7.584,5.606
						c1.124,7.487,1.939,15.096,2.418,22.613c0.22,3.437-2.208,6.433-5.531,6.997C2008,840.006,2007.767,840.035,2007.531,840.049z
						 M1990.578,778.071c-2.027-6.898-4.368-13.774-6.962-20.444c-1.334-3.43,0.365-7.296,3.798-8.632
						c3.45-1.328,7.298,0.368,8.632,3.801c2.729,7.016,5.194,14.255,7.328,21.512c1.038,3.533-0.985,7.24-4.519,8.279
						c-0.257,0.075-0.515,0.135-0.772,0.178C1994.798,783.323,1991.541,781.348,1990.578,778.071z M1968.661,725.9
						c-3.502-6.256-7.318-12.436-11.347-18.371c-2.068-3.047-1.274-7.195,1.773-9.263c3.046-2.063,7.192-1.273,9.263,1.773
						c4.242,6.25,8.262,12.759,11.949,19.346c1.799,3.214,0.651,7.277-2.561,9.077c-0.685,0.383-1.409,0.633-2.141,0.757
						C1972.895,729.679,1970.076,728.429,1968.661,725.9z M1935.627,679.942c-4.817-5.322-9.923-10.496-15.172-15.38
						c-2.696-2.51-2.848-6.729-0.339-9.425c2.511-2.693,6.729-2.844,9.425-0.339c5.527,5.144,10.901,10.591,15.973,16.19
						c2.471,2.73,2.262,6.948-0.468,9.419c-0.977,0.884-2.144,1.426-3.353,1.631
						C1939.522,682.406,1937.216,681.693,1935.627,679.942z M1893.178,642.487c-5.865-4.109-11.99-8.026-18.204-11.637
						c-3.184-1.853-4.264-5.934-2.413-9.118c1.852-3.186,5.934-4.265,9.117-2.411c6.537,3.8,12.982,7.921,19.153,12.245
						c3.016,2.112,3.749,6.27,1.635,9.287c-1.064,1.52-2.649,2.46-4.345,2.748C1896.451,643.885,1894.675,643.536,1893.178,642.487z
						 M1843.5,615.359c-6.638-2.715-13.475-5.177-20.322-7.32c-3.514-1.1-5.473-4.842-4.373-8.354
						c1.1-3.516,4.839-5.474,8.355-4.375c7.206,2.254,14.403,4.847,21.389,7.704c3.408,1.395,5.041,5.287,3.648,8.697
						c-0.905,2.215-2.866,3.678-5.063,4.051C1845.948,615.964,1844.695,615.849,1843.5,615.359z M1596.922,638.159
						c-2.063-3.05-1.264-7.196,1.788-9.26c6.25-4.226,12.77-8.236,19.377-11.918c3.218-1.793,7.279-0.638,9.071,2.579
						c1.793,3.215,0.638,7.276-2.578,9.069c-6.273,3.496-12.463,7.305-18.398,11.318c-0.814,0.55-1.705,0.897-2.615,1.052
						C1601.067,641.424,1598.435,640.397,1596.922,638.159z M1789.077,599.928c-7.072-1.17-14.281-2.047-21.427-2.604
						c-3.672-0.288-6.417-3.497-6.13-7.169c0.287-3.673,3.497-6.398,7.169-6.128c7.525,0.588,15.117,1.511,22.564,2.744
						c3.633,0.601,6.092,4.033,5.49,7.668c-0.476,2.882-2.735,5.025-5.462,5.487
						C1790.572,600.047,1789.829,600.051,1789.077,599.928z M1647.719,609.918c-1.328-3.434,0.381-7.296,3.817-8.624
						c7.037-2.719,14.284-5.169,21.539-7.289c3.534-1.049,7.237,0.999,8.27,4.533c1.032,3.534-0.998,7.237-4.533,8.27
						c-6.895,2.013-13.783,4.342-20.469,6.927c-0.427,0.165-0.86,0.281-1.294,0.354
						C1651.986,614.609,1648.88,612.926,1647.719,609.918z M1732.581,597.046c-7.151,0.442-14.377,1.198-21.479,2.251
						c-3.644,0.542-7.034-1.974-7.574-5.618c-0.532-3.595,1.911-6.945,5.478-7.551c0.046-0.008,0.094-0.016,0.14-0.021
						c7.476-1.11,15.084-1.908,22.61-2.374c3.676-0.225,6.841,2.57,7.068,6.246c0.213,3.433-2.214,6.421-5.532,6.984
						C1733.06,597.002,1732.822,597.029,1732.581,597.046z"/>
					<path style="fill:#91B3FA;" d="M1567.311,670.634c1.294-0.22,2.538-0.822,3.547-1.812c2.454-2.409,5-4.804,7.565-7.126
						c2.732-2.469,2.944-6.688,0.474-9.418c-2.469-2.733-6.69-2.949-9.419-0.473c-2.7,2.44-5.376,4.96-7.959,7.494
						c-2.629,2.578-2.67,6.802-0.092,9.429C1563.017,670.351,1565.231,670.987,1567.311,670.634z"/>
				</g>
				<g style="opacity:0.3;">
					<path style="fill:#91B3FA;" d="M1489.295,858.375c3.173-0.539,5.575-3.314,5.545-6.635c-0.032-3.437,0.007-6.934,0.118-10.39
						c0.117-3.682-2.771-6.761-6.452-6.879c-3.696-0.118-6.761,2.772-6.879,6.452c-0.116,3.639-0.158,7.321-0.125,10.941
						c0.034,3.683,3.048,6.64,6.73,6.607C1488.594,858.468,1488.949,858.434,1489.295,858.375z"/>
					<path style="fill:#91B3FA;" d="M1779.212,1114.148c-3.656,0.438-6.976-2.172-7.414-5.83c-0.437-3.656,2.17-6.968,5.829-7.412
						c6.962-0.833,13.996-1.977,20.989-3.407c3.588-0.746,7.132,1.59,7.87,5.198c0.738,3.608-1.589,7.131-5.197,7.87
						c-3.03,0.62-6.058,1.187-9.083,1.7C1787.89,1113,1783.518,1113.634,1779.212,1114.148z M1827.817,1096.801
						c-1.219-3.474,0.61-7.279,4.085-8.498c6.671-2.342,13.316-4.989,19.749-7.873c3.352-1.515,7.306-0.004,8.813,3.358
						c1.505,3.359,0.002,7.305-3.358,8.811c-6.773,3.036-13.767,5.824-20.788,8.287c-0.364,0.128-0.732,0.222-1.1,0.285
						C1832.073,1101.704,1828.909,1099.913,1827.817,1096.801z M1742.92,1115.985c-7.418-0.133-14.932-0.586-22.334-1.348
						c-3.664-0.377-6.328-3.653-5.952-7.318c0.377-3.663,3.652-6.322,7.317-5.95c7.029,0.725,14.163,1.155,21.207,1.28
						c3.682,0.067,6.614,3.105,6.549,6.789c-0.059,3.257-2.445,5.926-5.544,6.452
						C1743.76,1115.959,1743.344,1115.993,1742.92,1115.985z M1879.99,1073.372c-1.953-3.122-1.005-7.238,2.118-9.189
						c5.986-3.743,11.882-7.787,17.526-12.019c2.948-2.213,7.125-1.614,9.335,1.335c2.209,2.946,1.612,7.124-1.334,9.334
						c-5.944,4.457-12.154,8.716-18.456,12.657c-0.762,0.475-1.582,0.781-2.417,0.923
						C1884.178,1076.852,1881.465,1075.732,1879.99,1073.372z M1684.806,1108.446c-7.202-1.761-14.43-3.855-21.484-6.224
						c-3.491-1.172-5.37-4.951-4.199-8.442c1.172-3.494,4.953-5.372,8.444-4.2c6.701,2.25,13.566,4.239,20.405,5.911
						c3.578,0.875,5.769,4.485,4.894,8.063c-0.652,2.666-2.822,4.561-5.364,4.993
						C1686.633,1108.693,1685.717,1108.669,1684.806,1108.446z M1629.755,1088.344c-6.659-3.3-13.257-6.921-19.61-10.759
						c-3.152-1.906-4.163-6.004-2.258-9.157c1.908-3.156,6.006-4.166,9.156-2.257c6.036,3.647,12.306,7.087,18.634,10.225
						c3.3,1.635,4.649,5.637,3.014,8.937c-0.986,1.988-2.831,3.268-4.864,3.613
						C1632.486,1089.172,1631.065,1088.994,1629.755,1088.344z M1580.39,1056.721c-5.786-4.675-11.438-9.647-16.8-14.774
						c-2.662-2.547-2.755-6.766-0.21-9.428c2.549-2.665,6.768-2.755,9.428-0.21c5.094,4.874,10.465,9.595,15.964,14.038
						c2.865,2.315,3.31,6.514,0.996,9.377c-1.063,1.317-2.522,2.122-4.068,2.384
						C1583.879,1058.417,1581.939,1057.972,1580.39,1056.721z M1539.1,1015.084c-4.623-5.826-9.051-11.917-13.159-18.105
						c-2.037-3.068-1.202-7.207,1.867-9.245c3.063-2.034,7.206-1.199,9.243,1.869c3.901,5.874,8.104,11.658,12.497,17.193
						c2.289,2.885,1.807,7.078-1.079,9.367c-0.912,0.723-1.952,1.169-3.023,1.351
						C1543.126,1017.906,1540.668,1017.058,1539.1,1015.084z M1507.952,965.365c-3.218-6.685-6.192-13.597-8.84-20.545
						c-1.312-3.442,0.414-7.297,3.856-8.607c3.431-1.306,7.294,0.413,8.606,3.855c2.515,6.601,5.34,13.165,8.396,19.516
						c1.597,3.317,0.201,7.303-3.117,8.899c-0.578,0.278-1.176,0.467-1.778,0.569
						C1512.219,969.536,1509.271,968.105,1507.952,965.365z M1488.502,910.078c-1.242-5.324-2.335-10.753-3.248-16.133
						c-0.331-1.949-0.639-3.894-0.925-5.841c-0.536-3.642,1.925-7.096,5.625-7.568c3.643-0.539,7.032,1.98,7.57,5.624
						c0.273,1.848,0.565,3.701,0.879,5.552c0.868,5.116,1.906,10.274,3.087,15.337c0.837,3.586-1.393,7.172-4.979,8.008
						c-0.135,0.031-0.27,0.059-0.405,0.082C1492.657,915.724,1489.306,913.529,1488.502,910.078z"/>
					<path style="fill:#91B3FA;" d="M1931.7,1040.798c1.307-0.222,2.56-0.833,3.573-1.835c2.565-2.541,5.124-5.184,7.607-7.857
						c2.508-2.698,2.353-6.917-0.344-9.424c-2.699-2.506-6.915-2.356-9.424,0.344c-2.359,2.538-4.791,5.049-7.225,7.462
						c-2.616,2.59-2.637,6.812-0.044,9.429C1927.431,1040.521,1929.633,1041.149,1931.7,1040.798z"/>
				</g>
				<g>
					<path style="fill:#91B3FA;" d="M1932.349,926.479c0.656-1.157,0.507-2.602-0.373-3.599l-25.081-28.458
						c5.002-16.994,7.329-34.908,6.619-53.124l31.263-21.441c1.097-0.752,1.595-2.117,1.241-3.399l-12.096-43.863
						c-0.353-1.282-1.481-2.199-2.808-2.282l-37.834-2.386c-8.727-16.006-19.908-30.195-32.913-42.223l6.95-37.291
						c0.243-1.307-0.369-2.625-1.526-3.281l-39.569-22.463c-1.156-0.656-2.602-0.507-3.599,0.373l-28.458,25.082
						c-16.994-5.002-34.908-7.331-53.125-6.619l-21.44-31.263c-0.752-1.097-2.117-1.596-3.399-1.242l-43.864,12.096
						c-1.282,0.354-2.198,1.482-2.281,2.808l-2.386,37.834c-16.006,8.727-30.195,19.908-42.223,32.913l-37.291-6.951
						c-1.307-0.243-2.625,0.369-3.281,1.526l-22.463,39.569c-0.656,1.156-0.506,2.602,0.372,3.599l25.082,28.458
						c-5.003,16.994-7.33,34.907-6.619,53.124l-31.263,21.441c-1.097,0.752-1.596,2.117-1.242,3.398l12.096,43.864
						c0.354,1.282,1.481,2.198,2.808,2.282l37.834,2.386c8.727,16.006,19.908,30.195,32.913,42.223l-6.95,37.291
						c-0.244,1.307,0.368,2.625,1.525,3.281l39.569,22.463c1.156,0.656,2.602,0.507,3.599-0.372l28.458-25.082
						c16.994,5.002,34.908,7.33,53.125,6.62l21.44,31.263c0.752,1.096,2.117,1.595,3.399,1.241l43.863-12.097
						c1.282-0.354,2.199-1.481,2.282-2.808l2.386-37.833c16.006-8.727,30.194-19.908,42.223-32.913l37.291,6.95
						c1.307,0.244,2.625-0.369,3.281-1.525L1932.349,926.479z"/>
					
						<linearGradient id="SVGID_00000081621804578791333910000000464903026529818552_" gradientUnits="userSpaceOnUse" x1="1701.644" y1="847.6368" x2="1793.1167" y2="847.6368">
						<stop  offset="0" style="stop-color:#DAE3FE"/>
						<stop  offset="1" style="stop-color:#E9EFFD"/>
					</linearGradient>
					<path style="fill:url(#SVGID_00000081621804578791333910000000464903026529818552_);" d="M1748.378,893.362
						c-25.213,0.549-46.172-19.514-46.722-44.729c-0.267-12.214,4.239-23.801,12.688-32.625c8.446-8.824,19.824-13.833,32.04-14.096
						c25.213-0.549,46.172,19.514,46.723,44.729c0.5,22.938-16.061,42.355-38.042,46.086
						C1752.885,893.096,1750.651,893.312,1748.378,893.362z M1722.05,823.387c-6.478,6.767-9.932,15.649-9.728,25.015
						c0.422,19.329,16.493,34.716,35.823,34.293c19.337-0.415,34.716-16.492,34.294-35.824
						c-0.422-19.329-16.493-34.716-35.823-34.294c-1.753,0.039-3.48,0.205-5.178,0.493
						C1734.067,814.322,1727.315,817.888,1722.05,823.387z"/>
					
						<linearGradient id="SVGID_00000165232811372595875000000014729154907445418382_" gradientUnits="userSpaceOnUse" x1="1634.0725" y1="847.1097" x2="1859.0542" y2="847.1097">
						<stop  offset="0" style="stop-color:#DAE3FE"/>
						<stop  offset="1" style="stop-color:#E9EFFD"/>
					</linearGradient>
					<path style="fill:url(#SVGID_00000165232811372595875000000014729154907445418382_);" d="M1765.196,958.01
						c3.775-0.641,7.54-1.475,11.282-2.507l0,0c1.178-0.324,2.35-0.668,3.517-1.03c5.754-1.788,11.356-4.03,16.721-6.693
						c0.073-0.036,0.146-0.072,0.219-0.108c0.207-0.104,0.414-0.208,0.62-0.314c0.403-0.203,0.803-0.411,1.203-0.619
						c1.051-0.548,1.584-1.698,1.397-2.808c-0.046-0.27-0.135-0.537-0.268-0.792c-0.682-1.306-2.294-1.806-3.599-1.128
						c-6.719,3.51-13.861,6.319-21.228,8.348c-36.592,10.098-74.073-0.154-100.358-23.878
						c-14.622-13.194-25.778-30.558-31.39-50.912c-0.985-3.569-1.782-7.161-2.392-10.762c-4.11-24.233,0.203-48.937,12.501-70.599
						c14.125-24.884,37.097-42.779,64.68-50.385c56.969-15.704,116.046,17.85,131.748,74.79c0.969,3.511,1.755,7.058,2.359,10.625
						c2.621,15.458,1.831,31.318-2.37,46.438c-0.108,0.391-0.124,0.785-0.06,1.159c0.167,0.986,0.887,1.839,1.916,2.124
						c1.421,0.39,2.891-0.433,3.284-1.857c4.41-15.875,5.242-32.526,2.49-48.754c-0.634-3.744-1.46-7.467-2.475-11.152
						c-16.485-59.782-78.549-94.996-138.309-78.517c-28.959,7.985-53.072,26.771-67.901,52.895
						c-12.912,22.742-17.439,48.676-13.125,74.116c0.642,3.78,1.479,7.551,2.51,11.297c7.987,28.96,26.771,53.075,52.894,67.904
						C1713.81,957.804,1739.751,962.328,1765.196,958.01z"/>
				</g>
			</g>
			<g>
				<g style="opacity:0.3;">
					<path style="fill:#91B3FA;" d="M2261.989,975.142c1.757-0.298,3.18-1.719,3.399-3.579c0.41-3.472,0.72-7.005,0.921-10.498
						c0.131-2.27-1.603-4.216-3.875-4.348c-2.274-0.14-4.217,1.605-4.348,3.875c-0.191,3.329-0.487,6.696-0.877,10.01
						c-0.267,2.257,1.349,4.303,3.608,4.573C2261.217,975.22,2261.61,975.206,2261.989,975.142z"/>
					<path style="fill:#91B3FA;" d="M2262.376,943.52c-2.27,0.149-4.231-1.567-4.382-3.838c-0.383-5.728-1.063-11.503-2.023-17.162
						c-0.203-1.193-0.42-2.389-0.65-3.586c-0.426-2.233,1.038-4.391,3.272-4.819c2.128-0.32,4.39,1.038,4.821,3.274
						c0.239,1.253,0.466,2.503,0.678,3.753c1.007,5.932,1.72,11.987,2.12,17.995c0.143,2.126-1.357,3.984-3.415,4.333
						C2262.659,943.492,2262.519,943.508,2262.376,943.52z M2250.145,898.668c-2.13-6.627-4.689-13.181-7.608-19.478
						c-0.956-2.065-0.06-4.51,2.005-5.468c2.054-0.949,4.512-0.06,5.469,2.005c3.06,6.6,5.744,13.471,7.976,20.42
						c0.696,2.166-0.495,4.486-2.661,5.184c-0.189,0.06-0.384,0.106-0.576,0.138C2252.762,901.805,2250.78,900.641,2250.145,898.668
						z M2232.573,860.797c-3.683-5.894-7.775-11.617-12.165-17.016c-1.434-1.764-1.166-4.359,0.598-5.792
						c1.771-1.439,4.358-1.172,5.794,0.596c4.604,5.66,8.896,11.667,12.759,17.845c1.205,1.929,0.62,4.472-1.309,5.677
						c-0.471,0.292-0.978,0.48-1.493,0.568C2235.161,862.944,2233.486,862.253,2232.573,860.797z M2206.234,828.4
						c-5.024-4.818-10.394-9.369-15.955-13.517c-1.824-1.363-2.199-3.943-0.838-5.765c1.358-1.818,3.939-2.198,5.763-0.839
						c5.834,4.354,11.462,9.123,16.732,14.176c1.642,1.574,1.695,4.184,0.122,5.825c-0.637,0.659-1.439,1.064-2.28,1.207
						C2208.535,829.698,2207.213,829.339,2206.234,828.4z M2172.783,803.415c-6.042-3.45-12.352-6.557-18.76-9.239
						c-2.097-0.876-3.086-3.29-2.208-5.389c0.878-2.099,3.29-3.092,5.39-2.208c6.715,2.809,13.33,6.068,19.663,9.681
						c1.974,1.13,2.662,3.644,1.535,5.618c-0.637,1.116-1.717,1.821-2.891,2.021
						C2174.607,804.052,2173.644,803.905,2172.783,803.415z M2134.281,787.308c-6.693-1.875-13.564-3.348-20.427-4.378
						c-2.248-0.337-3.799-2.435-3.461-4.683c0.339-2.248,2.428-3.794,4.685-3.463c7.196,1.08,14.406,2.626,21.427,4.592
						c2.189,0.616,3.468,2.887,2.855,5.076c-0.445,1.585-1.758,2.693-3.279,2.951
						C2135.499,787.501,2134.887,787.478,2134.281,787.308z M2093.026,781.108c-6.926-0.174-13.956,0.084-20.895,0.772
						c-2.263,0.221-4.28-1.432-4.503-3.695c-0.225-2.262,1.429-4.245,3.694-4.507c7.275-0.716,14.645-0.988,21.91-0.806
						c2.274,0.059,4.072,1.948,4.015,4.222c-0.05,1.999-1.521,3.632-3.424,3.955
						C2093.564,781.094,2093.298,781.115,2093.026,781.108z M2026.128,788.563c-0.767-2.142,0.346-4.497,2.489-5.265
						c5.928-2.124,12.075-3.959,18.251-5.452c0.938-0.232,1.874-0.448,2.813-0.661c2.193-0.56,4.423,0.897,4.918,3.123
						c0.497,2.22-0.9,4.42-3.12,4.919c-0.881,0.195-1.762,0.401-2.656,0.623c-5.912,1.427-11.775,3.177-17.429,5.202
						c-0.233,0.084-0.469,0.145-0.703,0.185C2028.757,791.564,2026.811,790.471,2026.128,788.563z"/>
				</g>
				<g style="opacity:0.3;">
					<path style="fill:#91B3FA;" d="M2116.004,1126.524c-7.092,1.11-14.313,1.793-21.464,2.04c-2.272,0.076-4.179-1.702-4.257-3.977
						c-0.078-2.276,1.719-4.159,3.977-4.257c6.819-0.232,13.706-0.886,20.472-1.945c2.247-0.353,4.354,1.186,4.705,3.432
						c0.348,2.229-1.161,4.322-3.378,4.698C2116.042,1126.517,2116.022,1126.521,2116.004,1126.524z M2131.997,1119.068
						c-0.618-2.188,0.656-4.464,2.844-5.081c6.585-1.86,13.124-4.137,19.435-6.77c2.089-0.865,4.511,0.115,5.386,2.219
						c0.876,2.099-0.116,4.507-2.215,5.386c-6.614,2.759-13.467,5.146-20.367,7.092c-0.146,0.041-0.289,0.074-0.436,0.099
						C2134.598,1122.36,2132.575,1121.116,2131.997,1119.068z M2072.971,1127.978c-7.154-0.638-14.329-1.717-21.326-3.21
						c-2.225-0.475-3.645-2.665-3.169-4.888c0.473-2.226,2.655-3.637,4.885-3.171c6.676,1.425,13.518,2.455,20.344,3.067
						c2.266,0.203,3.938,2.204,3.736,4.465c-0.17,1.906-1.611,3.39-3.412,3.696
						C2073.688,1127.995,2073.334,1128.01,2072.971,1127.978z M2171.2,1103.766c-1.126-1.975-0.436-4.491,1.539-5.618
						c5.944-3.388,11.737-7.174,17.221-11.257c1.824-1.354,4.406-0.976,5.762,0.841c1.358,1.826,0.982,4.406-0.843,5.765
						c-5.749,4.285-11.827,8.258-18.062,11.809c-0.432,0.245-0.888,0.403-1.35,0.482
						C2173.81,1106.068,2172.08,1105.309,2171.2,1103.766z M2030.878,1118.991c-6.775-2.334-13.478-5.109-19.925-8.245
						c-2.045-0.995-2.896-3.462-1.901-5.507c0.995-2.046,3.459-2.901,5.507-1.902c6.148,2.995,12.541,5.639,19.004,7.863
						c2.149,0.741,3.294,3.084,2.551,5.238c-0.506,1.473-1.771,2.475-3.208,2.719
						C2032.249,1119.268,2031.554,1119.223,2030.878,1118.991z M1992.164,1100.167c-6.03-3.897-11.878-8.196-17.379-12.773
						c-1.748-1.454-1.986-4.048-0.531-5.797c1.452-1.748,4.05-1.989,5.801-0.532c5.247,4.364,10.826,8.464,16.581,12.183
						c1.911,1.234,2.458,3.785,1.224,5.695c-0.653,1.008-1.672,1.638-2.772,1.825
						C1994.107,1100.934,1993.064,1100.748,1992.164,1100.167z M1959.068,1072.612c-4.927-5.23-9.574-10.809-13.812-16.577
						c-1.348-1.835-0.953-4.411,0.881-5.759c1.832-1.347,4.411-0.949,5.757,0.879c4.041,5.503,8.472,10.821,13.172,15.805
						c1.56,1.656,1.483,4.264-0.175,5.823c-0.613,0.581-1.358,0.932-2.131,1.063
						C1961.447,1074.069,1960.051,1073.653,1959.068,1072.612z"/>
					<path style="fill:#91B3FA;" d="M2209.358,1080.53c0.783-0.133,1.536-0.493,2.154-1.084c2.549-2.436,5.035-4.959,7.395-7.497
						c1.547-1.666,1.453-4.273-0.213-5.823c-1.667-1.54-4.271-1.449-5.823,0.214c-2.249,2.422-4.623,4.828-7.053,7.153
						c-1.645,1.572-1.701,4.181-0.13,5.823C2206.67,1080.342,2208.055,1080.751,2209.358,1080.53z"/>
				</g>
				<g>
					<path style="fill:#91B3FA;" d="M2212.11,1002.169c0.439-0.774,0.339-1.741-0.249-2.409l-16.783-19.043
						c3.347-11.372,4.904-23.359,4.429-35.548l20.92-14.347c0.734-0.503,1.067-1.416,0.831-2.275l-8.094-29.351
						c-0.236-0.858-0.991-1.471-1.878-1.527l-25.317-1.596c-5.84-10.711-13.321-20.205-22.024-28.254l4.65-24.953
						c0.163-0.875-0.247-1.757-1.021-2.196l-26.478-15.031c-0.773-0.439-1.741-0.339-2.409,0.249l-19.042,16.783
						c-11.372-3.347-23.359-4.905-35.549-4.429l-14.347-20.92c-0.503-0.734-1.417-1.068-2.274-0.831l-29.352,8.094
						c-0.858,0.237-1.47,0.992-1.527,1.879L2035,851.782c-10.711,5.84-20.206,13.321-28.254,22.024l-24.954-4.651
						c-0.875-0.163-1.757,0.247-2.195,1.021l-15.031,26.478c-0.439,0.773-0.339,1.741,0.249,2.408l16.784,19.043
						c-3.347,11.371-4.905,23.358-4.429,35.548L1956.249,968c-0.734,0.503-1.068,1.416-0.831,2.274l8.094,29.352
						c0.237,0.858,0.991,1.471,1.879,1.527l25.317,1.596c5.84,10.711,13.322,20.205,22.024,28.254l-4.651,24.953
						c-0.163,0.875,0.247,1.756,1.021,2.196l26.478,15.031c0.774,0.439,1.741,0.339,2.409-0.249l19.042-16.784
						c11.372,3.347,23.359,4.905,35.549,4.429l14.347,20.92c0.503,0.733,1.416,1.067,2.274,0.831l29.351-8.094
						c0.857-0.237,1.471-0.991,1.527-1.879l1.597-25.316c10.71-5.84,20.205-13.322,28.253-22.024l24.954,4.651
						c0.875,0.163,1.757-0.247,2.196-1.021L2212.11,1002.169z"/>
					
						<linearGradient id="SVGID_00000137850777318389144280000004355807491258957476_" gradientUnits="userSpaceOnUse" x1="2057.1843" y1="949.4102" x2="2119.491" y2="949.4102">
						<stop  offset="0" style="stop-color:#DAE3FE"/>
						<stop  offset="1" style="stop-color:#E9EFFD"/>
					</linearGradient>
					<path style="fill:url(#SVGID_00000137850777318389144280000004355807491258957476_);" d="M2089.019,980.557
						c-8.322,0.184-16.215-2.886-22.226-8.642c-6.011-5.752-9.421-13.504-9.602-21.824c-0.375-17.172,13.272-31.422,30.468-31.828
						c17.176-0.37,31.451,13.298,31.823,30.467c0.182,8.32-2.886,16.213-8.64,22.224c-4.678,4.886-10.676,8.054-17.227,9.166
						C2092.111,980.375,2090.574,980.522,2089.019,980.557z M2065.426,949.909c0.133,6.122,2.641,11.823,7.064,16.058
						c4.42,4.231,10.228,6.489,16.347,6.356l0,0c6.12-0.141,11.821-2.643,16.056-7.066c4.233-4.419,6.489-10.228,6.356-16.345
						c-0.275-12.633-10.775-22.686-23.409-22.414c-1.14,0.026-2.258,0.134-3.35,0.32
						C2073.476,928.687,2065.175,938.418,2065.426,949.909z"/>
					
						<linearGradient id="SVGID_00000088124339208466139980000004188988968051889085_" gradientUnits="userSpaceOnUse" x1="2010.183" y1="949.0292" x2="2165.3992" y2="949.0292">
						<stop  offset="0" style="stop-color:#DAE3FE"/>
						<stop  offset="1" style="stop-color:#E9EFFD"/>
					</linearGradient>
					<path style="fill:url(#SVGID_00000088124339208466139980000004188988968051889085_);" d="M2100.728,1025.551
						c2.57-0.436,5.137-1.007,7.702-1.711c5.092-1.403,10.047-3.325,14.738-5.72c0.21-0.109,0.42-0.218,0.63-0.328
						c1.623-0.847,2.445-2.622,2.157-4.336c-0.071-0.416-0.208-0.829-0.414-1.223c-1.052-2.016-3.541-2.785-5.556-1.741
						c-4.358,2.278-8.982,4.094-13.741,5.404l-0.002,0c-0.261,0.073-0.524,0.142-0.784,0.211
						c-11.292,2.998-22.902,3.067-33.96,0.375c-6.002-1.462-11.844-3.742-17.383-6.82c-0.045-0.025-0.09-0.05-0.135-0.075
						c-0.138-0.079-0.275-0.153-0.411-0.232c-16.108-9.146-27.693-24.016-32.617-41.873c-0.639-2.311-1.154-4.635-1.55-6.966
						c-2.661-15.688,0.133-31.68,8.093-45.707c9.146-16.109,24.017-27.69,41.872-32.613c17.846-4.914,36.563-2.599,52.673,6.542
						c16.108,9.146,27.693,24.016,32.617,41.873c0.628,2.272,1.136,4.568,1.528,6.876c1.697,10.009,1.185,20.275-1.535,30.062
						c-0.167,0.604-0.192,1.211-0.092,1.79c0.259,1.523,1.369,2.84,2.958,3.28c2.193,0.603,4.462-0.672,5.072-2.868
						c3.043-10.952,3.616-22.44,1.72-33.635c-0.439-2.585-1.007-5.153-1.708-7.694c-5.511-19.981-18.47-36.617-36.495-46.849
						c-18.022-10.229-38.942-12.846-58.927-7.32c-19.979,5.508-36.616,18.466-46.846,36.492
						c-8.909,15.689-12.032,33.582-9.055,51.133c0.442,2.605,1.019,5.208,1.731,7.792
						C2023.677,1008.349,2061.99,1032.126,2100.728,1025.551z"/>
				</g>
			</g>
		</g>
		<g>
			<path style="fill:#91B3FA;" d="M663.739,486.08c7.189-5.398,16.889-13.518,21.813-7.752
				c79.61,93.216,265.576,364.417,165.549,774.002c-125.497,513.888-33.224,722.307,95.288,860.375
				c-31.729-2.388-91.441-10.042-155.114-41.808C297.952,1824.787,509.797,601.677,663.739,486.08z"/>
			<path style="fill:#FFFFFF;" d="M712.745,659.944c4.52,60.008,7.816,120.013,8.837,179.94
				c1.347,59.927,0.813,119.778-1.657,179.434c-2.707,59.631-6.576,119.149-13.069,178.295
				c-6.216,59.185-15.073,117.92-24.182,176.851c-8.76,58.963-17.934,118.297-20.792,179.018
				c-2.909,60.589,1.651,122.841,17.831,183.002c4.049,14.996,8.394,29.992,13.6,44.635c4.931,14.729,10.528,29.283,16.389,43.747
				c11.871,28.885,25.711,57.152,41.612,84.401c31.948,54.434,72.228,104.53,117.844,148.672c4.801,4.646,12.407,4.834,16.99,0.421
				c4.499-4.333,4.409-11.493-0.142-16.149l-0.032-0.033c-10.795-11.025-21.452-22.15-31.582-33.672
				c-5.158-5.688-10.054-11.573-15.058-17.372c-4.78-5.964-9.792-11.762-14.383-17.854c-18.77-24.079-35.828-49.32-50.929-75.564
				c-30.428-52.3-53.132-108.882-68.692-166.332c-7.45-28.803-12.714-57.982-15.651-87.342c-2.914-29.364-3.504-58.878-2.349-88.365
				c2.307-59.008,10.881-117.832,19.198-176.872c8.239-59.068,16.094-118.5,21.385-178.272c2.729-29.871,4.899-59.813,6.51-89.803
				c0.895-14.986,1.488-30,2.11-45.009c0.472-15.022,0.857-30.049,1.115-45.082c0.917-60.141-0.071-120.37-3.028-180.578
				c-3.256-60.208-8.164-120.391-15.458-180.404c-0.209-1.716-1.811-3.011-3.579-2.893
				C713.865,656.879,712.623,658.292,712.745,659.944z"/>
		</g>
		<g>
			<path style="fill:#BDD0FB;" d="M986.554,2145.308c9.881,17.226,35.609,14.312,41.498-4.654
				c64.857-208.855,307.473-1043.411,237.662-1630.718c-4.985-41.937-54.591-61.56-86.635-34.052
				C976.552,649.745,455.788,1219.895,986.554,2145.308z"/>
			<path style="fill:#FFFFFF;" d="M1143.927,759.74c-12.203,26.104-22.555,52.972-32.416,80.008
				c-9.749,27.077-18.873,54.386-27.224,81.932c-16.846,55.053-31.104,110.885-43.575,167.102
				c-12.43,56.232-22.88,112.901-31.7,169.828c-8.826,56.933-15.548,114.174-21.119,171.524l-3.837,43.049l-3.079,43.111
				l-1.505,21.561l-1.106,21.583l-2.18,43.174c-1.946,57.596-3.399,115.248-2.581,172.895
				c0.99,115.299,7.356,230.569,18.672,345.364c0.635,6.44,6.369,11.146,12.81,10.511c6.439-0.635,11.146-6.37,10.511-12.81
				c-0.004-0.042-0.017-0.155-0.021-0.197c-13.088-113.938-21.266-228.466-24.099-343.164
				c-1.739-57.349-1.216-114.732-0.204-172.103l1.479-43.01l0.754-21.508l1.155-21.487l2.373-42.977l3.132-42.931
				c4.627-57.202,10.405-114.34,18.285-171.212c7.876-56.868,17.382-113.523,28.873-169.792
				c11.531-56.254,24.857-112.176,40.78-167.377c7.891-27.621,16.556-55.019,25.851-82.202c9.403-27.132,19.32-54.154,31.054-80.351
				l0.01-0.02c0.136-0.302,0-0.658-0.302-0.794C1144.415,759.312,1144.064,759.444,1143.927,759.74z"/>
		</g>
		<g>
			
				<linearGradient id="SVGID_00000014627723978621789400000009021556020395211440_" gradientUnits="userSpaceOnUse" x1="-939.8581" y1="2613.7695" x2="-368.6154" y2="900.0366" gradientTransform="matrix(-1 0 0 1 1155.7772 0)">
				<stop  offset="0" style="stop-color:#09005D"/>
				<stop  offset="1" style="stop-color:#1A0F91"/>
			</linearGradient>
			<path style="fill:url(#SVGID_00000014627723978621789400000009021556020395211440_);" d="M620.64,2675.938
				c0,24.576,20.128,44.685,44.728,44.685H3084.06c24.6,0,44.728-20.108,44.728-44.685l20.126-1389.956
				c0-24.576-28.955-72.556-82.021-68.951l-2363.813-61.163c-30.866-0.799-60.71,11.082-82.568,32.868
				c-21.857,21.786-33.817,51.574-33.088,82.412L620.64,2675.938z"/>
			<path style="fill:#7D97F4;" d="M664.798,2633.069c0,23.273,19.042,42.315,42.315,42.315h2318.619
				c23.273,0,42.315-19.043,42.315-42.315l18.992-1261.815c-2.237-75.933-68.809-103.224-109.164-101.613l-2265.5-60.78
				c-21.685-0.582-42.651,7.773-58.009,23.092c-15.359,15.319-23.805,36.285-23.261,57.97L664.798,2633.069z"/>
			<g>
				<path style="fill:#BDD0FB;" d="M3042.993,2033.619c-0.031,0-0.062,0-0.093,0c-3.426-0.049-6.162-2.866-6.109-6.295
					l1.501-102.331c0.049-3.392,2.816-6.109,6.196-6.109c0.031,0,0.062,0,0.062,0c3.457,0.05,6.193,2.866,6.14,6.295l-1.501,102.331
					C3049.14,2030.901,3046.373,2033.619,3042.993,2033.619z"/>
				<path style="fill:#BDD0FB;" d="M3046.676,1782.855c0,0-0.062,0-0.093,0c-3.426-0.05-6.162-2.872-6.109-6.295l5.753-391.93
					c-0.108-23.28-7.174-41.868-21.005-55.121c-25.818-24.735-66.807-23.472-68.534-23.391l-724.104-19.418
					c-3.423-0.087-6.125-2.94-6.032-6.363c0.09-3.423,2.72-6.339,6.366-6.029l723.674,19.418
					c4.503-0.266,48.145-1.021,77.209,26.827c16.35,15.667,24.704,37.251,24.827,64.139l-5.756,392.054
					C3052.823,1780.137,3050.056,1782.855,3046.676,1782.855z"/>
			</g>
			
				<linearGradient id="SVGID_00000047019652978980424440000000171135002599364265_" gradientUnits="userSpaceOnUse" x1="312.3813" y1="2523.6008" x2="-2112.9258" y2="3113.54" gradientTransform="matrix(-1 0 0 1 1155.7772 0)">
				<stop  offset="0" style="stop-color:#09005D"/>
				<stop  offset="1" style="stop-color:#1A0F91"/>
			</linearGradient>
			<path style="fill:url(#SVGID_00000047019652978980424440000000171135002599364265_);" d="M524.167,2836.007h2705.055
				c3.109,0,5.654-2.544,5.654-5.654v-110.819c0-3.11-2.544-5.654-5.654-5.654H524.167c-3.11,0-5.654,2.544-5.654,5.654v110.819
				C518.513,2833.462,521.057,2836.007,524.167,2836.007z"/>
		</g>
		<g>
			
				<linearGradient id="SVGID_00000127737516520749177100000010535999488709931455_" gradientUnits="userSpaceOnUse" x1="1555.8938" y1="2836.5674" x2="2346.8455" y2="257.6612" gradientTransform="matrix(1 0.0091 -0.0091 1 27.1647 2.823)">
				<stop  offset="0" style="stop-color:#4F52FF"/>
				<stop  offset="1" style="stop-color:#4042E2"/>
			</linearGradient>
			<polygon style="fill:url(#SVGID_00000127737516520749177100000010535999488709931455_);" points="2678.708,2566.57 
				990.389,2551.125 1001.334,1354.678 2689.653,1370.123 			"/>
			<g>
				<path style="fill:#BDD0FB;" d="M2683.648,2571.6l-1698.289-15.534l11.035-1206.419l1698.289,15.537L2683.648,2571.6z
					 M995.421,2546.187l1678.348,15.352l10.854-1186.474l-1678.348-15.355L995.421,2546.187z"/>
				
					<rect x="1241.818" y="1950.653" transform="matrix(0.0091 -1 1 0.0091 -132.2649 3777.801)" style="fill:#BDD0FB;" width="1196.498" height="9.971"/>
				<path style="fill:#BDD0FB;" d="M1845.065,2119.22c-0.442,0-0.883-0.003-1.324-0.006c-38.101-0.347-73.785-15.515-100.477-42.701
					c-26.696-27.186-41.204-63.142-40.857-101.243c0.717-78.205,64.573-141.337,142.613-141.337c0.448,0,0.886,0.003,1.331,0.006
					c38.101,0.347,73.785,15.511,100.477,42.7c26.696,27.186,41.204,63.142,40.857,101.24l0,0
					C1986.968,2056.088,1923.112,2119.22,1845.065,2119.22z M1845.023,1843.903c-72.594,0-131.977,58.715-132.646,131.458
					c-0.325,35.437,13.171,68.88,38.001,94.168c24.826,25.287,58.017,39.39,93.454,39.714
					c73.178,0.574,133.21-58.302,133.882-131.454c0.325-35.437-13.171-68.877-38.001-94.164
					c-24.826-25.287-58.017-39.39-93.454-39.714C1845.848,1843.907,1845.432,1843.903,1845.023,1843.903z"/>
				<g>
					<polygon style="fill:#BDD0FB;" points="1174.694,2205.482 995.229,2203.839 995.32,2193.868 1164.814,2195.42 
						1169.225,1713.517 999.728,1711.966 999.819,1701.995 1179.287,1703.637 					"/>
					<polygon style="fill:#BDD0FB;" points="1082.734,2084.985 1002.97,2084.254 1003.061,2074.284 1072.854,2074.923 
						1075.074,1832.31 1005.281,1831.671 1005.372,1821.7 1085.135,1822.43 					"/>
					<path style="fill:#BDD0FB;" d="M1179.134,2040.859c-0.091,0-0.182,0-0.273,0l0.091-9.971c0.058,0,0.12,0,0.178,0
						c22.402,0.003,41.649-38.432,42.068-84.109c0.211-23.116-4.226-44.81-12.49-61.091c-7.738-15.239-17.757-23.684-28.212-23.778
						l0.091-9.971c14.362,0.13,27.507,10.513,37.011,29.234c8.978,17.679,13.794,41.013,13.57,65.696
						C1230.682,1999.668,1207.852,2040.859,1179.134,2040.859z"/>
				</g>
				<g>
					<polygon style="fill:#BDD0FB;" points="2686.872,2219.315 2477.491,2217.4 2482.084,1715.555 2691.461,1717.47 
						2691.37,1727.441 2491.964,1725.617 2487.553,2207.52 2686.962,2209.344 					"/>
					<polygon style="fill:#BDD0FB;" points="2681.318,2099.61 2564.995,2098.545 2567.397,1835.99 2683.72,1837.055 
						2683.629,1847.026 2577.277,1846.052 2575.057,2088.665 2681.409,2089.639 					"/>
					<path style="fill:#BDD0FB;" d="M2490.12,2052.856c-28.848-0.266-51.065-41.964-50.578-94.931
						c0.484-52.801,23.314-93.992,52.035-93.992c0.091,0,0.182,0,0.273,0l-0.091,9.971c-0.059,0-0.12,0-0.178,0
						c-22.405,0-41.652,38.436-42.068,84.113c-0.422,45.797,18.215,84.661,40.698,84.869L2490.12,2052.856z"/>
				</g>
				<path style="fill:#BDD0FB;" d="M1016.388,1445.665c-0.321,0-0.639,0-0.961-0.003c-3.353-0.032-8.306-1.181-10.276-1.672
					c-5.151-1.289-9.601-2.399-9.559-6.884l0.802-87.459l109.442,1l0.503,4.375c0.318,2.775,0.545,3.622,0.711,4.239
					c0.383,1.425,0.503,2.35,0.48,5.005c-0.204,22.483-10.114,43.301-27.9,58.614
					C1062.539,1437.593,1040.114,1445.665,1016.388,1445.665z M1005.596,1433.792c2.937,0.831,7.592,1.876,9.925,1.899
					c0.289,0.003,0.578,0.003,0.867,0.003c21.337,0,41.454-7.215,56.735-20.37c15.579-13.414,24.258-31.577,24.437-51.149l0,0
					c0.016-1.746-0.026-1.908-0.143-2.337c-0.101-0.38-0.204-0.789-0.315-1.298l-90.828-0.831L1005.596,1433.792z"/>
				<path style="fill:#BDD0FB;" d="M2665.628,1468.677c-0.279,0-0.562,0-0.844-0.003c-50.633-0.464-87.073-34.375-86.651-80.63
					c0.065-6.991,2.201-11.448,4.268-15.761c0.772-1.616,1.506-3.142,2.165-4.862l1.24-3.233l108.877,0.996l-0.889,97.472
					l-2.983,1.285C2683.337,1467.168,2675.313,1468.677,2665.628,1468.677z M2592.509,1374.221c-0.373,0.818-0.746,1.6-1.116,2.373
					c-1.814,3.781-3.246,6.771-3.288,11.542c-0.37,40.477,31.915,70.156,76.771,70.568c7.338,0.075,13.431-0.815,19.01-2.756
					l0.737-80.883L2592.509,1374.221z"/>
				<path style="fill:#BDD0FB;" d="M2683.648,2571.6l-106.946-0.98l-1.373-2.694c-4.21-8.27-5.644-25.531-5.563-34.469
					c0.442-48.367,37.819-85.979,85.245-85.979c0.272,0,0.542,0,0.818,0.003l3.82,0.016c8.28,0.016,15.43,0.029,22.135,3.071
					l2.957,1.34L2683.648,2571.6z M2583.135,2560.708l90.633,0.831l0.941-102.941c-4.106-1.107-8.909-1.116-15.079-1.129
					l-3.892-0.016c-0.24-0.003-0.484-0.003-0.721-0.003c-41.883,0-74.888,33.288-75.281,76.099
					C2579.656,2542.178,2580.974,2554.09,2583.135,2560.708z"/>
				<path style="fill:#BDD0FB;" d="M1089.342,2557.014l-103.983-0.948l1.117-122.246l1.714-1.526
					c1.99-1.73,3.742-1.512,10.289-0.691c2.733,0.344,6.134,0.772,7.92,0.789c49.52,0.454,90.993,40.568,90.562,87.592l0,0
					c-0.084,8.942-1.837,26.177-6.196,34.362L1089.342,2557.014z M995.421,2546.187l87.67,0.802
					c2.282-6.576,3.817-18.462,3.898-27.095c0.38-41.623-36.566-77.125-80.678-77.53c-2.366-0.019-5.777-0.451-9.078-0.866
					c-0.273-0.032-0.558-0.068-0.854-0.107L995.421,2546.187z"/>
				<path style="fill:#BDD0FB;" d="M1000.192,2024.401l-49.75-0.454c-4.677-0.042-9.614-4.632-12.934-8.471
					c-2.6-3.009-6.952-8.763-6.91-13.492l1.074-117.436c0.023-2.249,0.977-4.164,2.691-5.391c3.372-2.425,7.76-0.99,12.399,0.532
					c1.629,0.536,4.09,1.344,4.985,1.35l49.753,0.454L1000.192,2024.401z M950.789,2013.979l39.523,0.36l1.126-122.967
					l-39.783-0.363c-2.444-0.023-5.144-0.909-8.004-1.847c-0.581-0.192-1.315-0.432-2.045-0.656l-1.039,113.567
					C941.013,2004.8,947.972,2012.979,950.789,2013.979z M950.912,2014.017L950.912,2014.017L950.912,2014.017z"/>
				<path style="fill:#BDD0FB;" d="M2740.422,2040.321c-0.023,0-0.045,0-0.068,0l-61.811-0.565l1.305-142.908l60.396,0.552
					c0.925-2.077,2.843-3.022,4.609-3.022c0.013,0,0.029,0,0.042,0l4.985,0.045l0.023,5.265c-0.007,0.662-0.11,1.334-0.299,1.986
					l-1.071,116.939c-0.007,0.779,0.036,1.788,0.081,2.918c0.299,7.342,0.269,13.223-2.976,16.576
					C2744.252,2039.535,2742.402,2040.321,2740.422,2040.321z M2688.605,2029.876l49.942,0.458c0.357-2.246,0.188-6.414,0.107-8.397
					c-0.055-1.321-0.097-2.503-0.091-3.415l1.016-111.159l-49.851-0.454L2688.605,2029.876z M2741.643,1899.593h0.003l0.026-2.181
					c-0.003,0-0.007,0-0.007,0L2741.643,1899.593z"/>
			</g>
		</g>
		<g>
			
				<linearGradient id="SVGID_00000178914468937197149340000001517465685937739156_" gradientUnits="userSpaceOnUse" x1="14282.6602" y1="2282.6528" x2="14302.54" y2="2160.0569" gradientTransform="matrix(-0.9805 -0.1965 -0.1965 0.9805 17334.291 2897.9895)">
				<stop  offset="0" style="stop-color:#FEBBBA"/>
				<stop  offset="1" style="stop-color:#FF928E"/>
			</linearGradient>
			<path style="fill:url(#SVGID_00000178914468937197149340000001517465685937739156_);" d="M2920.089,2168.531
				c0,0,2.544,74.63,7.683,109.148c0.683,4.588-3.779,8.384-8.412,8.599c-16.867,0.784-56.569,1.722-74.475-5.544
				c-3.616-1.468-5.835-5.121-5.483-9.007l8.982-99.198L2920.089,2168.531z"/>
			
				<linearGradient id="SVGID_00000122702748413677912830000012210719662705088427_" gradientUnits="userSpaceOnUse" x1="14360.0762" y1="2084.5176" x2="14227.0986" y2="2186.2651" gradientTransform="matrix(-0.9805 -0.1965 -0.1965 0.9805 17334.291 2897.9895)">
				<stop  offset="0" style="stop-color:#FEBBBA"/>
				<stop  offset="1" style="stop-color:#FF928E"/>
			</linearGradient>
			<path style="fill:url(#SVGID_00000122702748413677912830000012210719662705088427_);" d="M2858.651,2074.946
				c0,0-33.306,47.822-40.348,75.015c-7.042,27.192-16.543,43.849,14.144,55.758c30.687,11.909,60.646,1.437,80.647-23.048
				c0,0,31.194-37.653,29.558-55.96C2941.014,2108.403,2858.651,2074.946,2858.651,2074.946z"/>
			
				<linearGradient id="SVGID_00000154414445918769865700000006607047310689659785_" gradientUnits="userSpaceOnUse" x1="3131.5317" y1="3735.5437" x2="3373.5171" y2="3735.5437" gradientTransform="matrix(0.856 -0.5171 0.5171 0.856 -2339.4326 900.9585)">
				<stop  offset="0" style="stop-color:#FEBBBA"/>
				<stop  offset="1" style="stop-color:#FF928E"/>
			</linearGradient>
			<path style="fill:url(#SVGID_00000154414445918769865700000006607047310689659785_);" d="M2502.198,2390.972l-243.557-47.137
				l-13.48,89.666c0,0,104.279,46.282,143.061,73.155c38.783,26.873,66.476,6.675,66.476,6.675L2502.198,2390.972z"/>
			
				<linearGradient id="SVGID_00000071518604050448053830000016262834625729380792_" gradientUnits="userSpaceOnUse" x1="2790.4329" y1="2325.8398" x2="2484.6582" y2="3010.51" gradientTransform="matrix(0.9968 -0.0798 0.0798 0.9968 -246.3131 1.4781)">
				<stop  offset="0" style="stop-color:#09005D"/>
				<stop  offset="1" style="stop-color:#1A0F91"/>
			</linearGradient>
			<path style="fill:url(#SVGID_00000071518604050448053830000016262834625729380792_);" d="M2670.865,2421.446
				c0,0-82.123-39.391-111.352-21.735c-27.932-6.053-58.952-15.483-71.373-19.38c-3.117-0.978-6.436,0.715-7.491,3.806
				l-47.183,138.295c-0.666,1.952,1.17,3.833,3.134,3.202c13.552-4.356,50.75-15.801,40.519-6.769
				c-12.443,10.986-68.146,30.759-68.146,30.759s60.49,48.451,79.89,149.476c88.769-31.076,191.564-71.97,204.831-96.657
				C2700.823,2567.59,2670.865,2421.446,2670.865,2421.446z"/>
			
				<linearGradient id="SVGID_00000027567234922738848100000018195215332517938322_" gradientUnits="userSpaceOnUse" x1="4244.0708" y1="1059.682" x2="4009.7659" y2="1323.8979" gradientTransform="matrix(0.9968 -0.0798 0.0798 0.9968 -246.3131 1.4781)">
				<stop  offset="0" style="stop-color:#FF928E"/>
				<stop  offset="1" style="stop-color:#FE7062"/>
			</linearGradient>
			<path style="fill:url(#SVGID_00000027567234922738848100000018195215332517938322_);" d="M2926.197,2245.728
				c-41.379-9.323-68.187-26.403-117.701,14.85l-9.826,5.314c-10.584,5.723-18.928,14.702-23.892,25.663
				c-0.693,1.528-1.936,2.992-3.987,4.231c-9.319,5.63-52.128,36.218-53.441,58.929c-1.312,22.713-22.616,50.615-40.072,60.004
				c-17.456,9.388-26.92,79.861-2.319,132.069c24.6,52.208,3.861,70.518,48.1,48.997c44.239-21.521,245.184-174.132,217.34-289.136
				c0,0-8.589-21.287-2.115-38.596c1.706-4.559,1.353-9.633-0.964-13.912C2935.003,2249.86,2930.945,2246.798,2926.197,2245.728z"/>
			
				<linearGradient id="SVGID_00000114793821592700623900000011734095156307076513_" gradientUnits="userSpaceOnUse" x1="2998.5955" y1="4025.7842" x2="3231.0894" y2="4025.7842" gradientTransform="matrix(0.856 -0.5171 0.5171 0.856 -2339.4326 900.9585)">
				<stop  offset="0" style="stop-color:#FEBBBA"/>
				<stop  offset="1" style="stop-color:#FF928E"/>
			</linearGradient>
			<path style="fill:url(#SVGID_00000114793821592700623900000011734095156307076513_);" d="M2491.948,2685.999
				c-20.481,34.089-87.639,5.208-120.249,7.563c-19.922,1.419-20.886,4.361-11.763,17.166c5.779,8.131,15.674,20.261,27.375,38.482
				c30.075,46.913,68.532,145.03,68.532,145.03l-52.102,31.475c0,0-66.501-106.638-131.963-192.951l-2.991-3.917
				c-66.391-86.932,142.986-175.567,142.986-175.567C2435.103,2542.342,2501.972,2654.758,2491.948,2685.999z"/>
			<path style="fill:#BDD0FB;" d="M2245.161,2433.502l13.48-89.666c0,0-216.817-87.574-221.423-95.199
				c-8.208,22.304-28.092,56.865-28.092,56.865s27.877-1.23,44.727,13.742C2070.703,2334.215,2140.219,2420.577,2245.161,2433.502z"
				/>
			<g>
				
					<linearGradient id="SVGID_00000007428380411975946200000017596134327939751301_" gradientUnits="userSpaceOnUse" x1="2395.8452" y1="1893.6829" x2="2236.3125" y2="2035.4895">
					<stop  offset="0" style="stop-color:#09005D"/>
					<stop  offset="1" style="stop-color:#1A0F91"/>
				</linearGradient>
				<path style="fill:url(#SVGID_00000007428380411975946200000017596134327939751301_);" d="M2019.123,2309.534
					c0,0-35.998-5.636-40.821-13.336c-4.823-7.7-11.58-9.442-5.607-23.137c5.972-13.696,24.929-47.009,25.426-60.645
					c0.497-13.635,27.011-87.214,40.973-76.66c13.961,10.554,9.754,14.108,6.38,26.328c-3.373,12.221,8.48,80.303,15.515,84.933
					c7.035,4.63,9.96,13.213,3.178,14.857C2057.386,2263.517,2014.288,2303.526,2019.123,2309.534z"/>
				<path style="fill:#91B3FA;" d="M1972.489,2261.721c0,0-9.954-7.863-2.617-12.946c7.337-5.083,11.655,2.066,11.655,2.066
					L1972.489,2261.721z"/>
				<path style="fill:#91B3FA;" d="M1995.3,2216.012c0,0-12.652-0.912-9.438-9.239c3.214-8.327,10.802-4.839,10.802-4.839
					L1995.3,2216.012z"/>
				<path style="fill:#91B3FA;" d="M2014.668,2165.507c0,0-12.144-3.666-7.182-11.084c4.962-7.419,11.601-2.352,11.601-2.352
					L2014.668,2165.507z"/>
				<path style="fill:#91B3FA;" d="M1975.912,2294.344c0,0-24.014-11.077-13.047-25.942c10.968-14.864,28.395-40.57,28.992-53.939
					c0.596-13.369,34.037-90.81,44.752-83.841c10.715,6.97,6.142,10.166,6.142,10.166s-11.516,1.753-17.526,14.057
					c-6.01,12.303-29.012,68.261-26.518,72.392C2001.201,2231.367,1962.361,2281.282,1975.912,2294.344z"/>
			</g>
			<path style="fill:#BDD0FB;" d="M2455.842,2894.239l-52.102,31.475c0,0-66.501-106.638-131.963-192.951l88.159-22.035
				c5.779,8.131,15.674,20.261,27.375,38.482C2417.385,2796.122,2455.842,2894.239,2455.842,2894.239z"/>
			<g>
				
					<linearGradient id="SVGID_00000162330362981623550520000006692545126706386099_" gradientUnits="userSpaceOnUse" x1="2381.4902" y1="2706.8083" x2="2395.8923" y2="2808.7319">
					<stop  offset="0" style="stop-color:#09005D"/>
					<stop  offset="1" style="stop-color:#1A0F91"/>
				</linearGradient>
				<path style="fill:url(#SVGID_00000162330362981623550520000006692545126706386099_);" d="M2456.439,2888.175
					c0,0,28.761,22.37,29.25,31.443c0.488,9.073,5.556,13.87-6.304,22.957c-11.86,9.087-44.583,29.047-51.623,40.735
					c-7.041,11.688-65.883,63.21-72.983,47.214c-7.1-15.997-1.698-17.067,7.174-26.124c8.872-9.057,31.486-74.358,27.574-81.817
					c-3.911-7.459-2.312-16.384,4.417-14.536C2400.673,2909.895,2457.758,2895.774,2456.439,2888.175z"/>
				<path style="fill:#7D97F4;" d="M2474.072,2952.595c0,0,4.898,11.701-3.982,12.593c-8.881,0.892-9.195-7.454-9.195-7.454
					L2474.072,2952.595z"/>
				<path style="fill:#7D97F4;" d="M2431.972,2981.531c0,0,10.626,6.928,3.781,12.655c-6.845,5.728-11.794-1-11.794-1
					L2431.972,2981.531z"/>
				<path style="fill:#7D97F4;" d="M2390.56,3016.33c0,0,8.848,9.09,0.913,13.177c-7.935,4.086-11.288-3.563-11.288-3.563
					L2390.56,3016.33z"/>
				<path style="fill:#7D97F4;" d="M2486.882,2922.398c0,0,15.641,21.325-1.155,29.015c-16.796,7.69-44.495,21.734-51.494,33.141
					c-6.999,11.407-73.771,62.952-79.767,51.664c-5.997-11.288-0.448-11.869-0.448-11.869s10.924,4.045,22.142-3.806
					s58.451-45.66,58.269-50.482C2434.248,2965.24,2492.408,2940.39,2486.882,2922.398z"/>
			</g>
			
				<linearGradient id="SVGID_00000056413289841144678500000011634382865436471226_" gradientUnits="userSpaceOnUse" x1="14776.2236" y1="-6231.3765" x2="14541.918" y2="-5967.1597" gradientTransform="matrix(-0.0033 -1 1.1433 -0.0038 -4851.2598 5639.6968)">
				<stop  offset="0" style="stop-color:#FF928E"/>
				<stop  offset="1" style="stop-color:#FE7062"/>
			</linearGradient>
			<path style="fill:url(#SVGID_00000056413289841144678500000011634382865436471226_);" d="M2876.218,2375.272
				c0,0,39.102-90.709-0.357-108.367c-39.459-17.658-144.898,61.557-107.998,114.794
				C2828.516,2431.888,2876.7,2412.347,2876.218,2375.272z"/>
			
				<linearGradient id="SVGID_00000101817475128457623110000005102824883606984072_" gradientUnits="userSpaceOnUse" x1="3510.304" y1="3734.4163" x2="3579.0608" y2="3980.7952" gradientTransform="matrix(0.856 -0.5171 0.5171 0.856 -2339.4326 900.9585)">
				<stop  offset="0" style="stop-color:#FEBBBA"/>
				<stop  offset="1" style="stop-color:#FF928E"/>
			</linearGradient>
			<path style="fill:url(#SVGID_00000101817475128457623110000005102824883606984072_);" d="M2776.648,2324.625
				c0,0,21.833-21.284,55.383,15.111c33.549,36.395,15.105,55.631-6.251,66.22c-21.356,10.589-149.083-15.169-170.262-2.374
				c-21.18,12.795-57.788,3.399-64.062-8.422c-6.274-11.821-19.417-22.094-19.417-22.094s-24.031,38.223-28.575,23.044
				s-6.671-16.785-6.009-22.388c0.662-5.604-12.539-20.756,3.894-31.839c15.501-10.455,32.781-19.669,44.879-8.633
				c0.726,0.663,1.434,1.398,2.122,2.211c12.137,14.349,34.348,33.889,49.094,26.715
				C2652.188,2355.002,2776.648,2324.625,2776.648,2324.625z"/>
			
				<linearGradient id="SVGID_00000030448852184670076700000005589686703776269188_" gradientUnits="userSpaceOnUse" x1="3803.3533" y1="3654.6082" x2="3990.4243" y2="3895.4619" gradientTransform="matrix(0.856 -0.5171 0.5171 0.856 -2339.4326 900.9585)">
				<stop  offset="0" style="stop-color:#09005D"/>
				<stop  offset="1" style="stop-color:#1A0F91"/>
			</linearGradient>
			<path style="fill:url(#SVGID_00000030448852184670076700000005589686703776269188_);" d="M2942.21,2053.45
				c-3.277-0.631-41.393-8.055-41.837-6.51c2.356-8.168,4.927-18.762,3.784-27.32c-3.542-26.525-53.479,3.32-63.48,10.639
				c-26.137,19.13,2.973,65.983,34.354,69.868c31.382,3.885,43.188,38.759,43.188,38.759c-19.261,13.177-8.597,23.019-8.597,23.019
				s-1.341,8.779-0.586,23.555c0.098,1.916,0.973,3.709,2.418,4.969c1.445,1.261,3.338,1.883,5.249,1.723
				c33.199-2.793,54.58-38.546,53.682-57.914c-0.96-20.732-18.157-43.457-24.706-47.597c-0.522-0.33-1.034-0.641-1.468-1.07
				c8.136,1.933,18.069-5.78,20.194-13.303C2968.085,2059.239,2951.662,2055.269,2942.21,2053.45z"/>
			
				<linearGradient id="SVGID_00000106118649090269142980000011081781486859572659_" gradientUnits="userSpaceOnUse" x1="14343.582" y1="2062.9597" x2="14210.6045" y2="2164.7078" gradientTransform="matrix(-0.9805 -0.1965 -0.1965 0.9805 17334.291 2897.9895)">
				<stop  offset="0" style="stop-color:#FEBBBA"/>
				<stop  offset="1" style="stop-color:#FF928E"/>
			</linearGradient>
			<path style="fill:url(#SVGID_00000106118649090269142980000011081781486859572659_);" d="M2904.179,2165.628
				c0,0,15.407-31.724,28.532-19.334c13.125,12.391-15.301,35.939-27.615,34.774L2904.179,2165.628z"/>
			<g>
				<path style="fill:#FFFFFF;" d="M2202.83,2412.241c-0.135,0.082-0.296,0.121-0.463,0.104
					c-20.531-2.219-74.37-26.125-100.737-58.531c-26.528-32.603-61.437-51.496-61.786-51.682c-0.363-0.194-0.499-0.644-0.305-1.005
					c0.194-0.361,0.643-0.497,1.005-0.305c0.353,0.19,35.516,19.215,62.237,52.054c26.129,32.112,79.43,55.798,99.744,57.992
					c0.408,0.045,0.704,0.412,0.659,0.819C2203.159,2411.924,2203.021,2412.125,2202.83,2412.241z"/>
			</g>
			<g>
				<path style="fill:#FFFFFF;" d="M2443.978,2886.083c-0.028,0.017-0.058,0.032-0.089,0.047c-0.377,0.163-0.814-0.01-0.976-0.386
					c-0.443-1.02-44.533-102.345-65.1-130.726l-20.853-28.778c-0.241-0.332-0.166-0.794,0.166-1.035
					c0.301-0.257,0.796-0.169,1.037,0.166l20.854,28.778c20.659,28.509,64.813,129.981,65.257,131.003
					C2444.425,2885.498,2444.291,2885.894,2443.978,2886.083z"/>
			</g>
			<path style="fill:#FFFFFF;" d="M2844.454,2068.672c-0.412,0-0.818-0.205-1.055-0.581c-0.286-0.458-6.988-11.276-4.346-22.418
				c1.405-5.933,5.196-10.802,11.269-14.473c20.639-12.467,31.168-16.021,31.607-16.167c0.652-0.221,1.357,0.139,1.574,0.792
				c0.218,0.652-0.136,1.36-0.789,1.574c-0.104,0.036-10.747,3.638-31.1,15.936c-5.482,3.311-8.89,7.653-10.136,12.911
				c-2.402,10.136,3.966,20.412,4.031,20.513c0.367,0.584,0.192,1.353-0.389,1.72
				C2844.911,2068.61,2844.681,2068.672,2844.454,2068.672z"/>
		</g>
		<g>
			<path style="fill:#FFFFFF;" d="M2488.097,1833.271c0,63.054-19.598,121.579-53.119,169.733
				c-27.579,39.641-64.469,72.272-107.568,94.62c-40.97,21.282-87.615,33.345-137.009,33.345c-19.953,0-39.373-1.953-58.261-5.676
				c-64.027-12.683-120.604-45.938-162.727-92.58c-37.955-42.036-64.115-94.975-73.16-153.591
				c-2.306-14.899-3.546-30.24-3.546-45.851c0-46.556,10.729-90.719,29.795-129.914c38.487-79.37,111.203-138.959,198.996-159.708
				c22.081-5.322,45.138-8.072,68.904-8.072c32.723,0,64.115,5.23,93.556,14.986c64.115,21.196,118.564,63.583,155.011,118.92
				c27.49,41.59,44.783,90.45,48.419,143.129C2487.831,1819.438,2488.097,1826.356,2488.097,1833.271z"/>
			
				<linearGradient id="SVGID_00000103944610797940116560000013186777962214985911_" gradientUnits="userSpaceOnUse" x1="2406.7783" y1="1741.0485" x2="2487.3877" y2="1741.0485">
				<stop  offset="0" style="stop-color:#09005D"/>
				<stop  offset="1" style="stop-color:#1A0F91"/>
			</linearGradient>
			<path style="fill:url(#SVGID_00000103944610797940116560000013186777962214985911_);" d="M2487.388,1812.613l-80.609-64.824
				l32.191-78.304C2466.459,1711.074,2483.752,1759.934,2487.388,1812.613z"/>
			
				<linearGradient id="SVGID_00000154418848326034903060000003461733424819576201_" gradientUnits="userSpaceOnUse" x1="2121.498" y1="1571.6708" x2="2283.958" y2="1571.6708">
				<stop  offset="0" style="stop-color:#09005D"/>
				<stop  offset="1" style="stop-color:#1A0F91"/>
			</linearGradient>
			<path style="fill:url(#SVGID_00000154418848326034903060000003461733424819576201_);" d="M2283.958,1550.564l-84.6,57.2
				l-77.86-64.114c22.081-5.322,45.138-8.072,68.904-8.072C2223.124,1535.578,2254.517,1540.808,2283.958,1550.564z"/>
			
				<linearGradient id="SVGID_00000073692287065530279410000017959103838991083953_" gradientUnits="userSpaceOnUse" x1="1892.7072" y1="1791.2399" x2="1971.2759" y2="1791.2399">
				<stop  offset="0" style="stop-color:#09005D"/>
				<stop  offset="1" style="stop-color:#1A0F91"/>
			</linearGradient>
			<path style="fill:url(#SVGID_00000073692287065530279410000017959103838991083953_);" d="M1971.276,1769.071l-75.022,110.052
				c-2.306-14.899-3.546-30.24-3.546-45.851c0-46.556,10.729-90.719,29.795-129.914L1971.276,1769.071z"/>
			
				<linearGradient id="SVGID_00000150065823691434536450000008807266819209709238_" gradientUnits="userSpaceOnUse" x1="1969.4137" y1="2073.0168" x2="2132.1404" y2="2073.0168">
				<stop  offset="0" style="stop-color:#09005D"/>
				<stop  offset="1" style="stop-color:#1A0F91"/>
			</linearGradient>
			<path style="fill:url(#SVGID_00000150065823691434536450000008807266819209709238_);" d="M2132.14,2125.293
				c-64.027-12.683-120.604-45.938-162.727-92.58l113.864-11.973L2132.14,2125.293z"/>
			
				<linearGradient id="SVGID_00000169521497539321970220000015558211518870585012_" gradientUnits="userSpaceOnUse" x1="2327.4106" y1="2050.3147" x2="2434.9783" y2="2050.3147">
				<stop  offset="0" style="stop-color:#09005D"/>
				<stop  offset="1" style="stop-color:#1A0F91"/>
			</linearGradient>
			<path style="fill:url(#SVGID_00000169521497539321970220000015558211518870585012_);" d="M2434.978,2003.005
				c-27.579,39.641-64.469,72.272-107.568,94.62l13.391-78.923L2434.978,2003.005z"/>
			
				<linearGradient id="SVGID_00000139984590406354731590000010988070740005064608_" gradientUnits="userSpaceOnUse" x1="2191.9736" y1="1649.0115" x2="2200.4563" y2="1649.0115">
				<stop  offset="0" style="stop-color:#2B3582"/>
				<stop  offset="1" style="stop-color:#150E42"/>
			</linearGradient>
			<path style="fill:url(#SVGID_00000139984590406354731590000010988070740005064608_);" d="M2193.635,1699.08
				c-0.029,0-0.058,0-0.087-0.003c-0.919-0.049-1.62-0.831-1.571-1.746l5.161-96.81c0.045-0.912,0.85-1.662,1.746-1.571
				c0.919,0.049,1.62,0.831,1.571,1.746l-5.161,96.81C2195.248,1698.392,2194.514,1699.08,2193.635,1699.08z"/>
			
				<linearGradient id="SVGID_00000134954296434683790790000007373790954889115544_" gradientUnits="userSpaceOnUse" x1="-1510.6686" y1="2864.5544" x2="-1502.1825" y2="2864.5544" gradientTransform="matrix(0.3427 0.9394 -1.0764 0.3926 5962.1235 2052.3901)">
				<stop  offset="0" style="stop-color:#2B3582"/>
				<stop  offset="1" style="stop-color:#150E42"/>
			</linearGradient>
			<path style="fill:url(#SVGID_00000134954296434683790790000007373790954889115544_);" d="M2309.48,1780.119
				c-0.708,0-1.363-0.454-1.587-1.165c-0.273-0.876,0.214-1.808,1.091-2.084l105.969-33.158c0.889-0.273,1.808,0.217,2.084,1.09
				c0.272,0.876-0.214,1.808-1.091,2.084l-105.969,33.158C2309.811,1780.096,2309.643,1780.119,2309.48,1780.119z"/>
			
				<linearGradient id="SVGID_00000029028039942505483580000017727164244779344520_" gradientUnits="userSpaceOnUse" x1="1969.6127" y1="1773.765" x2="2077.0459" y2="1773.765">
				<stop  offset="0" style="stop-color:#2B3582"/>
				<stop  offset="1" style="stop-color:#150E42"/>
			</linearGradient>
			<path style="fill:url(#SVGID_00000029028039942505483580000017727164244779344520_);" d="M2075.387,1780.119
				c-0.052,0-0.101-0.003-0.153-0.006l-104.109-9.387c-0.915-0.081-1.587-0.889-1.506-1.805c0.081-0.919,0.912-1.568,1.805-1.506
				l104.109,9.386c0.915,0.081,1.587,0.889,1.506,1.805C2076.961,1779.47,2076.238,1780.119,2075.387,1780.119z"/>
			
				<linearGradient id="SVGID_00000011027305754748396340000013270654984251235484_" gradientUnits="userSpaceOnUse" x1="2083.031" y1="1968.3943" x2="2123.1604" y2="1968.3943">
				<stop  offset="0" style="stop-color:#2B3582"/>
				<stop  offset="1" style="stop-color:#150E42"/>
			</linearGradient>
			<path style="fill:url(#SVGID_00000011027305754748396340000013270654984251235484_);" d="M2084.692,2027.094
				c-0.169,0-0.341-0.026-0.509-0.081c-0.873-0.282-1.354-1.217-1.071-2.09l36.806-114.077c0.282-0.873,1.22-1.353,2.09-1.071
				c0.873,0.282,1.354,1.217,1.071,2.09l-36.806,114.077C2086.046,2026.646,2085.394,2027.094,2084.692,2027.094z"/>
			
				<linearGradient id="SVGID_00000182525776323472993020000016345863950771233469_" gradientUnits="userSpaceOnUse" x1="2069.5339" y1="1808.0408" x2="2317.7324" y2="1808.0408">
				<stop  offset="0" style="stop-color:#09005D"/>
				<stop  offset="1" style="stop-color:#1A0F91"/>
			</linearGradient>
			<polygon style="fill:url(#SVGID_00000182525776323472993020000016345863950771233469_);" points="2116.936,1929.051 
				2069.534,1779.184 2193.633,1687.03 2317.732,1780.179 2270.331,1929.051 			"/>
			
				<linearGradient id="SVGID_00000012457190823363412080000008300459626503509413_" gradientUnits="userSpaceOnUse" x1="2268.6682" y1="1972.235" x2="2342.4639" y2="1972.235">
				<stop  offset="0" style="stop-color:#2B3582"/>
				<stop  offset="1" style="stop-color:#150E42"/>
			</linearGradient>
			<path style="fill:url(#SVGID_00000012457190823363412080000008300459626503509413_);" d="M2340.802,2020.363
				c-0.5,0-0.997-0.227-1.324-0.659l-70.471-92.934c-0.555-0.73-0.412-1.772,0.321-2.327c0.724-0.548,1.769-0.412,2.327,0.321
				l70.471,92.934c0.555,0.73,0.412,1.772-0.322,2.327C2341.506,2020.252,2341.152,2020.363,2340.802,2020.363z"/>
		</g>
		<g>
			<g>
				<g>
					
						<linearGradient id="SVGID_00000036967576072911015560000005860288435481300352_" gradientUnits="userSpaceOnUse" x1="536.564" y1="2511.1863" x2="929.4515" y2="2511.1863">
						<stop  offset="0" style="stop-color:#09005D"/>
						<stop  offset="1" style="stop-color:#1A0F91"/>
					</linearGradient>
					<path style="fill:url(#SVGID_00000036967576072911015560000005860288435481300352_);" d="M929.451,2673.344l-199.268,20.031
						l-93.384,9.367l-97.941-305.373c-5.854-18.323-0.285-38.354,14.177-51.043l14.209-12.436c3.513-3.038,7.405-5.569,11.582-7.5
						c3.418-1.582,6.994-2.753,10.696-3.449c0.317-0.095,0.475-0.127,0.475-0.127c0.127-0.031,0.222-1.196,0.348-1.227
						c2.848-0.538,5.728-1.955,8.671-1.955h193.825c21.55,0,40.505,15.467,46.423,36.195L929.451,2673.344z"/>
					
						<linearGradient id="SVGID_00000040571495840312957450000009861720296512960132_" gradientUnits="userSpaceOnUse" x1="1629.0082" y1="2180.6572" x2="1260.1066" y2="2305.2861">
						<stop  offset="0" style="stop-color:#09005D"/>
						<stop  offset="1" style="stop-color:#1A0F91"/>
					</linearGradient>
					<path style="fill:url(#SVGID_00000040571495840312957450000009861720296512960132_);" d="M730.184,2693.375l-93.384,9.367
						l-97.941-305.373c-5.854-18.323-0.285-38.354,14.177-51.043l14.209-12.436c3.513-3.038,7.405-5.569,11.582-7.5
						c5.475-1.866,9.399-3.038,10.696-3.449c0.317-0.095,0.475-0.127,0.475-0.127c0.127-0.031,0.222-0.031,0.348-0.063
						C640.977,2314.997,716.608,2634.23,730.184,2693.375z"/>
				</g>
				
					<linearGradient id="SVGID_00000057829127741818838570000017615938932020723620_" gradientUnits="userSpaceOnUse" x1="901.7375" y1="2586.3103" x2="1899.4371" y2="2569.6821">
					<stop  offset="0" style="stop-color:#FEBBBA"/>
					<stop  offset="1" style="stop-color:#FF928E"/>
				</linearGradient>
				<path style="fill:url(#SVGID_00000057829127741818838570000017615938932020723620_);" d="M1027.974,2526.823
					c0,0,25.5,133.01,34.949,133.01c9.449,0,183.949-20.955,183.949-20.955v-37.918l-137.886,5.088l-33.147-98.849
					L1027.974,2526.823z"/>
				
					<linearGradient id="SVGID_00000006701829252743951750000002706528485839040146_" gradientUnits="userSpaceOnUse" x1="2603.7314" y1="604.3381" x2="2369.429" y2="868.5513">
					<stop  offset="0" style="stop-color:#FF928E"/>
					<stop  offset="1" style="stop-color:#FE7062"/>
				</linearGradient>
				<path style="fill:url(#SVGID_00000006701829252743951750000002706528485839040146_);" d="M995.085,2669.788H761.773
					l14.173-165.243c0,0-17.444-124.718,62.144-138.558c46.881-12.75,46.881-12.631,46.881-12.631s59.963-9.33,110.114,12.809
					c50.151,22.138,91.58,155.178,91.58,155.178l-59.963,24l-15.264-49.527L995.085,2669.788z"/>
				
					<linearGradient id="SVGID_00000125568963124044856370000010643015186850854028_" gradientUnits="userSpaceOnUse" x1="834.1685" y1="2527.2527" x2="938.3082" y2="2303.4636">
					<stop  offset="0" style="stop-color:#FEBBBA"/>
					<stop  offset="1" style="stop-color:#FF928E"/>
				</linearGradient>
				<path style="fill:url(#SVGID_00000125568963124044856370000010643015186850854028_);" d="M896.287,2273.46l-23.751,91.208
					c0,0,49.63,23.958,91.776,3.219l-13.302-88.423L896.287,2273.46z"/>
				
					<linearGradient id="SVGID_00000155853514005675679990000015043548254296506020_" gradientUnits="userSpaceOnUse" x1="1439.4557" y1="3453.2637" x2="1288.3259" y2="3568.9009" gradientTransform="matrix(0.9382 0.346 -0.346 0.9382 839.0766 -1485.998)">
					<stop  offset="0" style="stop-color:#FEBBBA"/>
					<stop  offset="1" style="stop-color:#FF928E"/>
				</linearGradient>
				<path style="fill:url(#SVGID_00000155853514005675679990000015043548254296506020_);" d="M1008.041,2199.838
					c0,0,3.79,66.123-5.574,96.642c-9.363,30.52-10.076,52.3-46.875,45.57c-36.799-6.73-59.575-34.698-64.369-70.307
					c0,0-7.797-55.02,4.682-71.772C908.385,2183.219,1008.041,2199.838,1008.041,2199.838z"/>
				
					<linearGradient id="SVGID_00000108301614704480350690000005355333049300125363_" gradientUnits="userSpaceOnUse" x1="1333.0679" y1="3361.7048" x2="1473.8199" y2="3542.9229" gradientTransform="matrix(0.9382 0.346 -0.346 0.9382 839.0766 -1485.998)">
					<stop  offset="0" style="stop-color:#09005D"/>
					<stop  offset="1" style="stop-color:#1A0F91"/>
				</linearGradient>
				<path style="fill:url(#SVGID_00000108301614704480350690000005355333049300125363_);" d="M910.939,2254.683l2.289-0.142
					c2.913-0.18,5.085-2.768,4.724-5.664c-1.402-11.219-2.945-36.314,11.192-36.821c18.219-0.654,85.62,9.682,107.348-7.574
					c20.883-16.583,19.543-48.426,5.128-62.659c-0.964-0.952-2.484-1.039-3.493-0.134l-2.449,2.197
					c-1.677,1.505-4.332,0.204-4.17-2.043l0,0c0.154-2.157-2.298-3.491-4.008-2.167c-6.612,5.121-21.814,11.77-53.873,6.24
					c-45.561-7.86-80.131-0.998-91.704,28.22c-0.735,1.856-3.111,2.163-4.352,0.598c-2.442-3.081-7.15-5.841-15.975-2.661
					c-15.348,5.53-19.978,32.851-2.048,63.342c0.852,1.448,0.139,3.349-1.499,3.722c-5.774,1.313-15.374,5.965-0.936,22.211
					c14.934,16.804,29.126,21.111,34.8,22.201c1.412,0.271,2.744-0.7,2.939-2.125l3.846-28.013c0.218-1.585,1.846-2.563,3.348-2.009
					L910.939,2254.683z"/>
				
					<linearGradient id="SVGID_00000040545962036665092010000004515217597611813027_" gradientUnits="userSpaceOnUse" x1="1420.7103" y1="3428.7637" x2="1269.5803" y2="3544.4011" gradientTransform="matrix(0.9382 0.346 -0.346 0.9382 839.0766 -1485.998)">
					<stop  offset="0" style="stop-color:#FEBBBA"/>
					<stop  offset="1" style="stop-color:#FF928E"/>
				</linearGradient>
				<path style="fill:url(#SVGID_00000040545962036665092010000004515217597611813027_);" d="M909.997,2260.546
					c0,0,3.96-39.885-16.12-35.698c-20.081,4.187-6.572,43.902,6.044,50.102L909.997,2260.546z"/>
				<g>
					
						<linearGradient id="SVGID_00000105385114506767094030000017090855257543125178_" gradientUnits="userSpaceOnUse" x1="2547.9385" y1="554.8797" x2="2313.6372" y2="819.0914">
						<stop  offset="0" style="stop-color:#E1473D"/>
						<stop  offset="1" style="stop-color:#E9605A"/>
					</linearGradient>
					<path style="fill:url(#SVGID_00000105385114506767094030000017090855257543125178_);" d="M806.837,2553.352
						c-0.349,0-0.692-0.167-0.903-0.478l-26.166-38.522c-0.339-0.497-0.209-1.175,0.289-1.514c0.497-0.34,1.176-0.21,1.514,0.29
						l26.166,38.521c0.339,0.497,0.209,1.175-0.289,1.514C807.261,2553.292,807.048,2553.352,806.837,2553.352z"/>
				</g>
				
					<linearGradient id="SVGID_00000014624978619553317490000001219824187701397896_" gradientUnits="userSpaceOnUse" x1="1052.8007" y1="2150.5803" x2="1009.5952" y2="3187.5327">
					<stop  offset="0" style="stop-color:#4F52FF"/>
					<stop  offset="1" style="stop-color:#4042E2"/>
				</linearGradient>
				<path style="fill:url(#SVGID_00000014624978619553317490000001219824187701397896_);" d="M1569.029,2669.788
					c0,7.649-6.724,13.656-15.019,13.656H508.325c-8.295,0-15.019-6.006-15.019-13.656l0,0c0-7.649,6.724-13.656,15.019-13.656
					H1554.01C1562.305,2656.132,1569.029,2662.138,1569.029,2669.788L1569.029,2669.788z"/>
				<g>
					
						<linearGradient id="SVGID_00000145029047545372176750000001071313837777463230_" gradientUnits="userSpaceOnUse" x1="2558.9243" y1="564.6061" x2="2324.6223" y2="828.8188">
						<stop  offset="0" style="stop-color:#E1473D"/>
						<stop  offset="1" style="stop-color:#E9605A"/>
					</linearGradient>
					<path style="fill:url(#SVGID_00000145029047545372176750000001071313837777463230_);" d="M864.144,2533.814
						c-0.332,0-0.659-0.15-0.873-0.437c-0.362-0.481-0.264-1.165,0.217-1.526l9.643-7.235l-30.978-85.733
						c-0.204-0.566,0.089-1.191,0.655-1.396c0.566-0.204,1.19,0.088,1.396,0.655l31.253,86.492c0.163,0.45,0.013,0.955-0.37,1.242
						l-10.289,7.718C864.601,2533.743,864.372,2533.814,864.144,2533.814z"/>
				</g>
				<g>
					
						<linearGradient id="SVGID_00000093888864641281448270000014444302454398631844_" gradientUnits="userSpaceOnUse" x1="783.3392" y1="2668.2483" x2="287.4052" y2="2673.8289">
						<stop  offset="0" style="stop-color:#4F52FF"/>
						<stop  offset="1" style="stop-color:#4042E2"/>
					</linearGradient>
					<path style="fill:url(#SVGID_00000093888864641281448270000014444302454398631844_);" d="M811.868,2669.788
						c0,7.649-2.067,13.656-4.617,13.656H485.803c-2.55,0-4.617-6.006-4.617-13.656l0,0c0-7.649,2.067-13.656,4.617-13.656h321.447
						C809.8,2656.132,811.868,2662.138,811.868,2669.788L811.868,2669.788z"/>
				</g>
				
					<linearGradient id="SVGID_00000083081843898970403280000007022875841165216410_" gradientUnits="userSpaceOnUse" x1="1061.2836" y1="2731.1558" x2="1280.8221" y2="2622.8499">
					<stop  offset="0" style="stop-color:#09005D"/>
					<stop  offset="1" style="stop-color:#1A0F91"/>
				</linearGradient>
				<path style="fill:url(#SVGID_00000083081843898970403280000007022875841165216410_);" d="M1364.795,2642.476h-291.16
					c-6.33,0-12.091,5.218-12.091,11.548v6.01h314.083v-6.01C1375.627,2647.694,1371.125,2642.476,1364.795,2642.476z"/>
				<g>
					<g>
						
							<linearGradient id="SVGID_00000018205266443078697180000015897434428871752329_" gradientUnits="userSpaceOnUse" x1="1099.9996" y1="2471.0122" x2="1448.0759" y2="2471.0122">
							<stop  offset="0" style="stop-color:#09005D"/>
							<stop  offset="1" style="stop-color:#1A0F91"/>
						</linearGradient>
						<path style="fill:url(#SVGID_00000018205266443078697180000015897434428871752329_);" d="M1447.931,2346.245l-37.334,255.767
							c-1.219,8.354-9.067,15.128-17.552,15.128l-279.516-0.008c-8.929,0-14.868-6.94-13.267-15.526l48.969-262.643
							c1.49-7.99,9.623-14.292,18.172-14.072l267.872,6.872C1443.413,2331.971,1449.067,2338.456,1447.931,2346.245z"/>
						
							<linearGradient id="SVGID_00000183970476827844970510000005848110286835733173_" gradientUnits="userSpaceOnUse" x1="1140.7611" y1="2709.2014" x2="1135.4728" y2="2360.1924">
							<stop  offset="0" style="stop-color:#09005D"/>
							<stop  offset="1" style="stop-color:#1A0F91"/>
						</linearGradient>
						<path style="fill:url(#SVGID_00000183970476827844970510000005848110286835733173_);" d="M1174.132,2329.7l-51.598,281.473
							c-0.643,3.506-4.773,6.371-8.401,6.371c-8.928,0-15.535-7.029-13.925-15.662l49.006-262.841
							c1.498-8.033,9.638-14.37,18.186-14.151l4.701,0.12C1173.6,2326.092,1174.478,2327.815,1174.132,2329.7z"/>
						<g>
							<g>
								<path style="fill:#91B3FA;" d="M1402.402,2513.601c-1.039-0.037-1.726-0.943-1.536-2.022l26.705-151.538
									c1.212-6.877-4.228-11.295-10.191-11.599l-28.392-1.448c-1.021-0.052-1.696-0.935-1.507-1.971
									c0.188-1.036,1.169-1.834,2.189-1.781l28.375,1.457c8.858,0.455,14.652,7.268,13.2,15.526l-26.621,151.49
									C1404.436,2512.794,1403.441,2513.639,1402.402,2513.601z"/>
							</g>
							<g>
								<path style="fill:#91B3FA;" d="M1195.007,2594.667l-39.33-0.079c-8.062-0.016-12.847-7.211-11.125-16.715l10.591-58.441
									c0.201-1.11,1.245-2.002,2.331-1.993c1.086,0.01,1.804,0.917,1.603,2.027l-10.557,58.421
									c-1.296,7.169,2.098,12.594,7.89,12.607l39.307,0.093c1.088,0.003,1.811,0.918,1.615,2.044
									C1197.137,2593.758,1196.096,2594.669,1195.007,2594.667z"/>
							</g>
						</g>
					</g>
					<g>
						
							<linearGradient id="SVGID_00000025423987345933843090000015244493382710511030_" gradientUnits="userSpaceOnUse" x1="1353.1591" y1="2650.1931" x2="1099.5684" y2="2653.0466">
							<stop  offset="0" style="stop-color:#09005D"/>
							<stop  offset="1" style="stop-color:#1A0F91"/>
						</linearGradient>
						<path style="fill:url(#SVGID_00000025423987345933843090000015244493382710511030_);" d="M1367.823,2657.78v3.375l-66.46,0.84
							h-98.341c-2.37,0-4.292-1.921-4.292-4.292c0-9.227,6.496-17.167,15.743-17.167h138.82c1.19,0,2.007,0.175,3.06,0.409
							C1363.651,2642.622,1367.823,2649.742,1367.823,2657.78z"/>
						
							<linearGradient id="SVGID_00000033365313318534240870000002428443489307617952_" gradientUnits="userSpaceOnUse" x1="1291.6063" y1="2669.396" x2="1407.2428" y2="2515.2139">
							<stop  offset="0" style="stop-color:#09005D"/>
							<stop  offset="1" style="stop-color:#1A0F91"/>
						</linearGradient>
						<path style="fill:url(#SVGID_00000033365313318534240870000002428443489307617952_);" d="M1387.473,2657.526
							c-0.02-9.228-7.53-16.641-16.777-16.602l-14.026,0.059l-55.384,0.253l-69.411,0.41c-9.227,0.039-16.679,7.857-16.66,17.085
							c0.011,1.824,1.493,3.253,3.317,3.253h165.63c0.882,0,1.728-0.308,2.35-0.933c0.622-0.625,0.97-1.45,0.966-2.333
							L1387.473,2657.526z"/>
						
							<linearGradient id="SVGID_00000061459363416016871510000001470119085210829759_" gradientUnits="userSpaceOnUse" x1="1188.1742" y1="2675.9883" x2="1318.8799" y2="2511.4685">
							<stop  offset="0" style="stop-color:#09005D"/>
							<stop  offset="1" style="stop-color:#1A0F91"/>
						</linearGradient>
						<path style="fill:url(#SVGID_00000061459363416016871510000001470119085210829759_);" d="M1255.061,2455.198
							c-6.33,0-12.09,5.218-12.09,11.548v173.78h87.787v-185.328H1255.061z"/>
						
							<linearGradient id="SVGID_00000004528183923259784620000001322793168279031471_" gradientUnits="userSpaceOnUse" x1="1295.1178" y1="2529.6782" x2="1329.8057" y2="2678.7075">
							<stop  offset="0" style="stop-color:#09005D"/>
							<stop  offset="1" style="stop-color:#1A0F91"/>
						</linearGradient>
						<path style="fill:url(#SVGID_00000004528183923259784620000001322793168279031471_);" d="M1333.582,2455.198h-64.865
							c-6.33,0-12.09,5.218-12.09,11.548v173.78h87.787v-173.78C1344.413,2460.416,1339.911,2455.198,1333.582,2455.198z"/>
					</g>
				</g>
				
					<linearGradient id="SVGID_00000159429531713040737610000010996083623799392693_" gradientUnits="userSpaceOnUse" x1="1016.6828" y1="2642.5571" x2="1092.1172" y2="2642.5571">
					<stop  offset="0" style="stop-color:#09005D"/>
					<stop  offset="1" style="stop-color:#1A0F91"/>
				</linearGradient>
				<path style="fill:url(#SVGID_00000159429531713040737610000010996083623799392693_);" d="M1016.89,2660.034h75.227
					c0,0-17.08-36.705-48.334-34.888C1012.529,2626.963,1016.89,2660.034,1016.89,2660.034z"/>
				
					<linearGradient id="SVGID_00000127009365415108058770000000372921115533403563_" gradientUnits="userSpaceOnUse" x1="657.1596" y1="2601.1128" x2="1875.7269" y2="2580.8035">
					<stop  offset="0" style="stop-color:#FEBBBA"/>
					<stop  offset="1" style="stop-color:#FF928E"/>
				</linearGradient>
				<path style="fill:url(#SVGID_00000127009365415108058770000000372921115533403563_);" d="M811.815,2556.805l52.329-24.081
					l46.266,81.319c0,0,130.829-20.351,154.088,4.361c23.259,24.712,12.356,24.349,9.449,24.349
					c-2.907,0-16.353-14.537-16.353-14.537s11.787,17.737,5.451,18.534c-6.336,0.798-21.805-15.99-21.805-15.99
					s12.72,22.168,5.088,19.624c-7.631-2.544-13.809-14.536-13.809-14.536s10.175,14.216,3.271,14.74
					c-6.905,0.523-17.444-11.709-17.444-11.709s-16.172,7.326-25.439,7.326s-102.665,23.32-119.564,13.628
					C856.443,2650.141,811.815,2556.805,811.815,2556.805z"/>
				<g>
					
						<linearGradient id="SVGID_00000019677648174597384260000008530580076259237811_" gradientUnits="userSpaceOnUse" x1="806.6348" y1="2876.5469" x2="1891.927" y2="3082.8765">
						<stop  offset="0" style="stop-color:#4F52FF"/>
						<stop  offset="1" style="stop-color:#4042E2"/>
					</linearGradient>
					<path style="fill:url(#SVGID_00000019677648174597384260000008530580076259237811_);" d="M1546.774,2683.979v459.229
						c0,6.699-5.347,12.129-12.046,12.129H521.15c-6.699,0-11.365-5.431-11.365-12.129v-459.229H1546.774z"/>
					
						<linearGradient id="SVGID_00000124132346608198804080000012405677018277614771_" gradientUnits="userSpaceOnUse" x1="1349.5488" y1="2429.9407" x2="1181.1528" y2="2551.8062">
						<stop  offset="0" style="stop-color:#4F52FF"/>
						<stop  offset="1" style="stop-color:#4042E2"/>
					</linearGradient>
					<path style="fill:url(#SVGID_00000124132346608198804080000012405677018277614771_);" d="M509.785,2683.979v459.229
						c0,6.699,4.666,12.129,11.365,12.129h314.764v-471.359H509.785z"/>
				</g>
			</g>
		</g>
		<g>
			<g>
				
					<linearGradient id="SVGID_00000173126764938955425320000002357423958847691190_" gradientUnits="userSpaceOnUse" x1="10923.915" y1="-13591.0967" x2="10689.6045" y2="-13326.875" gradientTransform="matrix(-0.9994 -0.0346 -0.0346 0.9994 -710.1693 -9.0543)">
					<stop  offset="0" style="stop-color:#FF928E"/>
					<stop  offset="1" style="stop-color:#FE7062"/>
				</linearGradient>
				<path style="fill:url(#SVGID_00000173126764938955425320000002357423958847691190_);" d="M976.344,1116.596l586.598,19.391
					c6.226,0.206,11.492-4.568,11.896-10.784l6.501-99.977c0.424-6.515-4.638-12.084-11.163-12.283l-586.696-17.872
					c-6.215-0.189-11.463,4.58-11.866,10.785l-6.403,98.459C964.787,1110.818,969.83,1116.381,976.344,1116.596z"/>
				<polygon style="fill:#FFFFFF;" points="1552.882,1113.108 1557.954,1035.114 993.034,1017.638 988.022,1094.704 				"/>
				
					<linearGradient id="SVGID_00000116219788949223830540000002840737442060628127_" gradientUnits="userSpaceOnUse" x1="11101.2988" y1="-13433.1797" x2="10866.9941" y2="-13168.9639" gradientTransform="matrix(-0.9994 -0.0346 -0.0346 0.9994 -710.1693 -9.0543)">
					<stop  offset="0" style="stop-color:#FF928E"/>
					<stop  offset="1" style="stop-color:#FE7062"/>
				</linearGradient>
				<path style="fill:url(#SVGID_00000116219788949223830540000002840737442060628127_);" d="M872.4,1113.099l210.349,6.953
					l-66.858-166.128c-2.822-7.011-9.527-11.686-17.082-11.907l-123.917-3.634c-9.389-0.275-17.31,6.933-17.92,16.306l-8.58,131.928
					C847.482,1100.639,858.356,1112.635,872.4,1113.099z"/>
				<path style="fill:#FFFFFF;" d="M1042.893,1081.316l-44.476-110.581c-1.596-3.969-5.391-6.616-9.667-6.744l-99.705-2.971
					c-5.796-0.173-10.687,4.276-11.063,10.062l-7.064,108.625c-0.395,6.069,4.313,11.26,10.392,11.458l151.246,4.928
					C1040.326,1096.346,1045.794,1088.53,1042.893,1081.316z"/>
				<polygon style="fill:#FFFFFF;" points="1496.249,1099.441 1537.019,1100.759 1540.553,1046.407 1499.781,1045.136 				"/>
				<polygon style="fill:#FFFFFF;" points="1441.112,1097.658 1481.787,1098.973 1485.317,1044.684 1444.64,1043.416 				"/>
				<polygon style="fill:#FFFFFF;" points="1386.103,1095.879 1426.683,1097.191 1430.209,1042.966 1389.626,1041.7 				"/>
				<polygon style="fill:#FFFFFF;" points="1331.221,1094.104 1371.707,1095.414 1375.23,1041.251 1334.74,1039.989 				"/>
				
					<linearGradient id="SVGID_00000017481473962736407090000003252991827470457786_" gradientUnits="userSpaceOnUse" x1="9937.4561" y1="-10462.0107" x2="9703.1543" y2="-10197.7998" gradientTransform="matrix(-0.9979 -0.0649 -0.0649 0.9979 1158.3879 81.0681)">
					<stop  offset="0" style="stop-color:#FF928E"/>
					<stop  offset="1" style="stop-color:#FE7062"/>
				</linearGradient>
				<polygon style="fill:url(#SVGID_00000017481473962736407090000003252991827470457786_);" points="1276.467,1092.334 
					1316.859,1093.64 1320.378,1039.54 1279.982,1038.281 				"/>
				
					<linearGradient id="SVGID_00000129165365114320344160000016795072105830212015_" gradientUnits="userSpaceOnUse" x1="9968.9678" y1="-10434.0771" x2="9734.667" y2="-10169.8652" gradientTransform="matrix(-0.9979 -0.0649 -0.0649 0.9979 1158.3879 81.0681)">
					<stop  offset="0" style="stop-color:#FF928E"/>
					<stop  offset="1" style="stop-color:#FE7062"/>
				</linearGradient>
				<polygon style="fill:url(#SVGID_00000129165365114320344160000016795072105830212015_);" points="1221.839,1090.568 
					1262.138,1091.871 1265.652,1037.834 1225.35,1036.577 				"/>
				
					<linearGradient id="SVGID_00000044865419561725968540000005411505330850706334_" gradientUnits="userSpaceOnUse" x1="10000.4014" y1="-10406.2012" x2="9766.1006" y2="-10141.9893" gradientTransform="matrix(-0.9979 -0.0649 -0.0649 0.9979 1158.3879 81.0681)">
					<stop  offset="0" style="stop-color:#FF928E"/>
					<stop  offset="1" style="stop-color:#FE7062"/>
				</linearGradient>
				<polygon style="fill:url(#SVGID_00000044865419561725968540000005411505330850706334_);" points="1167.337,1088.806 
					1207.543,1090.106 1211.053,1036.131 1170.844,1034.877 				"/>
				
					<linearGradient id="SVGID_00000125600568254426066910000014780020395607016354_" gradientUnits="userSpaceOnUse" x1="10031.7559" y1="-10378.3818" x2="9797.4551" y2="-10114.1709" gradientTransform="matrix(-0.9979 -0.0649 -0.0649 0.9979 1158.3879 81.0681)">
					<stop  offset="0" style="stop-color:#FF928E"/>
					<stop  offset="1" style="stop-color:#FE7062"/>
				</linearGradient>
				<polygon style="fill:url(#SVGID_00000125600568254426066910000014780020395607016354_);" points="1112.961,1087.048 
					1153.074,1088.345 1156.58,1034.432 1116.464,1033.181 				"/>
			</g>
		</g>
		<g>
			<path style="fill:#7D97F4;" d="M3068.086,1160.611h-672.805c-4.982,0-9.021-4.039-9.021-9.021v-135.64
				c0-4.982,4.039-9.021,9.021-9.021h672.805c4.982,0,9.021,4.039,9.021,9.021v135.64
				C3077.107,1156.572,3073.068,1160.611,3068.086,1160.611z"/>
			<g>
				<g>
					<path style="fill:#FFFFFF;" d="M2513.75,1054.909c0,16.916-13.833,30.359-31.062,30.024
						c-17.413-0.339-31.666-14.596-31.666-31.841c0-17.245,14.253-30.676,31.666-30.007
						C2499.917,1023.748,2513.75,1037.993,2513.75,1054.909z"/>
					<path style="fill:#FFFFFF;" d="M2541.448,1134.422c-9.01-22.148-31.554-39.731-58.35-40.156
						c-27.244-0.431-50.882,17.433-60.519,39.733L2541.448,1134.422z"/>
				</g>
				<g>
					<path style="fill:#FFFFFF;" d="M2648.788,1058.821c0,16.208-12.697,29.099-28.503,28.791
						c-15.969-0.311-29.034-13.949-29.034-30.458c0-16.509,13.066-29.39,29.034-28.776
						C2636.091,1028.986,2648.788,1042.614,2648.788,1058.821z"/>
					<path style="fill:#FFFFFF;" d="M2674.224,1134.894c-8.277-21.854-28.976-38.061-53.563-38.451
						c-24.982-0.395-46.642,16.069-55.469,38.063L2674.224,1134.894z"/>
				</g>
				<g>
					<path style="fill:#FFFFFF;" d="M2772.972,1062.419c0,15.556-11.695,27.939-26.249,27.656
						c-14.697-0.286-26.718-13.356-26.718-29.19c0-15.834,12.021-28.208,26.718-27.642
						C2761.277,1033.802,2772.972,1046.863,2772.972,1062.419z"/>
					<path style="fill:#FFFFFF;" d="M2796.412,1135.328c-7.629-21.584-26.701-36.526-49.343-36.885
						c-22.99-0.364-42.911,14.815-51.026,36.528L2796.412,1135.328z"/>
				</g>
				<g>
					<path style="fill:#FFFFFF;" d="M2890.018,1061.506c0,15.818-12.093,28.402-27.147,28.104
						c-15.207-0.3-27.649-13.606-27.649-29.716s12.442-28.684,27.649-28.09C2877.925,1032.393,2890.018,1045.688,2890.018,1061.506z
						"/>
					<path style="fill:#FFFFFF;" d="M2914.246,1135.747c-7.884-21.329-27.601-37.143-51.018-37.519
						c-23.79-0.381-44.415,15.688-52.819,37.15L2914.246,1135.747z"/>
				</g>
				<g>
					<path style="fill:#FFFFFF;" d="M3008.336,1064.986c0,15.187-11.146,27.278-25.015,27.004
						c-14.005-0.277-25.458-13.032-25.458-28.488c0-15.456,11.454-27.538,25.458-26.991
						C2997.19,1037.053,3008.336,1049.799,3008.336,1064.986z"/>
					<path style="fill:#FFFFFF;" d="M3030.677,1136.161c-7.271-21.072-25.449-35.656-47.026-36.002
						c-21.906-0.351-40.887,14.468-48.619,35.662L3030.677,1136.161z"/>
				</g>
			</g>
		</g>
		<g>
			<path style="fill:#7D97F4;" d="M3068.086,974.831h-672.805c-4.982,0-9.021-4.039-9.021-9.021V830.17
				c0-4.982,4.039-9.021,9.021-9.021h672.805c4.982,0,9.021,4.039,9.021,9.021v135.64
				C3077.107,970.792,3073.068,974.831,3068.086,974.831z"/>
			<g>
				<g>
					<path style="fill:#FFFFFF;" d="M2513.75,869.129c0,16.916-13.833,30.359-31.062,30.024
						c-17.413-0.339-31.666-14.596-31.666-31.841c0-17.245,14.253-30.676,31.666-30.006
						C2499.917,837.968,2513.75,852.214,2513.75,869.129z"/>
					<path style="fill:#FFFFFF;" d="M2541.448,948.642c-9.01-22.148-31.554-39.731-58.35-40.155
						c-27.244-0.431-50.882,17.433-60.519,39.733L2541.448,948.642z"/>
				</g>
				<g>
					<path style="fill:#FFFFFF;" d="M2648.788,873.042c0,16.208-12.697,29.099-28.503,28.791
						c-15.969-0.311-29.034-13.949-29.034-30.458c0-16.509,13.066-29.39,29.034-28.776
						C2636.091,843.207,2648.788,856.834,2648.788,873.042z"/>
					<path style="fill:#FFFFFF;" d="M2674.224,949.114c-8.277-21.854-28.976-38.061-53.563-38.451
						c-24.982-0.395-46.642,16.069-55.469,38.063L2674.224,949.114z"/>
				</g>
				<g>
					<path style="fill:#FFFFFF;" d="M2772.972,876.64c0,15.556-11.695,27.939-26.249,27.656
						c-14.697-0.286-26.718-13.356-26.718-29.19s12.021-28.208,26.718-27.642C2761.277,848.023,2772.972,861.083,2772.972,876.64z"
						/>
					<path style="fill:#FFFFFF;" d="M2796.412,949.549c-7.629-21.584-26.701-36.526-49.343-36.885
						c-22.99-0.364-42.911,14.815-51.026,36.528L2796.412,949.549z"/>
				</g>
				<g>
					<path style="fill:#FFFFFF;" d="M2890.018,875.727c0,15.818-12.093,28.402-27.147,28.104
						c-15.207-0.3-27.649-13.606-27.649-29.716c0-16.11,12.442-28.684,27.649-28.09
						C2877.925,846.613,2890.018,859.909,2890.018,875.727z"/>
					<path style="fill:#FFFFFF;" d="M2914.246,949.968c-7.884-21.329-27.601-37.143-51.018-37.519
						c-23.79-0.381-44.415,15.688-52.819,37.15L2914.246,949.968z"/>
				</g>
				<g>
					<path style="fill:#FFFFFF;" d="M3008.336,879.207c0,15.187-11.146,27.278-25.015,27.004
						c-14.005-0.277-25.458-13.032-25.458-28.488c0-15.456,11.454-27.538,25.458-26.991
						C2997.19,851.273,3008.336,864.02,3008.336,879.207z"/>
					<path style="fill:#FFFFFF;" d="M3030.677,950.382c-7.271-21.072-25.449-35.656-47.026-36.002
						c-21.906-0.351-40.887,14.468-48.619,35.662L3030.677,950.382z"/>
				</g>
			</g>
		</g>
	</g>
</g>
</svg>
