<?xml version="1.0" encoding="utf-8"?>
<!-- Generator: Adobe Illustrator 27.5.0, SVG Export Plug-In . SVG Version: 6.00 Build 0)  -->
<svg version="1.1" xmlns="http://www.w3.org/2000/svg" xmlns:xlink="http://www.w3.org/1999/xlink" x="0px" y="0px"
	 viewBox="0 0 2475 1650" style="enable-background:new 0 0 2475 1650;" xml:space="preserve">
<g id="Background">
	<rect style="fill:#FFFFFF;" width="2475" height="1650"/>
</g>
<g id="Illustration">
	<g>
		<linearGradient id="SVGID_1_" gradientUnits="userSpaceOnUse" x1="931.9102" y1="-101.6555" x2="1611.34" y2="1824.0952">
			<stop  offset="0" style="stop-color:#DAE3FE"/>
			<stop  offset="1" style="stop-color:#E9EFFD"/>
		</linearGradient>
		<path style="fill:url(#SVGID_1_);" d="M2305.129,376.034c-55.568-113.478-177.581-198.813-296.34-172.632
			c-71.108,15.677-141.782,68.268-209.962,41.866c-49.144-19.03-76.882-72.996-118.19-106.857
			c-63.581-52.117-153.828-51.51-231.314-28.16c-77.485,23.35-148.414,66.292-224.964,92.838
			c-130.463,45.243-276.073,40.331-403.514-13.611c-55.944-23.68-108.312-56.362-165.265-77.211
			c-56.954-20.849-121.548-28.945-176.523-2.871c-54.974,26.074-94.423,94.27-75.344,154.452c3.805,12,9.772,23.823,8.991,36.447
			c-1.25,20.242-19.836,35.067-38.636,39.569c-18.8,4.502-38.393,1.562-57.667,2.076c-86.497,2.307-163.795,85.32-164.205,176.344
			c-0.34,75.482,43.912,141.812,81.744,205.95c37.832,64.138,71.834,141.096,49.297,212.759
			c-13.364,42.495-44.713,75.737-65.252,114.937c-53.246,101.626-24.784,236.16,49.566,321.879
			c74.35,85.72,185.7,127.663,295.595,137.647c109.895,9.985,220.108-8.76,328.997-27.288
			c108.889-18.528,219.188-36.957,329.029-26.341l-5.904-3.374c214.594,55.774,439.07,69.165,658.283,39.271
			c45.892-6.258,98.575-19.715,117.971-63.917c16.375-37.317,1.672-81.06,5.042-122.009c4.857-59.01,46.95-107.349,92.845-141.659
			c45.895-34.309,97.963-59.843,139.312-100.043c80.89-78.642,108.341-200.366,120.401-315.54
			C2362.41,623.675,2360.697,489.512,2305.129,376.034z"/>
		<g>
			<path style="fill:#BDD0FB;" d="M598.877,1456.687c-89.311,17.858-203.365-79.513-240.106-185.888
				c-37.811-109.47,31.516-155.328,30.981-307.233c-0.608-172.559-90.371-198.565-149.744-431.159
				c-13.396-52.478-90.917-356.164,5.163-413.086c88.837-52.631,338.37,98.415,382.105,291.742
				c31.185,137.851-65.219,195.731-28.4,356.287c32.307,140.877,117.213,142.915,149.744,278.833
				C788.224,1211.652,716.143,1433.241,598.877,1456.687z"/>
			<path style="fill:#91B3FA;" d="M592.391,1498.492c24.076-185.918-22.892-472.744-66.532-680.625
				C478.61,592.802,424.985,409.22,424.449,407.391l-7.433,2.181c0.536,1.825,54.088,185.164,101.273,409.942
				c43.512,207.275,90.354,493.155,66.418,677.985L592.391,1498.492z"/>
		</g>
		<g>
			<path style="fill:#91B3FA;" d="M536.591,1459.914c84.194-43.869,113.012-194.509,65.153-243.467
				c-32.337-33.08-78.71,1.714-123.448-32.577c-57.12-43.782-15.102-126.239-60.01-233.18
				c-38.217-91.008-129.888-177.124-183.458-159.454c-56.075,18.496-85.61,155.732-37.72,238.323
				c31.143,53.711,78.815,56.348,89.157,106.303c12,57.964-45.977,84.398-46.293,140.593
				C239.405,1377.401,425.209,1517.949,536.591,1459.914z"/>
			<path style="fill:#BDD0FB;" d="M491.158,1498.492c0.502,0,1.012-0.11,1.494-0.345c1.705-0.827,2.416-2.878,1.589-4.582
				c-111.618-230-144.348-496.821-144.666-499.489c-0.224-1.881-1.932-3.226-3.81-3c-1.88,0.224-3.224,1.93-3,3.81
				c0.319,2.68,33.19,270.647,145.306,501.672C488.663,1497.781,489.885,1498.492,491.158,1498.492z"/>
			<path style="fill:#BDD0FB;" d="M262.158,1063.176c0.352,0,0.707-0.114,1.007-0.346c0.714-0.557,0.842-1.586,0.286-2.3
				c-35.232-45.223-74.28-113.164-60.223-180.025c8.371-39.819,31.934-60.587,32.171-60.792c0.684-0.592,0.759-1.626,0.167-2.311
				c-0.593-0.685-1.628-0.76-2.312-0.166c-1.002,0.866-24.637,21.704-33.234,62.595c-7.901,37.582-3.758,99.789,60.844,182.712
				C261.187,1062.958,261.671,1063.176,262.158,1063.176z"/>
			<path style="fill:#BDD0FB;" d="M544.181,1439.829c0.523,0,1.036-0.25,1.353-0.712c54.144-79.021,72.608-140.078,54.877-181.476
				c-15.764-36.806-55.566-43.655-55.966-43.721c-0.896-0.139-1.734,0.463-1.88,1.356c-0.145,0.891,0.461,1.735,1.354,1.881
				c0.382,0.062,38.466,6.664,53.496,41.815c17.23,40.299-1.135,100.284-54.584,178.292c-0.512,0.747-0.322,1.767,0.425,2.279
				C543.54,1439.736,543.862,1439.829,544.181,1439.829z"/>
		</g>
		<g>
			<g>
				<g>
					
						<linearGradient id="SVGID_00000135678956266473170050000009941822512362273199_" gradientUnits="userSpaceOnUse" x1="1303.0819" y1="876.7927" x2="1315.0823" y2="2020.7932">
						<stop  offset="0" style="stop-color:#09005D"/>
						<stop  offset="1" style="stop-color:#1A0F91"/>
					</linearGradient>
					<polygon style="fill:url(#SVGID_00000135678956266473170050000009941822512362273199_);" points="1151.499,1143.419 
						1118.7,1437.578 1499.229,1437.578 1449.665,1143.419 					"/>
					
						<linearGradient id="SVGID_00000012474026159064533630000010645719763901367687_" gradientUnits="userSpaceOnUse" x1="1312.4751" y1="933.3667" x2="1308.4752" y2="1157.3663">
						<stop  offset="0" style="stop-color:#09005D"/>
						<stop  offset="1" style="stop-color:#1A0F91"/>
					</linearGradient>
					<path style="fill:url(#SVGID_00000012474026159064533630000010645719763901367687_);" d="M1581.195,1497.762h-556.93
						c-15.13,0-26.492-10.771-23.567-22.341l7.146-28.263c2.149-8.499,11.5-14.74,22.606-15.086l536.901-16.754
						c11.603-0.362,21.876,5.797,24.404,14.63l12.883,45.016C1607.986,1486.661,1596.569,1497.762,1581.195,1497.762z"/>
					<path style="fill:#7D97F4;" d="M1324.07,1439.895c-1.081,0-1.964-0.868-1.98-1.952c-0.016-1.094,0.858-1.994,1.952-2.01
						l23.007-0.337c1.027-0.005,1.994,0.857,2.01,1.952c0.015,1.094-0.858,1.994-1.952,2.01l-23.007,0.337
						C1324.09,1439.895,1324.081,1439.895,1324.07,1439.895z"/>
					<path style="fill:#7D97F4;" d="M1021.317,1482.346c-0.104,0-0.209-0.008-0.314-0.025c-1.081-0.172-1.817-1.188-1.644-2.268
						l3.282-20.556c1.776-11.127,11.242-19.321,22.508-19.486l244.023-3.569c1.071,0.042,1.995,0.858,2.01,1.952
						s-0.858,1.994-1.952,2.01l-244.023,3.569c-9.337,0.136-17.181,6.927-18.654,16.148l-3.282,20.556
						C1023.116,1481.652,1022.274,1482.346,1021.317,1482.346z"/>
				</g>
				<g>
					
						<linearGradient id="SVGID_00000168075134503440407950000004135166538113861039_" gradientUnits="userSpaceOnUse" x1="1577.6503" y1="27.7047" x2="1333.65" y2="695.7053">
						<stop  offset="0" style="stop-color:#09005D"/>
						<stop  offset="1" style="stop-color:#1A0F91"/>
					</linearGradient>
					<path style="fill:url(#SVGID_00000168075134503440407950000004135166538113861039_);" d="M382.941,371.974l14.399,809.082
						c1.184,66.558,55.191,120.042,121.758,120.574c295.652,2.361,1329.553,2.445,1610.791-6.708
						c48.337-1.573,86.817-40.962,87.352-89.322c2.08-188.057,2.846-640.196-33.491-849.454
						c-7.652-44.068-45.54-76.448-90.263-77.082c-247.746-3.515-1343.849-9.168-1624.917,2.151
						C420.095,283.167,382.078,323.468,382.941,371.974z"/>
					
						<linearGradient id="SVGID_00000173155652591032385030000010139980485987506340_" gradientUnits="userSpaceOnUse" x1="483.5031" y1="1238.7726" x2="1926.6476" y2="371.6851">
						<stop  offset="0" style="stop-color:#FE7062"/>
						<stop  offset="1" style="stop-color:#FF928E"/>
					</linearGradient>
					<path style="fill:url(#SVGID_00000173155652591032385030000010139980485987506340_);" d="M433.638,367.133l13.68,768.683
						c0.691,38.86,32.449,69.969,71.315,69.859l1569.031-8.536c38.533-0.109,69.558-31.664,69.016-70.194l-10.933-761.862
						c-0.388-27.549-22.736-49.73-50.288-49.91l-1606.621-3.865C458.023,311.106,433.09,336.322,433.638,367.133z"/>
					<path style="fill:#7D97F4;" d="M448.929,1228.291c-1.093,0.001-1.981-0.885-1.982-1.979c-0.001-1.095,0.885-1.982,1.98-1.983
						l1721.309-1.303c1.095-0.001,1.982,0.885,1.983,1.98c0.001,1.093-0.885,1.981-1.979,1.982L448.929,1228.291z"/>
				</g>
			</g>
			<polygon style="fill:#7D97F4;" points="2087.872,1197.138 519.284,1205.675 519.284,507.139 2087.872,507.139 			"/>
			
				<linearGradient id="SVGID_00000121276861892896324540000003438122184246467001_" gradientUnits="userSpaceOnUse" x1="1847.0529" y1="874.4323" x2="-85.1448" y2="-415.6994">
				<stop  offset="0" style="stop-color:#4042E2"/>
				<stop  offset="1" style="stop-color:#4F52FF"/>
			</linearGradient>
			<path style="fill:url(#SVGID_00000121276861892896324540000003438122184246467001_);" d="M2063.649,646.579l-762.684,260.149
				c-7.619,2.599-15.892,2.552-23.481-0.134l-734.36-259.843c-14.288-5.055-23.839-18.567-23.839-33.723V410.08
				c0-19.756,16.016-35.772,35.772-35.772h1497.045c19.756,0,35.771,16.016,35.771,35.772v202.643
				C2087.872,628.028,2078.135,641.638,2063.649,646.579z"/>
			
				<ellipse transform="matrix(0.7071 -0.7071 0.7071 0.7071 -1.6699 1068.7007)" style="opacity:0.59;fill:#FFFFFF;" cx="1289.201" cy="536.366" rx="115.83" ry="115.83"/>
			<path style="opacity:0.59;fill:#FFFFFF;" d="M1527.367,704.582h-476.331c-1.998,0-3.618-1.62-3.618-3.618V674.57
				c0-1.998,1.62-3.618,3.618-3.618h476.331c1.998,0,3.618,1.62,3.618,3.618v26.393
				C1530.985,702.962,1529.365,704.582,1527.367,704.582z"/>
			<path style="opacity:0.59;fill:#FFFFFF;" d="M1422.714,758.491h-267.026c-1.998,0-3.618-1.62-3.618-3.618v-23.121
				c0-1.998,1.62-3.618,3.618-3.618h267.026c1.998,0,3.618,1.62,3.618,3.618v23.121
				C1426.332,756.871,1424.712,758.491,1422.714,758.491z"/>
			<path style="opacity:0.59;fill:#FFFFFF;" d="M1351.714,806.84h-125.026c-1.998,0-3.618-1.62-3.618-3.618v-10.173
				c0-1.998,1.62-3.618,3.618-3.618h125.026c1.998,0,3.618,1.62,3.618,3.618v10.173
				C1355.332,805.22,1353.712,806.84,1351.714,806.84z"/>
			<g>
				<g>
					
						<linearGradient id="SVGID_00000021803959800586333830000013460919962512665746_" gradientUnits="userSpaceOnUse" x1="857.484" y1="530.7859" x2="833.4852" y2="1189.2538">
						<stop  offset="0" style="stop-color:#FE7062"/>
						<stop  offset="1" style="stop-color:#FF928E"/>
					</linearGradient>
					
						<circle style="fill:url(#SVGID_00000021803959800586333830000013460919962512665746_);" cx="840.064" cy="1008.76" r="64.104"/>
					<path style="fill:#BDD0FB;" d="M970.256,1101.855H709.871c-1.998,0-3.618-1.62-3.618-3.618v-11.375
						c0-1.998,1.62-3.618,3.618-3.618h260.385c1.998,0,3.618,1.62,3.618,3.618v11.375
						C973.874,1100.236,972.254,1101.855,970.256,1101.855z"/>
					<path style="fill:#BDD0FB;" d="M970.256,1138.864H709.871c-1.998,0-3.618-1.62-3.618-3.618v-11.375
						c0-1.998,1.62-3.618,3.618-3.618h260.385c1.998,0,3.618,1.62,3.618,3.618v11.375
						C973.874,1137.244,972.254,1138.864,970.256,1138.864z"/>
				</g>
				<g>
					
						<linearGradient id="SVGID_00000106117186814239235500000003630990572610626990_" gradientUnits="userSpaceOnUse" x1="1167.0374" y1="542.0673" x2="1143.0387" y2="1200.535">
						<stop  offset="0" style="stop-color:#FE7062"/>
						<stop  offset="1" style="stop-color:#FF928E"/>
					</linearGradient>
					
						<circle style="fill:url(#SVGID_00000106117186814239235500000003630990572610626990_);" cx="1150.028" cy="1008.76" r="64.104"/>
					<path style="fill:#BDD0FB;" d="M1280.221,1101.855h-260.385c-1.998,0-3.618-1.62-3.618-3.618v-11.375
						c0-1.998,1.62-3.618,3.618-3.618h260.385c1.998,0,3.618,1.62,3.618,3.618v11.375
						C1283.839,1100.236,1282.219,1101.855,1280.221,1101.855z"/>
					<path style="fill:#BDD0FB;" d="M1280.221,1138.864h-260.385c-1.998,0-3.618-1.62-3.618-3.618v-11.375
						c0-1.998,1.62-3.618,3.618-3.618h260.385c1.998,0,3.618,1.62,3.618,3.618v11.375
						C1283.839,1137.244,1282.219,1138.864,1280.221,1138.864z"/>
				</g>
				<g>
					
						<linearGradient id="SVGID_00000176026171457613879360000004894256368996359863_" gradientUnits="userSpaceOnUse" x1="1476.5907" y1="553.3499" x2="1452.5919" y2="1211.8177">
						<stop  offset="0" style="stop-color:#FE7062"/>
						<stop  offset="1" style="stop-color:#FF928E"/>
					</linearGradient>
					
						<circle style="fill:url(#SVGID_00000176026171457613879360000004894256368996359863_);" cx="1459.993" cy="1008.76" r="64.104"/>
					<path style="fill:#BDD0FB;" d="M1590.185,1101.855H1329.8c-1.998,0-3.618-1.62-3.618-3.618v-11.375
						c0-1.998,1.62-3.618,3.618-3.618h260.385c1.998,0,3.618,1.62,3.618,3.618v11.375
						C1593.803,1100.236,1592.183,1101.855,1590.185,1101.855z"/>
					<path style="fill:#BDD0FB;" d="M1590.185,1138.864H1329.8c-1.998,0-3.618-1.62-3.618-3.618v-11.375
						c0-1.998,1.62-3.618,3.618-3.618h260.385c1.998,0,3.618,1.62,3.618,3.618v11.375
						C1593.803,1137.244,1592.183,1138.864,1590.185,1138.864z"/>
				</g>
				<g>
					
						<linearGradient id="SVGID_00000074414269426800320360000003109329024634841272_" gradientUnits="userSpaceOnUse" x1="1786.144" y1="564.6313" x2="1762.1453" y2="1223.099">
						<stop  offset="0" style="stop-color:#FE7062"/>
						<stop  offset="1" style="stop-color:#FF928E"/>
					</linearGradient>
					
						<circle style="fill:url(#SVGID_00000074414269426800320360000003109329024634841272_);" cx="1769.957" cy="1008.76" r="64.104"/>
					<path style="fill:#BDD0FB;" d="M1900.15,1101.855h-260.385c-1.998,0-3.618-1.62-3.618-3.618v-11.375
						c0-1.998,1.62-3.618,3.618-3.618h260.385c1.998,0,3.618,1.62,3.618,3.618v11.375
						C1903.768,1100.236,1902.148,1101.855,1900.15,1101.855z"/>
					<path style="fill:#BDD0FB;" d="M1900.15,1138.864h-260.385c-1.998,0-3.618-1.62-3.618-3.618v-11.375
						c0-1.998,1.62-3.618,3.618-3.618h260.385c1.998,0,3.618,1.62,3.618,3.618v11.375
						C1903.768,1137.244,1902.148,1138.864,1900.15,1138.864z"/>
				</g>
			</g>
			<g style="opacity:0.82;">
				<path style="fill:#FFFFFF;" d="M840.064,1051.339L840.064,1051.339c-3.84,0-7.235-2.01-9.081-5.377
					c-10.092-18.407-22.122-42.627-22.122-53.487c0-17.205,13.998-31.202,31.202-31.202c17.205,0,31.202,13.997,31.202,31.202
					c0,10.857-12.029,35.079-22.121,53.487C847.298,1049.328,843.903,1051.339,840.064,1051.339z M840.064,965.236
					c-15.02,0-27.24,12.22-27.24,27.239c0,7.818,7.683,26.136,21.634,51.581c1.14,2.079,3.235,3.32,5.605,3.32h0.001
					c2.37,0,4.466-1.241,5.606-3.32c13.95-25.446,21.633-43.765,21.633-51.581C867.303,977.456,855.083,965.236,840.064,965.236z"/>
				<path style="fill:#FFFFFF;" d="M840.064,1011.874c-10.31,0-18.697-8.387-18.697-18.697c0-10.31,8.387-18.697,18.697-18.697
					c10.31,0,18.697,8.387,18.697,18.697C858.761,1003.487,850.374,1011.874,840.064,1011.874z M840.064,978.441
					c-8.125,0-14.735,6.61-14.735,14.735c0,8.125,6.61,14.735,14.735,14.735c8.125,0,14.735-6.61,14.735-14.735
					C854.799,985.051,848.189,978.441,840.064,978.441z"/>
			</g>
			<g style="opacity:0.85;">
				<g>
					<path style="fill:#FFFFFF;" d="M1492.589,1042.203h-67.152c-4.466,0-8.101-3.634-8.101-8.101v-49.109
						c0-4.466,3.634-8.101,8.101-8.101h67.152c4.467,0,8.102,3.634,8.102,8.101v49.109
						C1500.69,1038.568,1497.056,1042.203,1492.589,1042.203z M1425.437,980.855c-2.282,0-4.138,1.856-4.138,4.138v49.109
						c0,2.282,1.856,4.138,4.138,4.138h67.152c2.282,0,4.139-1.856,4.139-4.138v-49.109c0-2.282-1.857-4.138-4.139-4.138H1425.437z"
						/>
					<path style="fill:#FFFFFF;" d="M1458.72,1009.605c-0.401,0-0.803-0.122-1.146-0.365l-37.631-26.685
						c-0.892-0.634-1.103-1.87-0.47-2.763c0.633-0.892,1.868-1.105,2.763-0.47l36.483,25.872l36.014-25.581
						c0.893-0.632,2.128-0.423,2.763,0.468c0.634,0.892,0.424,2.129-0.468,2.763l-37.161,26.395
						C1459.524,1009.483,1459.122,1009.605,1458.72,1009.605z"/>
					<path style="fill:#FFFFFF;" d="M1421.406,1040.114l-0.589-3.918l0.273,1.962l-1.65-1.093
						c0.689-1.093,17.011-29.661,23.242-40.575c0.544-0.949,1.756-1.278,2.703-0.739c0.951,0.543,1.281,1.753,0.739,2.703
						l-11.622,20.339C1422.399,1039.953,1422.399,1039.953,1421.406,1040.114z"/>
					<path style="fill:#FFFFFF;" d="M1495.811,1040.114c-0.994-0.161-0.994-0.161-13.095-21.322l-11.622-20.339
						c-0.542-0.95-0.212-2.16,0.739-2.703c0.949-0.539,2.161-0.21,2.703,0.739c6.231,10.915,22.553,39.482,23.242,40.575
						l-1.65,1.093L1495.811,1040.114z"/>
				</g>
			</g>
			<g style="opacity:0.83;">
				<g>
					<path style="fill:#FFFFFF;" d="M1149.963,1045.732c-0.656,0-1.312-0.014-1.971-0.043
						c-22.538-0.994-40.124-18.938-39.203-40.002c0.448-10.243,5.145-19.673,13.227-26.553c8.025-6.833,18.446-10.325,29.319-9.85
						c22.538,0.994,40.125,18.938,39.204,40.001v0.002c-0.448,10.242-5.146,19.671-13.227,26.551
						C1169.772,1042.256,1160.125,1045.732,1149.963,1045.732z M1149.366,974.632c-8.883,0-17.295,3.023-23.855,8.608
						c-6.928,5.898-10.954,13.953-11.335,22.682c-0.791,18.095,14.485,33.519,34.054,34.381c9.511,0.411,18.603-2.623,25.587-8.57
						c6.928-5.898,10.955-13.953,11.336-22.683c0.791-18.094-14.486-33.518-34.054-34.38
						C1150.519,974.645,1149.941,974.632,1149.366,974.632z"/>
					<g>
						<g>
							<path style="fill:#FFFFFF;" d="M1159.427,1007.658c-0.009,6.269-0.437,12.551-1.538,18.731
								c-0.279,1.544-0.602,3.08-0.987,4.602c-0.386,1.521-0.832,3.029-1.377,4.503c-0.55,1.471-1.189,2.92-2.055,4.245
								c-0.437,0.658-0.932,1.288-1.542,1.806c-0.305,0.258-0.641,0.486-1.009,0.653c-0.368,0.166-0.77,0.271-1.178,0.279
								c-0.408,0.012-0.816-0.068-1.191-0.22c-0.377-0.151-0.72-0.369-1.033-0.618c-0.626-0.502-1.131-1.125-1.576-1.777
								c-0.881-1.315-1.529-2.762-2.085-4.23c-0.553-1.472-1.002-2.979-1.392-4.499c-0.389-1.521-0.715-3.057-0.996-4.6
								c-0.561-3.087-0.943-6.204-1.201-9.33c-0.256-3.126-0.385-6.262-0.401-9.398c-0.008-1.568,0.035-3.136,0.09-4.703
								c0.058-1.567,0.144-3.132,0.259-4.696c0.231-3.127,0.576-6.247,1.089-9.341c0.258-1.547,0.558-3.087,0.918-4.613
								c0.362-1.526,0.783-3.04,1.304-4.521c0.262-0.74,0.549-1.472,0.876-2.186c0.327-0.715,0.692-1.414,1.121-2.075
								c0.43-0.658,0.925-1.286,1.541-1.789c0.308-0.249,0.647-0.466,1.019-0.613c0.37-0.149,0.772-0.224,1.172-0.209
								c0.4,0.011,0.794,0.111,1.158,0.272c0.364,0.161,0.699,0.381,1.006,0.63c0.615,0.501,1.123,1.114,1.574,1.758
								c0.897,1.296,1.573,2.726,2.159,4.18c0.582,1.459,1.062,2.955,1.48,4.467c0.417,1.512,0.77,3.042,1.075,4.58
								C1158.918,995.106,1159.409,1001.388,1159.427,1007.658z M1158.965,1007.658c0.006-3.124-0.112-6.248-0.371-9.361
								c-0.255-3.113-0.641-6.216-1.217-9.286c-0.287-1.534-0.622-3.06-1.02-4.569c-0.4-1.508-0.861-3.001-1.422-4.455
								c-0.565-1.45-1.222-2.875-2.092-4.162c-0.437-0.639-0.931-1.246-1.523-1.74c-0.296-0.245-0.617-0.461-0.965-0.62
								c-0.348-0.157-0.721-0.26-1.102-0.27c-0.38-0.012-0.76,0.065-1.112,0.21c-0.353,0.144-0.677,0.355-0.972,0.6
								c-0.591,0.493-1.07,1.113-1.486,1.765c-0.415,0.655-0.769,1.349-1.085,2.061c-0.316,0.711-0.592,1.44-0.845,2.177
								c-0.502,1.476-0.904,2.986-1.247,4.508c-0.343,1.523-0.625,3.059-0.864,4.603c-0.477,3.087-0.787,6.199-0.984,9.317
								c-0.198,3.118-0.266,6.244-0.261,9.368c-0.008,3.124,0.096,6.248,0.327,9.363c0.233,3.115,0.59,6.221,1.125,9.297
								c0.268,1.538,0.58,3.068,0.955,4.582c0.375,1.514,0.811,3.013,1.347,4.475c0.539,1.458,1.169,2.892,2.021,4.184
								c0.429,0.64,0.917,1.248,1.507,1.73c0.295,0.239,0.617,0.446,0.964,0.587c0.346,0.142,0.718,0.221,1.091,0.208
								c0.372-0.01,0.739-0.108,1.08-0.265c0.341-0.158,0.656-0.375,0.945-0.622c0.578-0.498,1.056-1.114,1.477-1.759
								c0.837-1.302,1.458-2.74,1.991-4.2c0.529-1.464,0.959-2.965,1.331-4.479c0.37-1.515,0.679-3.046,0.945-4.584
								c0.531-3.077,0.883-6.184,1.118-9.298C1158.856,1013.907,1158.966,1010.783,1158.965,1007.658z"/>
							<path style="fill:#FFFFFF;" d="M1149.651,1043.392c-0.476,0-0.976-0.099-1.442-0.287c-0.429-0.171-0.842-0.417-1.259-0.749
								c-0.625-0.501-1.184-1.13-1.761-1.978c-0.802-1.196-1.495-2.599-2.184-4.42c-0.521-1.387-0.986-2.891-1.423-4.596
								c-0.375-1.466-0.705-2.992-1.01-4.663c-0.537-2.96-0.934-6.04-1.212-9.418c-0.252-3.07-0.387-6.255-0.403-9.469
								c-0.008-1.679,0.041-3.338,0.091-4.739c0.06-1.593,0.148-3.185,0.262-4.731c0.251-3.397,0.61-6.479,1.099-9.424
								c0.279-1.679,0.584-3.207,0.931-4.676c0.407-1.715,0.842-3.225,1.332-4.613c0.297-0.839,0.593-1.579,0.907-2.263
								c0.381-0.833,0.769-1.55,1.185-2.193c0.564-0.861,1.113-1.495,1.73-1.998c0.412-0.334,0.834-0.586,1.259-0.754
								c0.489-0.197,1.022-0.29,1.54-0.272c0.494,0.014,0.998,0.131,1.49,0.349c0.413,0.183,0.809,0.43,1.211,0.756
								c0.615,0.502,1.169,1.118,1.747,1.943c0.818,1.182,1.535,2.567,2.258,4.364c0.552,1.383,1.046,2.875,1.513,4.565
								c0.406,1.471,0.762,2.991,1.091,4.647c1.148,5.85,1.715,12.027,1.735,18.886v0.004c-0.01,6.902-0.518,13.082-1.552,18.89
								c-0.301,1.67-0.628,3.196-1,4.667c-0.432,1.704-0.892,3.207-1.406,4.597c-0.684,1.826-1.366,3.232-2.148,4.427
								c-0.567,0.855-1.111,1.489-1.715,2.002c-0.406,0.341-0.804,0.598-1.222,0.788c-0.511,0.23-1.027,0.351-1.538,0.359
								C1149.721,1043.391,1149.686,1043.392,1149.651,1043.392z M1149.177,974.109c-0.229,0-0.464,0.048-0.69,0.142
								c-0.243,0.099-0.49,0.253-0.74,0.46c-0.448,0.373-0.862,0.867-1.3,1.553c-0.356,0.562-0.69,1.198-1.019,1.94
								c-0.281,0.632-0.548,1.319-0.816,2.103c-0.449,1.321-0.849,2.765-1.22,4.413c-0.321,1.427-0.599,2.912-0.852,4.542
								c-0.447,2.888-0.766,5.909-0.974,9.233c-0.181,2.841-0.266,5.886-0.26,9.309c-0.009,3.159,0.101,6.285,0.324,9.297
								c0.247,3.305,0.611,6.318,1.114,9.209c0.281,1.617,0.59,3.095,0.942,4.519c0.406,1.635,0.837,3.067,1.317,4.379
								c0.617,1.669,1.229,2.939,1.926,3.996c0.448,0.67,0.87,1.156,1.322,1.525c0.25,0.203,0.496,0.354,0.732,0.45
								c0.251,0.103,0.486,0.139,0.719,0.143c0.237-0.006,0.48-0.068,0.73-0.183c0.239-0.111,0.486-0.275,0.733-0.487
								c0.445-0.384,0.86-0.881,1.306-1.565c0.682-1.062,1.287-2.338,1.898-4.014c0.475-1.316,0.901-2.751,1.301-4.385
								c0.347-1.416,0.652-2.895,0.932-4.521c0.494-2.865,0.856-5.878,1.107-9.211c0.229-3.005,0.345-6.132,0.343-9.295v-0.002
								c0.006-3.151-0.117-6.274-0.368-9.284c-0.271-3.312-0.665-6.318-1.204-9.193c-0.3-1.601-0.628-3.074-1.005-4.504
								c-0.429-1.62-0.884-3.046-1.391-4.358c-0.644-1.652-1.279-2.918-1.996-3.979c-0.461-0.673-0.891-1.166-1.352-1.55
								c-0.256-0.212-0.513-0.378-0.761-0.491c-0.261-0.118-0.513-0.182-0.749-0.187
								C1149.212,974.109,1149.194,974.109,1149.177,974.109z"/>
						</g>
						<g>
							<path style="fill:#FFFFFF;" d="M1175.181,1007.658c-0.022,4.037-0.538,8.076-1.615,11.969
								c-1.095,3.884-2.746,7.621-4.988,10.975c-1.121,1.676-2.391,3.253-3.81,4.684c-1.418,1.43-2.987,2.714-4.69,3.79
								c-1.705,1.072-3.545,1.93-5.472,2.512c-1.926,0.584-3.936,0.888-5.949,0.89c-2.012,0-4.023-0.303-5.95-0.885
								c-1.928-0.58-3.77-1.437-5.476-2.508c-1.705-1.075-3.276-2.357-4.696-3.787c-1.422-1.43-2.694-3.007-3.818-4.683
								c-2.246-3.355-3.901-7.094-5.001-10.98c-0.542-1.947-0.944-3.932-1.211-5.934c-0.265-2.003-0.399-4.023-0.407-6.044
								c0.01-2.021,0.145-4.041,0.411-6.043c0.268-2.002,0.672-3.987,1.215-5.933c1.103-3.885,2.76-7.62,5.008-10.972
								c1.124-1.674,2.396-3.249,3.818-4.677c1.421-1.428,2.991-2.709,4.695-3.781c1.706-1.068,3.547-1.918,5.472-2.498
								c1.924-0.583,3.931-0.886,5.941-0.888c2.01,0.004,4.017,0.309,5.939,0.893c1.924,0.581,3.764,1.434,5.468,2.503
								c1.702,1.073,3.27,2.355,4.688,3.784c1.418,1.429,2.689,3.004,3.81,4.678c2.244,3.351,3.897,7.086,4.995,10.968
								C1174.637,999.583,1175.157,1003.621,1175.181,1007.658z M1174.651,1007.658c-0.006-3.991-0.501-7.987-1.55-11.839
								c-1.055-3.847-2.643-7.561-4.829-10.901c-1.093-1.668-2.334-3.24-3.724-4.67c-1.391-1.427-2.927-2.718-4.606-3.791
								c-1.682-1.067-3.498-1.926-5.402-2.507c-1.904-0.581-3.891-0.887-5.882-0.894c-1.991,0.008-3.978,0.316-5.88,0.899
								c-1.903,0.582-3.718,1.443-5.398,2.511c-1.678,1.075-3.212,2.366-4.6,3.794c-1.387,1.43-2.626,3.003-3.716,4.671
								c-2.182,3.339-3.767,7.052-4.817,10.896c-0.523,1.924-0.902,3.887-1.158,5.864c-0.257,1.978-0.384,3.971-0.389,5.966
								c0.006,1.995,0.134,3.989,0.392,5.966c0.258,1.977,0.638,3.939,1.162,5.863c1.052,3.843,2.64,7.553,4.823,10.889
								c1.091,1.667,2.329,3.237,3.717,4.666c1.388,1.426,2.921,2.717,4.599,3.788c1.679,1.065,3.493,1.92,5.394,2.502
								c1.899,0.584,3.882,0.892,5.871,0.902c1.988-0.008,3.972-0.315,5.872-0.897c1.901-0.581,3.717-1.433,5.398-2.498
								c1.68-1.07,3.214-2.36,4.605-3.785c1.39-1.428,2.631-2.998,3.724-4.665c2.188-3.337,3.779-7.048,4.837-10.893
								C1174.144,1015.644,1174.643,1011.649,1174.651,1007.658z"/>
							<path style="fill:#FFFFFF;" d="M1148.658,1043.392c-2.093,0-4.183-0.311-6.213-0.924c-1.964-0.591-3.88-1.468-5.697-2.609
								c-1.717-1.082-3.351-2.399-4.858-3.916c-1.421-1.43-2.743-3.051-3.928-4.818c-2.23-3.331-3.953-7.113-5.122-11.24
								c-0.548-1.969-0.964-4.008-1.237-6.063c-0.267-2.012-0.406-4.084-0.416-6.16c0.011-2.088,0.152-4.16,0.42-6.169
								c0.275-2.056,0.693-4.094,1.24-6.058c1.173-4.129,2.898-7.908,5.13-11.236c1.183-1.763,2.505-3.382,3.929-4.813
								c1.51-1.517,3.143-2.833,4.856-3.909c1.805-1.13,3.72-2.004,5.693-2.599c2.025-0.613,4.111-0.925,6.201-0.927
								c2.095,0.003,4.181,0.317,6.204,0.932c1.97,0.596,3.883,1.471,5.686,2.602c1.712,1.079,3.344,2.395,4.851,3.913
								c1.422,1.432,2.741,3.051,3.921,4.814c2.229,3.329,3.95,7.107,5.115,11.228c1.075,3.876,1.632,7.982,1.658,12.211v0.011
								c-0.023,4.228-0.577,8.335-1.649,12.208c-1.163,4.127-2.882,7.907-5.109,11.24c-1.182,1.767-2.501,3.389-3.921,4.82
								c-1.505,1.518-3.137,2.836-4.85,3.919c-1.815,1.141-3.731,2.02-5.695,2.613
								C1152.842,1043.076,1150.753,1043.389,1148.658,1043.392z M1148.654,973.97c-1.886,0.008-3.776,0.296-5.612,0.858
								c-1.774,0.544-3.516,1.354-5.177,2.41c-1.539,0.985-3.032,2.217-4.436,3.66c-1.307,1.347-2.521,2.874-3.607,4.535
								c-2.047,3.132-3.627,6.711-4.699,10.636c-0.493,1.815-0.874,3.747-1.134,5.741c-0.248,1.911-0.376,3.879-0.381,5.85
								c0.006,1.97,0.135,3.938,0.385,5.846c0.26,1.99,0.642,3.922,1.137,5.74c1.074,3.923,2.658,7.499,4.707,10.628
								c1.085,1.659,2.298,3.183,3.607,4.529c1.405,1.443,2.897,2.673,4.435,3.655c1.649,1.045,3.389,1.853,5.171,2.399
								c1.832,0.563,3.719,0.854,5.61,0.863c1.884-0.008,3.771-0.296,5.602-0.858c1.785-0.546,3.527-1.352,5.179-2.397
								c1.537-0.979,3.031-2.208,4.44-3.651c1.31-1.345,2.526-2.869,3.615-4.528c2.051-3.128,3.639-6.706,4.719-10.633
								c1.003-3.675,1.517-7.576,1.525-11.595c-0.006-4.017-0.517-7.919-1.518-11.598c-1.077-3.927-2.662-7.508-4.712-10.64
								c-1.087-1.66-2.304-3.185-3.615-4.533c-1.403-1.44-2.898-2.671-4.444-3.659c-1.659-1.053-3.402-1.862-5.178-2.404
								C1152.438,974.263,1150.547,973.976,1148.654,973.97z"/>
						</g>
						<g>
							<path style="fill:#FFFFFF;" d="M1117.706,993.88l7.966-0.065l7.965-0.036l15.931-0.029l15.931,0.032l7.965,0.04l7.966,0.07
								c0.013,0,0.023,0.011,0.023,0.024c0,0-0.01,0.023-0.023,0.023l-7.966,0.07l-7.965,0.04l-15.931,0.033l-15.931-0.03
								l-7.965-0.036l-7.966-0.065c-0.019,0-0.034-0.016-0.034-0.016C1117.671,993.895,1117.687,993.88,1117.706,993.88z"/>
							<polygon style="fill:#FFFFFF;" points="1149.57,994.994 1125.667,994.928 1117.319,994.859 1116.762,994.302 
								1116.762,993.893 1116.782,993.001 1117.698,992.966 1133.632,992.865 1149.566,992.835 1173.469,992.908 1182.34,992.986 
								1182.363,994.828 1181.429,994.852 1165.503,994.961 							"/>
						</g>
						<g>
							<path style="fill:#FFFFFF;" d="M1126.947,980.487c1.885-0.03,3.77-0.043,5.655-0.065l5.655-0.036
								c1.885-0.016,3.77-0.014,5.655-0.019l5.655-0.011l11.311,0.033l5.655,0.04c1.885,0.024,3.77,0.038,5.655,0.07
								c0.013,0,0.023,0.011,0.023,0.011c0,0.026-0.01,0.036-0.023,0.036c-1.885,0.032-3.77,0.046-5.655,0.07l-5.655,0.04
								l-11.311,0.032l-5.655-0.011c-1.885-0.005-3.77-0.003-5.655-0.019l-5.655-0.036c-1.885-0.022-3.77-0.035-5.655-0.065
								c-0.019,0-0.035-0.016-0.034-0.036C1126.912,980.502,1126.928,980.487,1126.947,980.487z"/>
							<path style="fill:#FFFFFF;" d="M1149.57,981.601l-7.125-0.014c-1.398-0.002-2.797-0.004-4.195-0.016l-7.541-0.056
								c-1.259-0.013-2.518-0.024-3.776-0.045l-0.896-0.014l-0.035-1.848l0.93-0.034c1.218-0.02,2.436-0.031,3.655-0.044
								l7.665-0.058c1.327-0.011,2.656-0.014,3.984-0.015l7.331-0.014l19.033,0.096c1.202,0.013,2.404,0.026,3.605,0.046
								l0.927,0.016l-0.041,1.835l-0.901,0.023c-1.243,0.021-2.502,0.035-3.761,0.048l-7.543,0.062L1149.57,981.601z"/>
						</g>
						<g>
							<path style="fill:#FFFFFF;" d="M1114.938,1007.273l8.657-0.064l8.657-0.037l17.315-0.029l17.315,0.033l8.657,0.04l8.657,0.07
								c0.013,0,0.023,0.01,0.023,0.024c0,0-0.01,0.023-0.023,0.023l-8.657,0.07l-8.657,0.04l-17.315,0.032l-17.315-0.029
								l-8.657-0.037l-8.657-0.064c-0.019,0-0.035-0.016-0.035-0.035C1114.903,1007.288,1114.918,1007.273,1114.938,1007.273z"/>
							<polygon style="fill:#FFFFFF;" points="1149.57,1008.387 1123.591,1008.321 1114.028,1008.25 1113.993,1006.394 
								1114.931,1006.359 1132.249,1006.258 1149.566,1006.229 1175.544,1006.301 1184.586,1006.373 1185.136,1006.935 
								1185.1,1008.222 1184.197,1008.245 1166.886,1008.355 							"/>
						</g>
						<g>
							<path style="fill:#FFFFFF;" d="M1117.706,1020.666l7.966-0.064l7.965-0.037l15.931-0.03l15.931,0.033l7.965,0.04l7.966,0.07
								c0.013,0,0.023,0.011,0.023,0.011c0,0.026-0.01,0.036-0.023,0.036l-7.966,0.07l-7.965,0.04l-15.931,0.033l-15.931-0.029
								l-7.965-0.037l-7.966-0.065c-0.019,0-0.034-0.016-0.034-0.035C1117.671,1020.681,1117.687,1020.666,1117.706,1020.666z"/>
							<polygon style="fill:#FFFFFF;" points="1149.57,1021.78 1125.667,1021.714 1117.319,1021.647 1116.762,1021.089 
								1116.762,1020.68 1116.781,1019.787 1117.698,1019.753 1133.632,1019.651 1149.566,1019.622 1173.469,1019.694 
								1182.34,1019.771 1182.363,1021.615 1181.429,1021.638 1165.503,1021.748 							"/>
						</g>
						<g>
							<path style="fill:#FFFFFF;" d="M1173.328,1034.217h-45.242c-0.067,0-0.122-0.055-0.122-0.123
								c0-0.068,0.055-0.123,0.122-0.123h45.242c0.068,0,0.122,0.055,0.122,0.123
								C1173.45,1034.162,1173.396,1034.217,1173.328,1034.217z"/>
							<path style="fill:#FFFFFF;" d="M1173.328,1035.13h-45.241c-0.569,0-1.032-0.465-1.032-1.036c0-0.571,0.463-1.036,1.032-1.036
								h45.241c0.57,0,1.032,0.465,1.032,1.036C1174.36,1034.665,1173.897,1035.13,1173.328,1035.13z"/>
						</g>
					</g>
				</g>
			</g>
			<g style="opacity:0.86;">
				<path style="fill:#FFFFFF;" d="M1769.957,1047.872c-22.479,0-40.766-18.288-40.766-40.767s18.287-40.767,40.766-40.767
					s40.767,18.288,40.767,40.767S1792.436,1047.872,1769.957,1047.872z M1769.957,970.301c-20.293,0-36.804,16.51-36.804,36.805
					c0,20.294,16.51,36.805,36.804,36.805c20.294,0,36.804-16.51,36.804-36.805C1806.761,986.811,1790.251,970.301,1769.957,970.301
					z"/>
				<path style="fill:#FFFFFF;" d="M1770.757,1039.158c-17.674,0-32.053-14.379-32.053-32.053c0-17.674,14.379-32.053,32.053-32.053
					c17.674,0,32.052,14.379,32.052,32.053C1802.809,1024.779,1788.431,1039.158,1770.757,1039.158z M1770.757,977.034
					c-16.582,0-30.072,13.49-30.072,30.072c0,16.582,13.49,30.072,30.072,30.072c16.581,0,30.071-13.49,30.071-30.072
					C1800.828,990.524,1787.338,977.034,1770.757,977.034z"/>
				<g>
					<path style="fill:#FFFFFF;" d="M1767.709,1030.197v-3.379c-3.523-0.141-7.007-0.973-9.482-2.056
						c-0.884-0.387-1.334-1.378-1.08-2.309l0.858-3.148c0.315-1.155,1.571-1.752,2.675-1.29c2.455,1.029,5.486,1.844,8.755,1.844
						c3.393,0,5.924-1.151,5.924-3.508c0-2.128-1.955-3.393-6.671-4.658c-6.729-1.841-11.56-4.774-11.56-10.697
						c0-5.349,3.911-9.432,10.697-10.524v-3.38c0-1.087,0.882-1.969,1.969-1.969h1.985c1.087,0,1.969,0.882,1.969,1.969v3.035
						c3.26,0.13,5.633,0.688,7.516,1.349c0.965,0.339,1.492,1.378,1.224,2.365l-0.789,2.911c-0.305,1.123-1.504,1.737-2.592,1.326
						c-1.734-0.656-4.185-1.338-7.372-1.338c-4.026,0-5.176,1.668-5.176,3.163c0,1.84,2.416,3.105,7.649,4.716
						c7.477,2.243,10.582,5.348,10.582,10.927c0,5.119-3.796,9.72-11.157,10.87v3.782c0,1.088-0.882,1.969-1.969,1.969h-1.986
						C1768.59,1032.166,1767.709,1031.285,1767.709,1030.197z"/>
				</g>
			</g>
			<path style="opacity:0.59;fill:#FFFFFF;" d="M1826.738,427.906c0,11.584-9.391,20.974-20.974,20.974
				c-11.584,0-20.974-9.39-20.974-20.974c0-11.583,9.39-20.974,20.974-20.974C1817.347,406.932,1826.738,416.322,1826.738,427.906z"
				/>
			<path style="opacity:0.59;fill:#FFFFFF;" d="M1886.883,427.906c0,11.584-9.39,20.974-20.974,20.974
				c-11.584,0-20.974-9.39-20.974-20.974c0-11.583,9.39-20.974,20.974-20.974C1877.492,406.932,1886.883,416.322,1886.883,427.906z"
				/>
			<path style="opacity:0.59;fill:#FFFFFF;" d="M1947.028,427.906c0,11.584-9.39,20.974-20.974,20.974
				c-11.584,0-20.974-9.39-20.974-20.974c0-11.583,9.39-20.974,20.974-20.974C1937.638,406.932,1947.028,416.322,1947.028,427.906z"
				/>
		</g>
		<g>
			<g>
				<path style="fill:#BDD0FB;" d="M2251.036,1087.668c-0.624,0-1.238-0.294-1.624-0.844c-1.507-2.15-3.041-4.278-4.602-6.382
					c-0.652-0.878-0.468-2.12,0.411-2.771c0.88-0.651,2.12-0.467,2.771,0.411c1.582,2.131,3.135,4.287,4.664,6.467
					c0.628,0.896,0.411,2.132-0.485,2.76C2251.825,1087.552,2251.428,1087.668,2251.036,1087.668z"/>
				<path style="fill:#BDD0FB;" d="M2012.779,1550.08c-1.086,0-1.972-0.875-1.981-1.964c-0.01-1.094,0.87-1.989,1.964-1.999
					c5.34-0.045,10.756-0.244,16.099-0.587c1.083-0.054,2.033,0.758,2.104,1.851c0.07,1.091-0.758,2.033-1.851,2.104
					c-5.415,0.348-10.905,0.548-16.318,0.595C2012.791,1550.08,2012.785,1550.08,2012.779,1550.08z M1986.448,1549.116
					c-0.054,0-0.108-0.002-0.163-0.007c-5.413-0.444-10.874-1.045-16.233-1.787c-1.083-0.151-1.841-1.151-1.691-2.235
					c0.15-1.083,1.146-1.844,2.235-1.691c5.286,0.732,10.673,1.325,16.012,1.764c1.091,0.089,1.903,1.046,1.813,2.136
					C1988.336,1548.333,1987.469,1549.116,1986.448,1549.116z M2055.178,1546.614c-0.96,0-1.803-0.698-1.955-1.677
					c-0.167-1.081,0.573-2.094,1.654-2.262c5.27-0.818,10.602-1.799,15.845-2.913c1.075-0.23,2.122,0.456,2.35,1.526
					c0.227,1.071-0.456,2.122-1.525,2.35c-5.315,1.13-10.719,2.123-16.061,2.953
					C2055.382,1546.606,2055.28,1546.614,2055.178,1546.614z M2096.643,1537.068c-0.847,0-1.632-0.548-1.893-1.401
					c-0.321-1.047,0.267-2.154,1.313-2.475c5.124-1.572,10.26-3.302,15.265-5.142c1.026-0.379,2.167,0.149,2.543,1.175
					c0.377,1.027-0.149,2.166-1.175,2.543c-5.073,1.865-10.278,3.618-15.47,5.211
					C2097.031,1537.039,2096.835,1537.068,2096.643,1537.068z M2136.308,1521.71c-0.742,0-1.454-0.419-1.792-1.135
					c-0.468-0.989-0.045-2.17,0.944-2.637c4.837-2.288,9.669-4.738,14.363-7.285c0.964-0.52,2.164-0.165,2.686,0.796
					c0.522,0.962,0.166,2.165-0.796,2.686c-4.758,2.582-9.656,5.066-14.56,7.384C2136.88,1521.65,2136.592,1521.71,2136.308,1521.71
					z M2173.336,1500.778c-0.641,0-1.269-0.31-1.651-0.883c-0.606-0.911-0.359-2.141,0.551-2.747
					c4.433-2.95,8.852-6.073,13.134-9.283c0.877-0.656,2.119-0.478,2.773,0.398c0.656,0.875,0.478,2.117-0.397,2.773
					c-4.342,3.253-8.821,6.42-13.314,9.411C2174.094,1500.67,2173.713,1500.778,2173.336,1500.778z M2206.898,1474.705
					c-0.542,0-1.082-0.22-1.473-0.655c-0.732-0.813-0.667-2.066,0.146-2.799c3.97-3.575,7.891-7.31,11.655-11.099
					c0.772-0.776,2.028-0.78,2.802-0.01c0.777,0.771,0.781,2.026,0.01,2.802c-3.815,3.841-7.79,7.627-11.813,11.251
					C2207.844,1474.537,2207.371,1474.705,2206.898,1474.705z M2236.338,1444.03c-0.446,0-0.894-0.15-1.263-0.457
					c-0.843-0.698-0.959-1.947-0.26-2.79c3.413-4.114,6.755-8.377,9.935-12.672c0.65-0.877,1.891-1.064,2.771-0.413
					c0.879,0.651,1.064,1.892,0.413,2.771c-3.223,4.352-6.611,8.672-10.07,12.843
					C2237.472,1443.786,2236.907,1444.03,2236.338,1444.03z M2261.058,1409.423c-0.352,0-0.708-0.094-1.031-0.29
					c-0.933-0.571-1.228-1.79-0.658-2.724c2.785-4.559,5.482-9.261,8.015-13.973c0.518-0.964,1.717-1.326,2.684-0.807
					c0.963,0.519,1.324,1.719,0.807,2.684c-2.567,4.775-5.3,9.54-8.123,14.161
					C2262.377,1409.085,2261.725,1409.423,2261.058,1409.423z M2280.557,1371.614c-0.26,0-0.524-0.052-0.778-0.161
					c-1.006-0.431-1.473-1.595-1.043-2.6c2.104-4.919,4.098-9.96,5.925-14.983c0.375-1.028,1.515-1.556,2.54-1.185
					c1.028,0.374,1.558,1.511,1.185,2.539c-1.853,5.091-3.873,10.2-6.007,15.186
					C2282.057,1371.164,2281.326,1371.614,2280.557,1371.614z M2294.42,1331.39c-0.168,0-0.34-0.022-0.51-0.068
					c-1.057-0.281-1.687-1.366-1.406-2.423c1.373-5.169,2.619-10.446,3.704-15.685c0.221-1.073,1.272-1.759,2.341-1.538
					c1.072,0.221,1.761,1.27,1.538,2.341c-1.1,5.311-2.362,10.661-3.754,15.9C2296.099,1330.804,2295.297,1331.39,2294.42,1331.39z
					 M2302.328,1289.577c-0.075,0-0.152-0.004-0.228-0.013c-1.087-0.125-1.867-1.107-1.743-2.194
					c0.609-5.323,1.077-10.727,1.388-16.063c0.065-1.093,1.013-1.935,2.093-1.862c1.093,0.063,1.926,1,1.863,2.092
					c-0.316,5.41-0.79,10.889-1.408,16.284C2304.177,1288.832,2303.32,1289.577,2302.328,1289.577z M2304.066,1247.038
					c-1.065,0-1.945-0.846-1.979-1.918c-0.17-5.336-0.495-10.746-0.964-16.081c-0.096-1.09,0.71-2.052,1.799-2.148
					c1.092-0.088,2.052,0.711,2.147,1.799c0.476,5.407,0.805,10.892,0.978,16.303c0.035,1.093-0.823,2.008-1.917,2.043
					C2304.109,1247.038,2304.087,1247.038,2304.066,1247.038z M2299.606,1204.729c-0.941,0-1.776-0.672-1.948-1.631
					c-0.943-5.259-2.047-10.566-3.281-15.774c-0.251-1.065,0.407-2.132,1.471-2.385c1.069-0.246,2.133,0.406,2.385,1.471
					c1.25,5.279,2.368,10.658,3.325,15.987c0.194,1.078-0.523,2.107-1.6,2.3C2299.841,1204.719,2299.722,1204.729,2299.606,1204.729
					z M2289.109,1163.498c-0.831,0-1.604-0.526-1.88-1.358c-1.686-5.081-3.534-10.176-5.492-15.143
					c-0.402-1.018,0.098-2.169,1.116-2.569c1.021-0.403,2.169,0.1,2.569,1.116c1.985,5.035,3.858,10.199,5.567,15.348
					c0.344,1.038-0.218,2.159-1.257,2.505C2289.526,1163.465,2289.316,1163.498,2289.109,1163.498z M2272.834,1124.194
					c-0.727,0-1.425-0.399-1.772-1.092c-2.402-4.786-4.967-9.56-7.623-14.191c-0.545-0.949-0.217-2.16,0.732-2.704
					c0.949-0.547,2.16-0.217,2.704,0.732c2.693,4.695,5.293,9.534,7.727,14.385c0.491,0.978,0.097,2.169-0.881,2.659
					C2273.436,1124.126,2273.132,1124.194,2272.834,1124.194z"/>
				<path style="fill:#BDD0FB;" d="M1944.256,1542.524c-0.148,0-0.299-0.017-0.45-0.051c-2.591-0.601-5.172-1.237-7.742-1.907
					c-1.058-0.277-1.693-1.358-1.417-2.418c0.275-1.059,1.353-1.693,2.417-1.417c2.536,0.661,5.082,1.288,7.637,1.881
					c1.066,0.248,1.73,1.312,1.482,2.378C1945.972,1541.905,1945.156,1542.524,1944.256,1542.524z"/>
			</g>
			<g>
				<path style="fill:#BDD0FB;" d="M1760.459,1410.73c-0.665,0-1.314-0.334-1.688-0.941c-1.394-2.258-2.759-4.539-4.095-6.842
					c-0.549-0.947-0.227-2.159,0.719-2.708c0.947-0.55,2.159-0.228,2.708,0.719c1.319,2.272,2.666,4.522,4.041,6.751
					c0.575,0.931,0.285,2.151-0.646,2.726C1761.173,1410.635,1760.814,1410.73,1760.459,1410.73z"/>
				<path style="fill:#BDD0FB;" d="M1744.385,1380.95c-0.745,0-1.46-0.423-1.796-1.142c-2.252-4.822-4.406-9.78-6.403-14.737
					c-0.408-1.015,0.083-2.169,1.098-2.578c1.021-0.407,2.17,0.083,2.578,1.098c1.97,4.89,4.095,9.782,6.318,14.54
					c0.462,0.991,0.035,2.171-0.957,2.634C1744.951,1380.891,1744.666,1380.95,1744.385,1380.95z M1729.399,1341.856
					c-0.848,0-1.634-0.55-1.894-1.405c-0.344-1.129-0.682-2.262-1.013-3.398c-1.168-4.005-2.263-8.075-3.254-12.096
					c-0.262-1.062,0.386-2.136,1.449-2.397c1.058-0.265,2.136,0.385,2.397,1.449c0.979,3.967,2.06,7.983,3.212,11.935
					c0.327,1.121,0.661,2.239,0.999,3.352c0.319,1.047-0.271,2.154-1.318,2.473
					C1729.785,1341.828,1729.59,1341.856,1729.399,1341.856z M1720.051,1301.04c-0.96,0-1.802-0.698-1.955-1.677
					c-0.819-5.275-1.505-10.638-2.036-15.941c-0.109-1.088,0.685-2.06,1.774-2.169c1.088-0.101,2.06,0.686,2.169,1.774
					c0.524,5.232,1.199,10.523,2.009,15.727c0.167,1.081-0.573,2.094-1.653,2.263
					C1720.255,1301.032,1720.153,1301.04,1720.051,1301.04z M1716.596,1259.314c-1.084,0-1.97-0.873-1.981-1.96
					c-0.012-1.067-0.017-2.133-0.016-3.198c0-4.267,0.096-8.606,0.283-12.893c0.048-1.093,0.997-1.928,2.066-1.892
					c1.093,0.048,1.941,0.973,1.892,2.066c-0.186,4.229-0.28,8.509-0.28,12.721c-0.001,1.052,0.005,2.102,0.016,3.154
					c0.012,1.094-0.866,1.991-1.96,2.002C1716.61,1259.314,1716.603,1259.314,1716.596,1259.314z M1719.155,1217.499
					c-0.088,0-0.176-0.006-0.265-0.017c-1.085-0.145-1.847-1.142-1.702-2.226c0.708-5.294,1.571-10.635,2.567-15.875
					c0.204-1.074,1.238-1.787,2.316-1.577c1.075,0.204,1.781,1.241,1.577,2.316c-0.982,5.17-1.833,10.439-2.532,15.661
					C1720.982,1216.775,1720.131,1217.499,1719.155,1217.499z M1727.658,1176.491c-0.179,0-0.36-0.025-0.541-0.076
					c-1.052-0.298-1.665-1.393-1.367-2.445c1.456-5.14,3.07-10.302,4.799-15.341c0.354-1.035,1.477-1.59,2.516-1.231
					c1.035,0.355,1.587,1.481,1.231,2.516c-1.705,4.972-3.298,10.064-4.733,15.135
					C1729.316,1175.921,1728.521,1176.491,1727.658,1176.491z M1741.901,1137.117c-0.269,0-0.542-0.055-0.804-0.172
					c-0.999-0.444-1.45-1.615-1.005-2.615c2.172-4.886,4.5-9.765,6.92-14.502c0.497-0.974,1.687-1.361,2.666-0.863
					c0.974,0.498,1.36,1.692,0.863,2.666c-2.387,4.673-4.685,9.487-6.829,14.308
					C1743.384,1136.678,1742.66,1137.117,1741.901,1137.117z M1761.569,1100.16c-0.36,0-0.724-0.098-1.051-0.303
					c-0.927-0.581-1.207-1.804-0.626-2.731c2.836-4.523,5.829-9.023,8.897-13.375c0.632-0.895,1.864-1.11,2.761-0.478
					c0.894,0.631,1.109,1.866,0.478,2.761c-3.027,4.293-5.98,8.733-8.779,13.197
					C1762.873,1099.831,1762.229,1100.16,1761.569,1100.16z M1786.261,1066.361c-0.452,0-0.906-0.154-1.278-0.468
					c-0.836-0.707-0.94-1.957-0.234-2.792c3.447-4.076,7.046-8.105,10.699-11.975c0.75-0.796,2.004-0.832,2.801-0.08
					c0.795,0.751,0.832,2.004,0.08,2.801c-3.604,3.818-7.155,7.792-10.554,11.813
					C1787.383,1066.122,1786.824,1066.361,1786.261,1066.361z M1815.493,1036.415c-0.547,0-1.091-0.225-1.483-0.667
					c-0.726-0.818-0.651-2.07,0.167-2.797c3.98-3.533,8.114-7.006,12.288-10.323c0.854-0.682,2.101-0.54,2.783,0.318
					c0.681,0.856,0.539,2.102-0.318,2.783c-4.116,3.273-8.196,6.699-12.122,10.185
					C1816.43,1036.25,1815.96,1036.415,1815.493,1036.415z M1848.696,1010.95c-0.644,0-1.276-0.313-1.656-0.891
					c-0.602-0.914-0.349-2.143,0.564-2.745c4.456-2.935,9.049-5.784,13.654-8.467c0.944-0.551,2.159-0.231,2.709,0.714
					c0.551,0.945,0.231,2.158-0.714,2.709c-4.543,2.648-9.074,5.459-13.469,8.353
					C1849.449,1010.844,1849.069,1010.95,1848.696,1010.95z M1885.214,990.492c-0.744,0-1.457-0.421-1.795-1.14
					c-0.465-0.99-0.039-2.17,0.952-2.635c4.814-2.26,9.767-4.424,14.72-6.429c1.014-0.41,2.17,0.079,2.58,1.092
					c0.411,1.015-0.078,2.17-1.092,2.58c-4.888,1.979-9.775,4.114-14.525,6.344C1885.783,990.432,1885.497,990.492,1885.214,990.492
					z M1924.267,975.44c-0.847,0-1.632-0.548-1.893-1.402c-0.321-1.046,0.267-2.153,1.314-2.474c1.312-0.403,2.628-0.796,3.949-1.18
					c3.809-1.111,7.69-2.159,11.536-3.116c1.056-0.269,2.136,0.382,2.401,1.443c0.265,1.062-0.382,2.137-1.443,2.401
					c-3.796,0.945-7.627,1.98-11.385,3.075c-1.303,0.38-2.602,0.768-3.897,1.165C1924.655,975.411,1924.459,975.44,1924.267,975.44z
					 M2064.345,967.46c-0.121,0-0.244-0.011-0.367-0.034c-5.174-0.97-10.442-1.81-15.656-2.497
					c-1.085-0.142-1.849-1.138-1.706-2.222c0.142-1.085,1.122-1.839,2.222-1.706c5.286,0.696,10.625,1.547,15.869,2.531
					c1.076,0.202,1.784,1.237,1.583,2.313C2066.111,966.796,2065.279,967.46,2064.345,967.46z M1965.063,966.015
					c-0.958,0-1.801-0.697-1.955-1.673c-0.17-1.082,0.568-2.095,1.648-2.266c5.26-0.829,10.622-1.525,15.936-2.067
					c1.074-0.124,2.062,0.68,2.172,1.769c0.111,1.088-0.681,2.061-1.769,2.172c-5.243,0.537-10.533,1.223-15.722,2.04
					C1965.269,966.007,1965.164,966.015,1965.063,966.015z M2022.746,962.709c-0.028,0-0.057-0.001-0.085-0.002
					c-5.269-0.221-10.585-0.3-15.85-0.23c-0.009,0-0.017,0-0.027,0c-1.082,0-1.966-0.87-1.98-1.955
					c-0.015-1.094,0.861-1.993,1.955-2.007c5.341-0.068,10.727,0.01,16.069,0.234c1.093,0.046,1.943,0.969,1.896,2.062
					C2024.679,961.876,2023.802,962.709,2022.746,962.709z"/>
				<path style="fill:#BDD0FB;" d="M2097.327,975.652c-0.195,0-0.393-0.029-0.589-0.09c-2.502-0.778-5.017-1.523-7.542-2.234
					c-1.053-0.296-1.667-1.39-1.37-2.444c0.296-1.052,1.396-1.666,2.444-1.37c2.56,0.721,5.108,1.475,7.644,2.263
					c1.045,0.325,1.628,1.435,1.304,2.48C2098.955,975.107,2098.172,975.652,2097.327,975.652z"/>
			</g>
			<g>
				<path style="fill:#BDD0FB;" d="M2103.811,1048.873c-1.295-0.765-2.934-0.625-4.079,0.35l-32.678,27.811
					c-19.123-5.99-39.338-8.975-59.956-8.527l-23.638-35.779c-0.829-1.255-2.363-1.846-3.82-1.471l-49.847,12.821
					c-1.457,0.375-2.516,1.633-2.636,3.131l-3.44,42.744c-18.274,9.558-34.541,21.925-48.4,36.399l-42.041-8.591
					c-1.473-0.301-2.975,0.366-3.741,1.66l-26.181,44.314c-0.766,1.297-0.625,2.934,0.35,4.078l27.81,32.678
					c-5.99,19.123-8.974,39.338-8.526,59.956l-35.78,23.638c-1.255,0.829-1.846,2.362-1.471,3.819l12.822,49.848
					c0.375,1.457,1.632,2.515,3.132,2.636l42.744,3.44c9.557,18.274,21.924,34.541,36.399,48.4l-8.592,42.042
					c-0.301,1.473,0.366,2.976,1.661,3.741l44.313,26.181c1.295,0.766,2.933,0.625,4.079-0.35l32.677-27.81
					c19.122,5.991,39.339,8.974,59.956,8.528l23.638,35.78c0.829,1.254,2.363,1.845,3.819,1.471l49.849-12.822
					c1.456-0.374,2.515-1.633,2.635-3.132l3.439-42.744c18.274-9.556,34.542-21.925,48.4-36.399l42.041,8.591
					c1.474,0.302,2.976-0.366,3.741-1.661l26.181-44.313c0.764-1.295,0.625-2.933-0.35-4.078l-27.81-32.677
					c5.99-19.123,8.974-39.339,8.526-59.956l35.78-23.638c1.254-0.828,1.845-2.363,1.47-3.819l-12.822-49.847
					c-0.374-1.457-1.632-2.515-3.131-2.636l-42.744-3.44c-9.557-18.274-21.925-34.54-36.398-48.399l8.591-42.041
					c0.301-1.474-0.366-2.976-1.661-3.742L2103.811,1048.873z"/>
				
					<linearGradient id="SVGID_00000041990735039356840490000015029567388926613393_" gradientUnits="userSpaceOnUse" x1="1962.3176" y1="1256.5162" x2="2059.6812" y2="1256.5162">
					<stop  offset="0" style="stop-color:#DAE3FE"/>
					<stop  offset="1" style="stop-color:#E9EFFD"/>
				</linearGradient>
				<path style="fill:url(#SVGID_00000041990735039356840490000015029567388926613393_);" d="M2011.097,1305.199
					c-17.256,0-33.996-9.184-42.82-25.373c-6.223-11.415-7.628-24.571-3.955-37.042c3.672-12.472,11.982-22.767,23.398-28.989
					c11.414-6.223,24.569-7.628,37.042-3.955c12.472,3.672,22.767,11.982,28.989,23.398c12.845,23.565,4.123,53.188-19.443,66.033
					C2026.932,1303.291,2018.961,1305.199,2011.097,1305.199z M2010.943,1213.807c-6.905,0-13.901,1.675-20.379,5.204
					c-10.022,5.463-17.317,14.501-20.54,25.45c-3.224,10.949-1.992,22.498,3.471,32.52c11.278,20.688,37.283,28.344,57.97,17.07
					c20.687-11.277,28.345-37.282,17.069-57.971C2040.788,1221.87,2026.09,1213.807,2010.943,1213.807z"/>
				
					<linearGradient id="SVGID_00000142893836380205056870000014950814357872168077_" gradientUnits="userSpaceOnUse" x1="1883.3181" y1="1257.5581" x2="2137.719" y2="1257.5581">
					<stop  offset="0" style="stop-color:#DAE3FE"/>
					<stop  offset="1" style="stop-color:#E9EFFD"/>
				</linearGradient>
				<path style="fill:url(#SVGID_00000142893836380205056870000014950814357872168077_);" d="M2010.556,1384.698
					c-56.638,0.002-108.431-38.175-123.176-95.503c-2.719-10.57-4.063-21.275-4.062-31.91c0.003-22.464,6.006-44.605,17.734-64.455
					c17.278-29.245,44.91-50.011,77.807-58.473c8.787-2.26,17.8-3.586,26.785-3.94l0.234,5.94
					c-8.565,0.338-17.157,1.601-25.539,3.756l0,0c-28.373,7.298-52.638,24.199-69.202,48c-1.743,2.505-3.4,5.085-4.969,7.74
					c-11.179,18.922-16.903,40.029-16.905,61.443c-0.001,10.137,1.28,20.344,3.871,30.419
					c14.056,54.643,63.433,91.035,117.419,91.038c9.97,0.001,20.089-1.239,30.181-3.835c54.652-14.059,91.046-63.441,91.039-117.436
					c-0.002-9.962-1.242-20.081-3.835-30.165c-5.475-21.285-16.59-40.651-32.144-56.003l4.175-4.229
					c16.32,16.108,27.981,36.423,33.725,58.752c2.721,10.577,4.022,21.192,4.023,31.643c0.009,56.643-38.17,108.446-95.503,123.194
					C2031.634,1383.397,2021.011,1384.698,2010.556,1384.698z"/>
			</g>
		</g>
		<g>
			
				<linearGradient id="SVGID_00000011008996117817543000000000598246139393920184_" gradientUnits="userSpaceOnUse" x1="2273.752" y1="134.7896" x2="2113.6675" y2="530.9987">
				<stop  offset="0" style="stop-color:#4042E2"/>
				<stop  offset="1" style="stop-color:#4F52FF"/>
			</linearGradient>
			<path style="fill:url(#SVGID_00000011008996117817543000000000598246139393920184_);" d="M1816.04,1497.762
				c2.13,0,3.858-1.696,3.858-3.787v-452.697c0-2.092-1.727-3.787-3.858-3.787c-2.131,0-3.858,1.695-3.858,3.787v452.697
				C1812.182,1496.067,1813.909,1497.762,1816.04,1497.762z"/>
			
				<linearGradient id="SVGID_00000064339887149390798350000009669078264150269600_" gradientUnits="userSpaceOnUse" x1="2363.6196" y1="171.0981" x2="2203.5349" y2="567.3073">
				<stop  offset="0" style="stop-color:#4042E2"/>
				<stop  offset="1" style="stop-color:#4F52FF"/>
			</linearGradient>
			<path style="fill:url(#SVGID_00000064339887149390798350000009669078264150269600_);" d="M1920.578,1497.762
				c2.131,0,3.857-1.696,3.857-3.787v-452.697c0-2.092-1.727-3.787-3.857-3.787s-3.857,1.695-3.857,3.787v452.697
				C1916.72,1496.067,1918.447,1497.762,1920.578,1497.762z"/>
			
				<linearGradient id="SVGID_00000072268762794384748070000006224797909635013546_" gradientUnits="userSpaceOnUse" x1="2499.1206" y1="225.847" x2="2339.1206" y2="621.8469">
				<stop  offset="0" style="stop-color:#4042E2"/>
				<stop  offset="1" style="stop-color:#4F52FF"/>
			</linearGradient>
			<path style="fill:url(#SVGID_00000072268762794384748070000006224797909635013546_);" d="M2177.414,1497.762
				c0.504,0,1.015-0.098,1.508-0.303c1.961-0.818,2.875-3.042,2.041-4.968l-197.265-455.567c-0.833-1.925-3.102-2.82-5.06-2.003
				c-1.96,0.818-2.874,3.042-2.041,4.968l197.265,455.567C2174.486,1496.897,2175.914,1497.762,2177.414,1497.762z"/>
			
				<linearGradient id="SVGID_00000023989377327810216060000017719007731511172009_" gradientUnits="userSpaceOnUse" x1="2394.3721" y1="183.524" x2="2234.3721" y2="579.524">
				<stop  offset="0" style="stop-color:#4042E2"/>
				<stop  offset="1" style="stop-color:#4F52FF"/>
			</linearGradient>
			<path style="fill:url(#SVGID_00000023989377327810216060000017719007731511172009_);" d="M2055.565,1497.762
				c0.504,0,1.015-0.098,1.508-0.303c1.96-0.818,2.874-3.042,2.041-4.968l-197.265-455.567c-0.834-1.925-3.101-2.82-5.059-2.003
				c-1.961,0.818-2.875,3.042-2.041,4.968l197.265,455.567C2052.637,1496.897,2054.065,1497.762,2055.565,1497.762z"/>
			
				<linearGradient id="SVGID_00000089551707210531084850000005284074965863837852_" gradientUnits="userSpaceOnUse" x1="2266.249" y1="131.7601" x2="2106.249" y2="527.7601">
				<stop  offset="0" style="stop-color:#4042E2"/>
				<stop  offset="1" style="stop-color:#4F52FF"/>
			</linearGradient>
			<path style="fill:url(#SVGID_00000089551707210531084850000005284074965863837852_);" d="M1810.051,1042.573h180.7
				c3.003,0,5.437-2.39,5.437-5.338l0,0c0-2.948-2.434-5.338-5.437-5.338h-180.7c-3.003,0-5.437,2.39-5.437,5.338l0,0
				C1804.614,1040.183,1807.048,1042.573,1810.051,1042.573z"/>
			
				<linearGradient id="SVGID_00000088845619845366799240000001003941959037304233_" gradientUnits="userSpaceOnUse" x1="2332.8069" y1="158.6519" x2="2172.8069" y2="554.6517">
				<stop  offset="0" style="stop-color:#4042E2"/>
				<stop  offset="1" style="stop-color:#4F52FF"/>
			</linearGradient>
			<path style="fill:url(#SVGID_00000088845619845366799240000001003941959037304233_);" d="M1888.1,1111.854h122.209
				c2.131,0,3.858-1.696,3.858-3.787c0-2.092-1.727-3.787-3.858-3.787H1888.1c-2.131,0-3.858,1.696-3.858,3.787
				C1884.243,1110.158,1885.97,1111.854,1888.1,1111.854z"/>
			
				<linearGradient id="SVGID_00000108279855880650576940000004021148257894988464_" gradientUnits="userSpaceOnUse" x1="2394.9707" y1="183.7636" x2="2234.9707" y2="579.7634">
				<stop  offset="0" style="stop-color:#4042E2"/>
				<stop  offset="1" style="stop-color:#4F52FF"/>
			</linearGradient>
			
				<rect x="1925.598" y="1190.439" style="fill:url(#SVGID_00000108279855880650576940000004021148257894988464_);" width="122.209" height="7.575"/>
			
				<linearGradient id="SVGID_00000058568706892553535060000018233528104835476116_" gradientUnits="userSpaceOnUse" x1="2456.1033" y1="208.4665" x2="2296.1035" y2="604.466">
				<stop  offset="0" style="stop-color:#4042E2"/>
				<stop  offset="1" style="stop-color:#4F52FF"/>
			</linearGradient>
			
				<rect x="1961.9" y="1276.598" style="fill:url(#SVGID_00000058568706892553535060000018233528104835476116_);" width="122.209" height="7.574"/>
			
				<linearGradient id="SVGID_00000026137035135639117940000001106076503537286042_" gradientUnits="userSpaceOnUse" x1="2518.7563" y1="233.7807" x2="2358.7563" y2="629.7806">
				<stop  offset="0" style="stop-color:#4042E2"/>
				<stop  offset="1" style="stop-color:#4F52FF"/>
			</linearGradient>
			<path style="fill:url(#SVGID_00000026137035135639117940000001106076503537286042_);" d="M1999.969,1370.332h122.21
				c2.13,0,3.857-1.696,3.857-3.787c0-2.092-1.727-3.787-3.857-3.787h-122.21c-2.13,0-3.857,1.695-3.857,3.787
				C1996.111,1368.636,1997.839,1370.332,1999.969,1370.332z"/>
			
				<linearGradient id="SVGID_00000141418324212739789280000016768693122961318590_" gradientUnits="userSpaceOnUse" x1="2580.3232" y1="258.6569" x2="2420.3235" y2="654.6565">
				<stop  offset="0" style="stop-color:#4042E2"/>
				<stop  offset="1" style="stop-color:#4F52FF"/>
			</linearGradient>
			<path style="fill:url(#SVGID_00000141418324212739789280000016768693122961318590_);" d="M2036.775,1456.493h122.209
				c2.131,0,3.857-1.695,3.857-3.787c0-2.092-1.727-3.787-3.857-3.787h-122.209c-2.131,0-3.858,1.695-3.858,3.787
				C2032.917,1454.797,2034.644,1456.493,2036.775,1456.493z"/>
		</g>
		<g>
			
				<linearGradient id="SVGID_00000033365410764382162650000014677480808677269139_" gradientUnits="userSpaceOnUse" x1="1837.4958" y1="886.0869" x2="1955.4958" y2="982.7535">
				<stop  offset="0" style="stop-color:#FF928E"/>
				<stop  offset="1" style="stop-color:#FEB3B1"/>
			</linearGradient>
			<path style="fill:url(#SVGID_00000033365410764382162650000014677480808677269139_);" d="M1872.251,840.263l27.783,6.946
				l-6.945,52.092c0,0,10.418,10.419,13.891,24.31c3.473,13.891,6.675,72.219,6.675,72.219l6.592,3.985l0.802,3.327l-19.179,25.788
				l3.181-20.525c0.505-3.258-0.37-9.866-0.094-10.005c-10.419-27.783-32.704-106.046-32.704-106.046V840.263z"/>
			
				<linearGradient id="SVGID_00000147197041167899931530000017548026174875257492_" gradientUnits="userSpaceOnUse" x1="1969.1866" y1="849.9753" x2="1902.52" y2="885.9753">
				<stop  offset="0" style="stop-color:#FF928E"/>
				<stop  offset="1" style="stop-color:#FEB3B1"/>
			</linearGradient>
			<path style="fill:url(#SVGID_00000147197041167899931530000017548026174875257492_);" d="M1864.133,1003.5
				c0.301-0.005,0.596,0.019,0.899,0c-1.343-16.749-7.478-90.462-13.618-118.09c-6.946-31.256,10.418-93.767,10.418-93.767
				l31.256,31.256l-17.365,59.038c11.9,17.849-1.941,122.38-1.643,122.334l-0.019,0.232l4.531,6.23l-0.551,3.377l-27.679,16.333
				l10.891-17.686C1862.982,1009.951,1863.938,1006.768,1864.133,1003.5z"/>
			
				<linearGradient id="SVGID_00000137818902651185341880000014474207778376855936_" gradientUnits="userSpaceOnUse" x1="-1373.5699" y1="716.8917" x2="-1340.323" y2="716.8917" gradientTransform="matrix(-1 0 0 1 552.765 0)">
				<stop  offset="0" style="stop-color:#FF928E"/>
				<stop  offset="1" style="stop-color:#FEB3B1"/>
			</linearGradient>
			<path style="fill:url(#SVGID_00000137818902651185341880000014474207778376855936_);" d="M1899.288,653.022
				c0,0,60.855,84.442,0,127.739l-6.2-5.527c0,0,30.213-35.619,0-79.222L1899.288,653.022z"/>
			
				<linearGradient id="SVGID_00000059290367364584917510000015396800766842887565_" gradientUnits="userSpaceOnUse" x1="346.4233" y1="632.5599" x2="334.4232" y2="735.2269" gradientTransform="matrix(1 0 0 1 1562.7184 0)">
				<stop  offset="0" style="stop-color:#09005D"/>
				<stop  offset="1" style="stop-color:#1A0F91"/>
			</linearGradient>
			<path style="fill:url(#SVGID_00000059290367364584917510000015396800766842887565_);" d="M1848.54,1033.006h8.833
				c1.654,0,3.213-0.759,4.221-2.069c2.754-3.578,8.458-10.559,11.187-10.741c3.672-0.245,3.203,12.81,3.203,12.81h2.058
				l2.607-16.223c0.656-4.082-1.374-8.125-5.039-10.038l0,0c0,0-0.84,6.208-5.391,8.954c-4.552,2.746-18.523,12.58-18.523,12.58
				s-1.711-0.244-3.59,0.096C1845.319,1028.879,1845.708,1033.006,1848.54,1033.006z"/>
			
				<linearGradient id="SVGID_00000155835299510569529930000016194928494284490424_" gradientUnits="userSpaceOnUse" x1="1885.7303" y1="893.6949" x2="1895.7303" y2="941.6949">
				<stop  offset="0" style="stop-color:#09005D"/>
				<stop  offset="1" style="stop-color:#1A0F91"/>
			</linearGradient>
			<path style="fill:url(#SVGID_00000155835299510569529930000016194928494284490424_);" d="M1901.182,1031.999l8.141-3.425
				c1.524-0.641,2.667-1.946,3.088-3.544c1.151-4.366,3.702-13.012,6.146-14.238c3.29-1.65,7.919,10.566,7.919,10.566l1.897-0.798
				l-3.887-15.965c-0.978-4.017-4.417-6.957-8.537-7.298l0,0c0,0,1.633,6.048-1.497,10.344
				c-3.131,4.296-12.195,18.779-12.195,18.779s-1.672,0.439-3.272,1.48C1896.613,1029.444,1898.572,1033.098,1901.182,1031.999z"/>
			
				<linearGradient id="SVGID_00000057131942945693712840000014052252976770395781_" gradientUnits="userSpaceOnUse" x1="1979.5883" y1="435.8688" x2="1922.5825" y2="639.8892">
				<stop  offset="0" style="stop-color:#09005D"/>
				<stop  offset="1" style="stop-color:#1A0F91"/>
			</linearGradient>
			<path style="fill:url(#SVGID_00000057131942945693712840000014052252976770395781_);" d="M1853.872,738.794
				c0,0,1.021,6.26-0.475,23.469c-1.497,17.209-8.65,57.613-7.193,96.271c0,0,20.335,4.739,55.665,2.494
				c0,0,14.91-60.357,11.277-83.302c-3.632-22.945-23.335-39.406-23.335-39.406L1853.872,738.794z"/>
			
				<linearGradient id="SVGID_00000146473084970252121290000017389132011118145665_" gradientUnits="userSpaceOnUse" x1="-1337.2607" y1="630.7174" x2="-1313.6473" y2="630.7174" gradientTransform="matrix(-1 0 0 1 552.765 0)">
				<stop  offset="0" style="stop-color:#FF928E"/>
				<stop  offset="1" style="stop-color:#FEB3B1"/>
			</linearGradient>
			<polygon style="fill:url(#SVGID_00000146473084970252121290000017389132011118145665_);" points="1868.898,623.797 
				1866.412,653.022 1890.026,653.022 1884.154,608.412 			"/>
			
				<linearGradient id="SVGID_00000036221785788897026810000004558129581326947771_" gradientUnits="userSpaceOnUse" x1="-1294.7178" y1="656.301" x2="-1419.7585" y2="816.7149" gradientTransform="matrix(-1 0 0 1 552.765 0)">
				<stop  offset="0" style="stop-color:#FE7062"/>
				<stop  offset="1" style="stop-color:#FF928E"/>
			</linearGradient>
			<path style="fill:url(#SVGID_00000036221785788897026810000004558129581326947771_);" d="M1897.021,648.981
				c-8.15-0.45-26.37-1.281-39.278-0.578c-6.796,0.37-12.489,5.246-13.879,11.909l-3.148,15.087
				c-1.173,5.619-0.997,11.437,0.512,16.976l12.645,46.418c0,0,11.247,6.759,35.938-0.474c0,0,21.684-51.709,12.808-84.787
				C1901.929,650.964,1899.677,649.128,1897.021,648.981z"/>
			
				<linearGradient id="SVGID_00000103970298693244828930000009342843839599472812_" gradientUnits="userSpaceOnUse" x1="1816.667" y1="539.3336" x2="1816.667" y2="610.0003">
				<stop  offset="0" style="stop-color:#FF928E"/>
				<stop  offset="1" style="stop-color:#FEB3B1"/>
			</linearGradient>
			<path style="fill:url(#SVGID_00000103970298693244828930000009342843839599472812_);" d="M1844.481,657.606
				c-3.478,9.162-6.619,18.77-9.994,27.768c-1.716,4.503-3.457,8.918-5.319,12.973c-0.942,2.019-1.977,3.874-2.926,5.557
				c-0.951,1.665-2.021,3.05-2.579,3.688c-0.109,0.094,0.257,0.167,0.38,0.173c0.074,0.009-2.351,0.398-3.095,0.522l-2.907-0.017
				c-4.166-0.215-8.885-0.949-13.618-1.869c-9.547-1.78-19.473-4.279-29.665-6.17l-0.078-0.014c-1.95-0.362-3.824,0.926-4.186,2.876
				c-0.238,1.286,0.246,2.543,1.158,3.351c4.109,3.617,8.465,6.589,12.984,9.482c2.274,1.391,4.588,2.754,6.941,4.063
				c2.399,1.223,4.804,2.455,7.302,3.594c5.03,2.192,10.226,4.21,16.212,5.507c1.573,0.263,3.126,0.539,4.744,0.756
				c1.816,0.063,3.464,0.224,5.447,0.109c1.053-0.104,2.111-0.233,3.166-0.387c0.563-0.099,0.976-0.11,1.658-0.298
				c0.723-0.217,1.445-0.46,2.156-0.727c1.487-0.533,2.447-1.179,3.655-1.851c1.003-0.661,1.917-1.352,2.803-2.061
				c3.273-2.787,5.305-5.554,7.096-8.21c1.786-2.654,3.202-5.312,4.473-7.918c2.549-5.205,4.54-10.362,6.155-15.555
				c3.273-10.406,5.49-20.634,6.426-31.497c0.448-5.203-3.407-9.785-8.61-10.233c-4.307-0.371-8.188,2.206-9.651,6.055
				L1844.481,657.606z"/>
			
				<linearGradient id="SVGID_00000091715186682378554290000001630426451855606915_" gradientUnits="userSpaceOnUse" x1="1788.2695" y1="588.6165" x2="1777.6028" y2="637.95">
				<stop  offset="0" style="stop-color:#FF928E"/>
				<stop  offset="1" style="stop-color:#FEB3B1"/>
			</linearGradient>
			<path style="fill:url(#SVGID_00000091715186682378554290000001630426451855606915_);" d="M1777.965,704.899l-4.214-10.002
				l-22.178-5.526c0,0-1.775,3.844,7.54,5.526c0,0-3.327,3.677-1.553,8.002C1759.335,707.224,1778.187,711.556,1777.965,704.899z"/>
			
				<linearGradient id="SVGID_00000010297924125159819030000004037185359332077998_" gradientUnits="userSpaceOnUse" x1="1993.7209" y1="511.6873" x2="1917.2249" y2="568.6843">
				<stop  offset="0" style="stop-color:#FF928E"/>
				<stop  offset="1" style="stop-color:#FEB3B1"/>
			</linearGradient>
			<path style="fill:url(#SVGID_00000010297924125159819030000004037185359332077998_);" d="M1858.9,590.046
				c-0.843,0.497-7.486,23.928-1.919,33.752s22.567-1.18,27.174-15.385C1888.761,594.207,1881.36,576.801,1858.9,590.046z"/>
			
				<linearGradient id="SVGID_00000130621790005962973570000015628374243703884470_" gradientUnits="userSpaceOnUse" x1="1853.1" y1="554.2294" x2="1935.1" y2="660.8961">
				<stop  offset="0" style="stop-color:#09005D"/>
				<stop  offset="1" style="stop-color:#1A0F91"/>
			</linearGradient>
			<path style="fill:url(#SVGID_00000130621790005962973570000015628374243703884470_);" d="M1902.96,608.412
				c3.813,18.682,16.447,13.569,25.396,21.881c14.503,13.471,35.25-0.416,55.42,12.35c14.561,9.216,21.577,32.794,14.589,51.83
				c-9.678,26.366-42.752,37.208-59.892,29.178c-16.381-7.675-14.048-30.661-36.088-39.544c-9.357-3.771-13.976-1.321-19.58-6.91
				c-9.81-9.785-7.163-28.773-6.143-36.089c2.213-15.873,7.535-18.746,4.991-25.722c-4.947-13.569-28.023-10.769-29.946-20.348
				c-1.751-8.723,14.974-25.257,30.714-22.652C1906.773,576.417,1901.262,600.089,1902.96,608.412z"/>
			<path style="fill:#7D97F4;" d="M1991.092,690.008c0.289,0,0.549-0.196,0.62-0.488c3.118-12.944,1.704-23.559-4.206-31.552
				c-9.807-13.265-28.867-14.578-29.059-14.589c-0.3-0.05-0.653,0.246-0.675,0.598c-0.021,0.351,0.245,0.654,0.598,0.675
				c0.186,0.011,18.669,1.294,28.117,14.082c5.671,7.674,7.012,17.932,3.986,30.488c-0.082,0.342,0.128,0.687,0.471,0.77
				C1990.993,690.001,1991.044,690.008,1991.092,690.008z"/>
			<path style="fill:#7D97F4;" d="M1928.666,701.857c0.026,0,0.053-0.004,0.081-0.01c0.17-0.045,0.272-0.219,0.228-0.39
				c-3.037-11.653-8.366-19.745-15.838-24.055c-5.435-3.135-10.525-3.427-15.016-3.684c-4.33-0.249-8.069-0.465-11.079-3.141
				c-6.221-5.532-5.861-18.833,1.071-39.535c0.056-0.167-0.035-0.348-0.202-0.404c-0.168-0.056-0.348,0.035-0.404,0.201
				c-7.02,20.966-7.319,34.495-0.889,40.213c3.175,2.824,7.016,3.046,11.466,3.301c4.419,0.254,9.429,0.542,14.734,3.601
				c7.318,4.22,12.546,12.182,15.538,23.664C1928.394,701.763,1928.523,701.857,1928.666,701.857z"/>
			<path style="fill:#7D97F4;" d="M1893.939,603.776c0.034,0,0.067-0.005,0.102-0.016c0.167-0.056,0.257-0.238,0.2-0.404
				c-2.414-7.182-9.37-6.115-16.74-4.982c-4.665,0.717-9.487,1.456-13.578,0.245c-3.052-0.905-4.865-2.307-5.389-4.169
				c-0.896-3.169,2.24-6.703,2.271-6.739c0.118-0.131,0.107-0.333-0.024-0.45c-0.129-0.118-0.333-0.107-0.449,0.023
				c-0.139,0.154-3.401,3.827-2.413,7.337c0.588,2.086,2.547,3.636,5.823,4.607c4.23,1.253,9.122,0.502,13.856-0.225
				c7.398-1.136,13.794-2.121,16.038,4.556C1893.681,603.693,1893.806,603.776,1893.939,603.776z"/>
		</g>
		<g>
			<path style="fill:#91B3FA;" d="M791.061,219.125v203.939c0,32.324-26.427,58.409-58.749,57.987l-432.248-5.64
				c-29.798-0.389-54.451-23.298-57.02-52.988L224.8,211.556c-2.987-34.517,24.761-63.934,59.393-62.968l450.493,12.568
				C766.072,162.032,791.061,187.727,791.061,219.125z"/>
			<g>
				<path style="fill:#BDD0FB;" d="M751.241,232.209v0.028c0,8.431-6.835,15.265-15.266,15.264l-425.492-0.028
					c-8.373-0.001-15.183-6.748-15.261-15.122l0,0c-0.079-8.485,6.778-15.406,15.263-15.406h425.492
					C744.408,216.945,751.241,223.779,751.241,232.209z"/>
				<path style="fill:#BDD0FB;" d="M751.241,286.776v0.028c0,8.431-6.835,15.265-15.266,15.264l-425.492-0.028
					c-8.373-0.001-15.183-6.749-15.261-15.122l0,0c-0.079-8.485,6.778-15.406,15.263-15.406h425.492
					C744.408,271.513,751.241,278.346,751.241,286.776z"/>
				<path style="fill:#BDD0FB;" d="M751.241,341.344v0.028c0,8.431-6.835,15.265-15.266,15.264l-425.492-0.028
					c-8.373-0.001-15.183-6.748-15.261-15.122l0,0c-0.079-8.485,6.778-15.406,15.263-15.406h425.492
					C744.408,326.08,751.241,332.914,751.241,341.344z"/>
				<path style="fill:#BDD0FB;" d="M751.241,395.911v0.028c0,8.431-6.835,15.265-15.266,15.264l-425.492-0.028
					c-8.373-0.001-15.183-6.749-15.261-15.122l0,0c-0.079-8.485,6.778-15.406,15.263-15.406h425.492
					C744.408,380.647,751.241,387.482,751.241,395.911z"/>
			</g>
		</g>
		<g>
			<g style="opacity:0.54;">
				<path style="fill:#7D97F4;" d="M938.035,521.213l-322.739-1.798c-13.212-0.073-21.419,14.333-14.618,25.661l1.621,2.699
					c3.062,5.1,8.575,8.221,14.524,8.221H937.94c9.356,0,16.941-7.585,16.941-16.941v-0.901
					C954.881,528.834,947.354,521.265,938.035,521.213z"/>
				<path style="fill:#7D97F4;" d="M983.118,538.529v0.525c0,9.356,7.584,16.941,16.941,16.941h71.644
					c7.672,0,14.386-5.156,16.367-12.568l0,0c2.861-10.707-5.16-21.232-16.242-21.313l-71.644-0.525
					C990.779,521.52,983.118,529.125,983.118,538.529z"/>
			</g>
			<g style="opacity:0.54;">
				<path style="fill:#7D97F4;" d="M860.401,582.024l-245.104-1.798c-13.212-0.073-21.419,14.333-14.618,25.661l1.621,2.699
					c3.062,5.1,8.575,8.221,14.524,8.221h243.484c9.356,0,16.941-7.584,16.941-16.941v-0.901
					C877.247,589.645,869.72,582.076,860.401,582.024z"/>
				<path style="fill:#7D97F4;" d="M905.484,599.341v0.525c0,9.356,7.585,16.941,16.941,16.941h71.644
					c7.672,0,14.386-5.156,16.367-12.568l0,0c2.861-10.707-5.16-21.232-16.242-21.313l-71.644-0.525
					C913.144,582.332,905.484,589.936,905.484,599.341z"/>
			</g>
		</g>
		<g>
			<g>
				<path style="fill:#7D97F4;" d="M315.173,1248.282c-5.326,7.881-26.493,186.313-29.806,252.214
					c-0.224,4.456,3.341,8.172,7.803,8.172l0,0c3.848,0,7.123-2.803,7.716-6.605l38.716-248.105L315.173,1248.282z"/>
				<path style="fill:#7D97F4;" d="M485.357,1248.282c5.326,7.881,26.493,186.313,29.806,252.214
					c0.224,4.456-3.34,8.172-7.803,8.172l0,0c-3.848,0-7.123-2.803-7.716-6.605l-38.716-248.105L485.357,1248.282z"/>
				<path style="fill:#7D97F4;" d="M283.153,1234.356l-0.018,1.945c-0.128,13.998,11.932,25.481,27.032,25.738l178.955,3.044
					c14.883,0.253,27.289-10.502,28.011-24.283l0.093-1.781c0.753-14.373-11.452-26.482-26.973-26.76l-179.031-3.209
					C295.9,1208.776,283.283,1220.15,283.153,1234.356z"/>
			</g>
			<g>
				<g>
					
						<linearGradient id="SVGID_00000099641223599500315110000016064709952112236461_" gradientUnits="userSpaceOnUse" x1="643.7151" y1="1569.1072" x2="645.2153" y2="1150.6309">
						<stop  offset="0" style="stop-color:#4042E2"/>
						<stop  offset="1" style="stop-color:#4F52FF"/>
					</linearGradient>
					<path style="fill:url(#SVGID_00000099641223599500315110000016064709952112236461_);" d="M631.294,1494.015
						c-31.812,0-45.888-2.729-52.18-5.218c1.223,5.224,5.876,9.349,11.755,9.349h112.54c3.79,0,6.182-3.628,5.276-6.912
						C695.858,1492.265,668.611,1494.015,631.294,1494.015z"/>
					
						<linearGradient id="SVGID_00000044144122159232953420000011648086909922355851_" gradientUnits="userSpaceOnUse" x1="622.4453" y1="1142.0305" x2="632.9449" y2="1313.0226">
						<stop  offset="0" style="stop-color:#09005D"/>
						<stop  offset="1" style="stop-color:#1A0F91"/>
					</linearGradient>
					<path style="fill:url(#SVGID_00000044144122159232953420000011648086909922355851_);" d="M708.686,1491.233
						c-0.183-0.662-0.451-1.314-0.921-1.915c-8.573-10.945-25.794-28.134-49.219-27.804c-34.317,0.483-46.282,4.206-72.95,0.209
						l-6.291,20.853c-0.641,2.125-0.652,4.248-0.19,6.221c6.293,2.489,20.369,5.218,52.18,5.218
						C668.611,1494.015,695.858,1492.265,708.686,1491.233z"/>
				</g>
				
					<linearGradient id="SVGID_00000110433747013538594010000008700956935675821486_" gradientUnits="userSpaceOnUse" x1="585.596" y1="1454.3661" x2="620.7062" y2="1454.3661">
					<stop  offset="0" style="stop-color:#FF928E"/>
					<stop  offset="1" style="stop-color:#FEB3B1"/>
				</linearGradient>
				<path style="fill:url(#SVGID_00000110433747013538594010000008700956935675821486_);" d="M593.318,1439.251l-7.722,26.265
					c0,0,17.108,7.788,32.156,1.536l2.955-22.755L593.318,1439.251z"/>
				<g>
					
						<linearGradient id="SVGID_00000003072746132663342480000011754804786104098192_" gradientUnits="userSpaceOnUse" x1="834.6646" y1="1569.7922" x2="836.1647" y2="1151.3131">
						<stop  offset="0" style="stop-color:#4042E2"/>
						<stop  offset="1" style="stop-color:#4F52FF"/>
					</linearGradient>
					<path style="fill:url(#SVGID_00000003072746132663342480000011754804786104098192_);" d="M826.571,1477.474
						c-24.798,19.925-37.472,26.624-43.929,28.635c4.21,3.287,10.408,3.573,14.992-0.11l87.73-70.49
						c2.954-2.374,2.558-6.687-0.196-8.667C875.81,1435.677,855.661,1454.101,826.571,1477.474z"/>
					
						<linearGradient id="SVGID_00000039817031889643858700000010246125267189708694_" gradientUnits="userSpaceOnUse" x1="808.1398" y1="1130.6295" x2="818.6394" y2="1301.6211">
						<stop  offset="0" style="stop-color:#09005D"/>
						<stop  offset="1" style="stop-color:#1A0F91"/>
					</linearGradient>
					<path style="fill:url(#SVGID_00000039817031889643858700000010246125267189708694_);" d="M885.167,1426.842
						c-0.555-0.4-1.171-0.737-1.912-0.909c-13.505-3.122-37.645-5.672-55.701,9.257c-26.451,21.87-33.457,32.252-56.737,45.855
						l8.095,20.12c0.826,2.05,2.14,3.705,3.729,4.945c6.457-2.01,19.131-8.709,43.929-28.635
						C855.661,1454.101,875.81,1435.677,885.167,1426.842z"/>
				</g>
				
					<linearGradient id="SVGID_00000011030184855294990550000004982209417051251339_" gradientUnits="userSpaceOnUse" x1="515.5354" y1="1297.9617" x2="377.5417" y2="1665.4445">
					<stop  offset="0" style="stop-color:#4042E2"/>
					<stop  offset="1" style="stop-color:#4F52FF"/>
				</linearGradient>
				<path style="fill:url(#SVGID_00000011030184855294990550000004982209417051251339_);" d="M428.12,1140.013
					c0,0,190.458,15.551,229.529,33.944c39.071,18.393-31.884,276.175-31.884,276.175s-10.637,5.119-34.305-2.239
					c0,0,24.271-190.233,6.21-231.484l-206.216-33.729L428.12,1140.013z"/>
				
					<linearGradient id="SVGID_00000052102004262424254270000008200365749180126863_" gradientUnits="userSpaceOnUse" x1="751.8944" y1="1457.3212" x2="793.811" y2="1457.3212">
					<stop  offset="0" style="stop-color:#FF928E"/>
					<stop  offset="1" style="stop-color:#FEB3B1"/>
				</linearGradient>
				<path style="fill:url(#SVGID_00000052102004262424254270000008200365749180126863_);" d="M751.894,1444.833
					c1.768,1.611,18.923,36.211,18.923,36.211s19.099-4.132,22.993-16.218l-17.184-31.228L751.894,1444.833z"/>
				
					<linearGradient id="SVGID_00000130629193174479904290000000749335431575637127_" gradientUnits="userSpaceOnUse" x1="721.5861" y1="895.0366" x2="654.0895" y2="1048.0291">
					<stop  offset="0" style="stop-color:#4042E2"/>
					<stop  offset="1" style="stop-color:#4F52FF"/>
				</linearGradient>
				<path style="fill:url(#SVGID_00000130629193174479904290000000749335431575637127_);" d="M313.409,1138.421
					c0,0-6.207,14.934-5.953,34.781c0.35,27.446,22.416,49.718,49.83,51.087l225.152,10.267c4.755,0.217,8.778,3.507,9.969,8.116
					c5.29,20.465,31.152,83.31,157.567,208.712c3.363,3.337,8.603,3.904,12.608,1.374l17.996-11.367
					c1.889-1.193,2.492-3.669,1.363-5.598l-131.095-223.865c-6.886-11.363-17.954-19.572-30.827-22.862l-191.899-49.053
					L313.409,1138.421z"/>
				
					<linearGradient id="SVGID_00000173840044579905079870000004725550539292726460_" gradientUnits="userSpaceOnUse" x1="572.6168" y1="566.5662" x2="557.6152" y2="689.5784">
					<stop  offset="0" style="stop-color:#FF928E"/>
					<stop  offset="1" style="stop-color:#FEB3B1"/>
				</linearGradient>
				<path style="fill:url(#SVGID_00000173840044579905079870000004725550539292726460_);" d="M574.608,793.748
					c0,0-63.433,37.623-88.024,58.282l50.829,28.359c0,0,27.467-31.728,53.634-44.949L574.608,793.748z"/>
				
					<linearGradient id="SVGID_00000028294888585832431000000003606452397943158196_" gradientUnits="userSpaceOnUse" x1="309.3198" y1="995.7402" x2="708.5382" y2="995.7402">
					<stop  offset="0" style="stop-color:#4042E2"/>
					<stop  offset="1" style="stop-color:#4F52FF"/>
				</linearGradient>
				<path style="fill:url(#SVGID_00000028294888585832431000000003606452397943158196_);" d="M309.32,1140.013
					c0,0,60.783,14.813,118.801,0c0,0,81.183-109.133,112.591-138.836c0,0,50.098,79.055,161.608,90.258l6.219-13.897
					c0,0-88.774-40.923-116.103-103.802s-38.305-89.697-63.169-106.102c-15.485-10.217-24.756-17.197-29.548-21.008
					c-2.623-2.087-6.243-2.322-9.106-0.578C464.226,862.127,340.069,947.161,309.32,1140.013z"/>
				
					<linearGradient id="SVGID_00000096020911677464265290000016476123401819906962_" gradientUnits="userSpaceOnUse" x1="611.0638" y1="544.427" x2="554.0583" y2="817.4545">
					<stop  offset="0" style="stop-color:#4042E2"/>
					<stop  offset="1" style="stop-color:#4F52FF"/>
				</linearGradient>
				<path style="fill:url(#SVGID_00000096020911677464265290000016476123401819906962_);" d="M537.417,1000.56
					c-1.447,0-2.878-0.649-3.828-1.887c-19.436-25.347-30.263-53.283-30.714-54.459c-0.954-2.485,0.288-5.271,2.772-6.225
					c2.487-0.951,5.272,0.286,6.227,2.772c0.106,0.275,10.807,27.846,29.365,52.046c1.619,2.112,1.221,5.138-0.892,6.758
					C539.471,1000.236,538.44,1000.56,537.417,1000.56z"/>
				
					<linearGradient id="SVGID_00000183234305770701288790000013280825455139058829_" gradientUnits="userSpaceOnUse" x1="695.6144" y1="1069.3187" x2="792.4373" y2="1069.3187">
					<stop  offset="0" style="stop-color:#FF928E"/>
					<stop  offset="1" style="stop-color:#FEB3B1"/>
				</linearGradient>
				<path style="fill:url(#SVGID_00000183234305770701288790000013280825455139058829_);" d="M695.614,1070.28l12.552-3.346
					l38.109-8.825c4.588-1.062,9.41-0.249,13.395,2.258l32.767,20.616l-90.49-0.153L695.614,1070.28z"/>
				<g>
					
						<linearGradient id="SVGID_00000052062045143283541020000002973443048969750708_" gradientUnits="userSpaceOnUse" x1="274.8546" y1="2413.2429" x2="180.6291" y2="2537.8955" gradientTransform="matrix(0.9897 -0.1428 0.1428 0.9897 1.6639 -1579.7996)">
						<stop  offset="0" style="stop-color:#FF928E"/>
						<stop  offset="1" style="stop-color:#FEB3B1"/>
					</linearGradient>
					<path style="fill:url(#SVGID_00000052062045143283541020000002973443048969750708_);" d="M636.521,766.158
						c0.177,1.23-16.244,81.701-16.244,81.701l-45.749-10.353l4.232-78.583C578.761,758.923,633.551,745.575,636.521,766.158z"/>
					
						<linearGradient id="SVGID_00000160897187218054615840000015914469523048754351_" gradientUnits="userSpaceOnUse" x1="202.8931" y1="2443.312" x2="315.4468" y2="2443.312" gradientTransform="matrix(0.9897 -0.1428 0.1428 0.9897 1.6639 -1579.7996)">
						<stop  offset="0" style="stop-color:#09005D"/>
						<stop  offset="1" style="stop-color:#1A0F91"/>
					</linearGradient>
					<path style="fill:url(#SVGID_00000160897187218054615840000015914469523048754351_);" d="M589.051,776.434l-5.468,41.193
						c-0.07,0.528-0.07,1.05,0.006,1.578c0.461,3.229,2.863,14.221,13.96,11.078c10.069-2.852,19.301-5.305,25.678-3.355
						c2.863,0.876,4.591,3.776,3.991,6.71c-1.494,7.311-5.165,23.723-10.53,37.496c-1.089,2.795-4.149,4.262-7.029,3.423
						c-8.677-2.529-26.827-8.376-40.327-16.5c-1.829-1.101-2.919-3.091-2.829-5.223c0.439-10.399,1.655-42.01,0.631-50.872
						c-0.961-8.317-11.168-13.3-15.603-15.087c-1.454-0.586-2.594-1.731-3.175-3.187c-2.054-5.146-4.885-17.055,10.123-21.936
						c3.141-1.021,4.797-4.408,3.68-7.516c-2.222-6.189-3.16-15.632,8.45-20.836c11.801-5.288,20.614,1.002,25.373,6.115
						c1.924,2.067,5.012,2.382,7.399,0.874c1.359-0.859,3.11-1.14,5.226,0.178c2.851,1.776,6.626,0.565,8.097-2.454
						c2.826-5.8,8.585-12.014,20.139-10.035c20.5,3.511,22.822,26.228,17.414,39.541c-5.408,13.312-27.418,8.242-38.459,1.531
						c-8.395-5.103-19.285,0.246-24.023,3.103C590.275,773.156,589.281,774.697,589.051,776.434z"/>
					
						<linearGradient id="SVGID_00000049930589710008945190000005865368514496113572_" gradientUnits="userSpaceOnUse" x1="136.8508" y1="2511.9585" x2="212.4278" y2="2434.4185" gradientTransform="matrix(0.9897 -0.1428 0.1428 0.9897 1.6639 -1579.7996)">
						<stop  offset="0" style="stop-color:#FF928E"/>
						<stop  offset="1" style="stop-color:#FEB3B1"/>
					</linearGradient>
					<path style="fill:url(#SVGID_00000049930589710008945190000005865368514496113572_);" d="M565.294,816.979
						c0,0,8.428-23.601-0.231-29.38c-8.659-5.78-21.483-2.779-18.659,14.318C549.916,823.183,565.294,816.979,565.294,816.979z"/>
				</g>
			</g>
			<g>
				<g>
					
						<linearGradient id="SVGID_00000091009880485639885900000009042940673016741760_" gradientUnits="userSpaceOnUse" x1="10671.4023" y1="-14530.5938" x2="10412.458" y2="-14280.2451" gradientTransform="matrix(-1.388 -0.0686 -0.0685 1.3855 -6236.5127 -215.9469)">
						<stop  offset="0" style="stop-color:#4042E2"/>
						<stop  offset="1" style="stop-color:#4F52FF"/>
					</linearGradient>
					<path style="fill:url(#SVGID_00000091009880485639885900000009042940673016741760_);" d="M660.655,1098.735
						c0.148,0.007,0.296,0.011,0.445,0.01l193.314-0.193c4.779-0.004,8.648-3.875,8.643-8.644c-0.005-4.772-3.897-8.714-8.664-8.629
						l-193.314,0.193c-4.779,0.004-8.648,3.874-8.643,8.645C652.442,1094.738,656.083,1098.509,660.655,1098.735z"/>
				</g>
				<g>
					
						<linearGradient id="SVGID_00000053528026108357829700000003517820641300520076_" gradientUnits="userSpaceOnUse" x1="7910.5396" y1="-14135.8916" x2="7651.6064" y2="-13885.5537" gradientTransform="matrix(0.6475 -1.2297 -1.2274 -0.6463 7293.9038 -7927.8447)">
						<stop  offset="0" style="stop-color:#4042E2"/>
						<stop  offset="1" style="stop-color:#4F52FF"/>
					</linearGradient>
					<path style="fill:url(#SVGID_00000053528026108357829700000003517820641300520076_);" d="M929.279,909.419
						c-0.069,0.131-0.135,0.263-0.197,0.399l-81.339,175.369c-2.012,4.335-0.134,9.475,4.194,11.482
						c4.329,2.007,9.545,0.14,11.477-4.217l81.339-175.37c2.012-4.335,0.133-9.475-4.194-11.482
						C936.366,903.657,931.411,905.369,929.279,909.419z"/>
				</g>
			</g>
			<g>
				<path style="fill:#BDD0FB;" d="M746.732,1108.437c-0.845,3.498-81.507,306.019-101.957,382.713
					c-2.357,8.839,4.225,17.518,13.272,17.518l0,0c6.308,0,11.805-4.346,13.333-10.54l89.54-363.037L746.732,1108.437z"/>
				<path style="fill:#BDD0FB;" d="M790.901,1108.437c0.845,3.498,81.506,306.019,101.957,382.713
					c2.357,8.839-4.225,17.518-13.271,17.518l0,0c-6.308,0-11.805-4.346-13.333-10.54l-89.54-363.037L790.901,1108.437z"/>
				<path style="fill:#BDD0FB;" d="M794.262,1098.545h-50.237v40.343c0,5.798,4.644,10.499,10.374,10.499h6.891v90.618
					c0,4.39,3.516,7.948,7.853,7.948l0,0c4.337,0,7.853-3.559,7.853-7.948v-90.618h3.497c7.604,0,13.768-6.239,13.768-13.934
					V1098.545z"/>
				
					<linearGradient id="SVGID_00000036972174479868188410000003883343097804726172_" gradientUnits="userSpaceOnUse" x1="793.9376" y1="519.4319" x2="778.9363" y2="789.4577">
					<stop  offset="0" style="stop-color:#09005D"/>
					<stop  offset="1" style="stop-color:#1A0F91"/>
				</linearGradient>
				<path style="fill:url(#SVGID_00000036972174479868188410000003883343097804726172_);" d="M620.504,1088.854h280.507
					c3.92,0,7.344,2.684,8.323,6.526l3.916,15.357c1.409,5.527-2.733,10.907-8.373,10.875l-287.83-1.674
					c-5.579-0.033-9.65-5.351-8.287-10.826l3.406-13.683C613.13,1091.564,616.565,1088.854,620.504,1088.854z"/>
			</g>
		</g>
	</g>
</g>
</svg>
